%FSAX24Y24*%
%MOIN*%
G70*
G01*
G75*
%ADD10C,0.0394*%
%ADD11C,0.0276*%
%ADD12R,0.0630X0.0709*%
%ADD13R,0.0433X0.0394*%
%ADD14R,0.0394X0.0433*%
%ADD15R,0.0591X0.1457*%
%ADD16R,0.0866X0.0236*%
%ADD17R,0.0866X0.0236*%
%ADD18R,0.0807X0.0532*%
%ADD19R,0.0532X0.0807*%
%ADD20R,0.0709X0.0630*%
%ADD21R,0.1014X0.0748*%
%ADD22R,0.0453X0.0236*%
%ADD23R,0.0650X0.0118*%
%ADD24R,0.0630X0.0118*%
%ADD25R,0.0591X0.0335*%
%ADD26R,0.0335X0.0591*%
%ADD27C,0.1969*%
%ADD28R,0.0315X0.0118*%
%ADD29C,0.0315*%
%ADD30C,0.0197*%
%ADD31C,0.0236*%
%ADD32C,0.0472*%
%ADD33C,0.0118*%
%ADD34C,0.0157*%
%ADD35C,0.0591*%
%ADD36R,0.1378X0.0565*%
%ADD37R,0.0945X0.1024*%
%ADD38R,0.0823X0.0266*%
%ADD39R,0.0866X0.0108*%
%ADD40R,0.0591X0.0630*%
%ADD41R,0.2520X0.2480*%
%ADD42C,0.0010*%
%ADD43C,0.0080*%
%ADD44R,0.0591X0.0591*%
%ADD45C,0.0591*%
%ADD46C,0.0984*%
%ADD47C,0.0620*%
%ADD48R,0.0620X0.0620*%
%ADD49C,0.2500*%
%ADD50C,0.0236*%
%ADD51C,0.0472*%
%ADD52C,0.0315*%
%ADD53R,0.0315X0.0630*%
%ADD54R,0.0827X0.1181*%
%ADD55O,0.0118X0.0709*%
%ADD56O,0.0709X0.0118*%
%ADD57R,0.0394X0.0374*%
%ADD58R,0.3307X0.3307*%
%ADD59C,0.0098*%
%ADD60C,0.0079*%
%ADD61C,0.0080*%
%ADD62C,0.0100*%
%ADD63R,0.0710X0.0789*%
%ADD64R,0.0513X0.0474*%
%ADD65R,0.0474X0.0513*%
%ADD66R,0.0671X0.1537*%
%ADD67R,0.0946X0.0316*%
%ADD68R,0.0946X0.0316*%
%ADD69R,0.0887X0.0612*%
%ADD70R,0.0612X0.0887*%
%ADD71R,0.0789X0.0710*%
%ADD72R,0.1094X0.0828*%
%ADD73R,0.0533X0.0316*%
%ADD74R,0.0730X0.0198*%
%ADD75R,0.0710X0.0198*%
%ADD76R,0.0671X0.0415*%
%ADD77R,0.0415X0.0671*%
%ADD78C,0.2049*%
%ADD79R,0.0395X0.0198*%
%ADD80R,0.0671X0.0671*%
%ADD81C,0.0671*%
%ADD82C,0.1064*%
%ADD83C,0.0700*%
%ADD84R,0.0700X0.0700*%
%ADD85C,0.2580*%
%ADD86C,0.0316*%
%ADD87C,0.0552*%
%ADD88C,0.0395*%
%ADD89R,0.0395X0.0710*%
%ADD90R,0.0907X0.1261*%
%ADD91O,0.0198X0.0789*%
%ADD92O,0.0789X0.0198*%
%ADD93R,0.0474X0.0454*%
%ADD94C,0.0140*%
%ADD95C,0.0039*%
%ADD96C,0.0067*%
D42*
X067598Y063898D02*
G03*
X067598Y063898I-000709J000000D01*
G01*
X067303D02*
G03*
X067303Y063898I-000413J000000D01*
G01*
X066968D02*
G03*
X066968Y063898I-000079J000000D01*
G01*
X070650Y090472D02*
X071004D01*
X070827Y090295D02*
Y090650D01*
X070650Y089472D02*
X071004D01*
X070827Y089295D02*
Y089650D01*
X065610Y064882D02*
X066201D01*
X065906Y064587D02*
Y065177D01*
X067579Y064882D02*
X068169D01*
X067874Y064587D02*
Y065177D01*
X067579Y062913D02*
X068169D01*
X067874Y062618D02*
Y063209D01*
X065610Y062913D02*
X066201D01*
X065906Y062618D02*
Y063209D01*
X066594Y063898D02*
X067185D01*
X066890Y063602D02*
Y064193D01*
X075571Y071000D02*
X075941D01*
X075756Y070815D02*
Y071185D01*
X074571Y071000D02*
X074941D01*
X074756Y070815D02*
Y071185D01*
X075571Y072000D02*
X075941D01*
X075756Y071815D02*
Y072185D01*
X074571Y072000D02*
X074941D01*
X074756Y071815D02*
Y072185D01*
X075571Y078000D02*
X075941D01*
X075756Y077815D02*
Y078185D01*
X074571Y078000D02*
X074941D01*
X074756Y077815D02*
Y078185D01*
X075571Y068000D02*
X075941D01*
X075756Y067815D02*
Y068185D01*
X074571Y068000D02*
X074941D01*
X074756Y067815D02*
Y068185D01*
X075571Y069000D02*
X075941D01*
X075756Y068815D02*
Y069185D01*
X074571Y069000D02*
X074941D01*
X074756Y068815D02*
Y069185D01*
X075571Y070000D02*
X075941D01*
X075756Y069815D02*
Y070185D01*
X074571Y070000D02*
X074941D01*
X074756Y069815D02*
Y070185D01*
X075571Y073000D02*
X075941D01*
X075756Y072815D02*
Y073185D01*
X074571Y073000D02*
X074941D01*
X074756Y072815D02*
Y073185D01*
X075571Y074000D02*
X075941D01*
X075756Y073815D02*
Y074185D01*
X074571Y074000D02*
X074941D01*
X074756Y073815D02*
Y074185D01*
X075571Y075000D02*
X075941D01*
X075756Y074815D02*
Y075185D01*
X074571Y075000D02*
X074941D01*
X074756Y074815D02*
Y075185D01*
X075571Y076000D02*
X075941D01*
X075756Y075815D02*
Y076185D01*
X074571Y076000D02*
X074941D01*
X074756Y075815D02*
Y076185D01*
X075571Y077000D02*
X075941D01*
X075756Y076815D02*
Y077185D01*
X074571Y077000D02*
X074941D01*
X074756Y076815D02*
Y077185D01*
X074571Y083000D02*
X074941D01*
X074756Y082815D02*
Y083185D01*
X074571Y082000D02*
X074941D01*
X074756Y081815D02*
Y082185D01*
X074571Y081000D02*
X074941D01*
X074756Y080815D02*
Y081185D01*
X074571Y080000D02*
X074941D01*
X074756Y079815D02*
Y080185D01*
X074571Y079000D02*
X074941D01*
X074756Y078815D02*
Y079185D01*
X075571Y084000D02*
X075941D01*
X075756Y083815D02*
Y084185D01*
X075571Y083000D02*
X075941D01*
X075756Y082815D02*
Y083185D01*
X075571Y082000D02*
X075941D01*
X075756Y081815D02*
Y082185D01*
X075571Y081000D02*
X075941D01*
X075756Y080815D02*
Y081185D01*
X075571Y080000D02*
X075941D01*
X075756Y079815D02*
Y080185D01*
X075571Y079000D02*
X075941D01*
X075756Y078815D02*
Y079185D01*
X075571Y089000D02*
X075941D01*
X075756Y088815D02*
Y089185D01*
X074571Y089000D02*
X074941D01*
X074756Y088815D02*
Y089185D01*
X074571Y085000D02*
X074941D01*
X074756Y084815D02*
Y085185D01*
X075571Y087000D02*
X075941D01*
X075756Y086815D02*
Y087185D01*
X074571Y084000D02*
X074941D01*
X074756Y083815D02*
Y084185D01*
X074571Y086000D02*
X074941D01*
X074756Y085815D02*
Y086185D01*
X075571Y085000D02*
X075941D01*
X075756Y084815D02*
Y085185D01*
X075571Y086000D02*
X075941D01*
X075756Y085815D02*
Y086185D01*
X074571Y090000D02*
X074941D01*
X074756Y089815D02*
Y090185D01*
X074571Y088000D02*
X074941D01*
X074756Y087815D02*
Y088185D01*
X074571Y087000D02*
X074941D01*
X074756Y086815D02*
Y087185D01*
X074571Y067000D02*
X074941D01*
X074756Y066815D02*
Y067185D01*
X075571Y088000D02*
X075941D01*
X075756Y087815D02*
Y088185D01*
X075571Y067000D02*
X075941D01*
X075756Y066815D02*
Y067185D01*
X074571Y066000D02*
X074941D01*
X074756Y065815D02*
Y066185D01*
X074571Y065000D02*
X074941D01*
X074756Y064815D02*
Y065185D01*
X075571Y066000D02*
X075941D01*
X075756Y065815D02*
Y066185D01*
X075571Y065000D02*
X075941D01*
X075756Y064815D02*
Y065185D01*
X075571Y090000D02*
X075941D01*
X075756Y089815D02*
Y090185D01*
X072571Y087000D02*
X072941D01*
X072756Y086815D02*
Y087185D01*
X072571Y088000D02*
X072941D01*
X072756Y087815D02*
Y088185D01*
X073571Y065000D02*
X073941D01*
X073756Y064815D02*
Y065185D01*
X072571Y065000D02*
X072941D01*
X072756Y064815D02*
Y065185D01*
X073571Y066000D02*
X073941D01*
X073756Y065815D02*
Y066185D01*
X072571Y066000D02*
X072941D01*
X072756Y065815D02*
Y066185D01*
X073571Y067000D02*
X073941D01*
X073756Y066815D02*
Y067185D01*
X072571Y067000D02*
X072941D01*
X072756Y066815D02*
Y067185D01*
X072571Y069000D02*
X072941D01*
X072756Y068815D02*
Y069185D01*
X072571Y070000D02*
X072941D01*
X072756Y069815D02*
Y070185D01*
X073571Y075000D02*
X073941D01*
X073756Y074815D02*
Y075185D01*
X072571Y079000D02*
X072941D01*
X072756Y078815D02*
Y079185D01*
X072571Y080000D02*
X072941D01*
X072756Y079815D02*
Y080185D01*
X072571Y081000D02*
X072941D01*
X072756Y080815D02*
Y081185D01*
X072571Y082000D02*
X072941D01*
X072756Y081815D02*
Y082185D01*
X072571Y083000D02*
X072941D01*
X072756Y082815D02*
Y083185D01*
X072571Y084000D02*
X072941D01*
X072756Y083815D02*
Y084185D01*
X072571Y078000D02*
X072941D01*
X072756Y077815D02*
Y078185D01*
X073571Y084000D02*
X073941D01*
X073756Y083815D02*
Y084185D01*
X073571Y083000D02*
X073941D01*
X073756Y082815D02*
Y083185D01*
X073571Y082000D02*
X073941D01*
X073756Y081815D02*
Y082185D01*
X073571Y081000D02*
X073941D01*
X073756Y080815D02*
Y081185D01*
X073571Y080000D02*
X073941D01*
X073756Y079815D02*
Y080185D01*
X073571Y079000D02*
X073941D01*
X073756Y078815D02*
Y079185D01*
X073571Y078000D02*
X073941D01*
X073756Y077815D02*
Y078185D01*
X073571Y089000D02*
X073941D01*
X073756Y088815D02*
Y089185D01*
X072571Y089000D02*
X072941D01*
X072756Y088815D02*
Y089185D01*
X072571Y085000D02*
X072941D01*
X072756Y084815D02*
Y085185D01*
X073571Y087000D02*
X073941D01*
X073756Y086815D02*
Y087185D01*
X072571Y086000D02*
X072941D01*
X072756Y085815D02*
Y086185D01*
X073571Y085000D02*
X073941D01*
X073756Y084815D02*
Y085185D01*
X073571Y086000D02*
X073941D01*
X073756Y085815D02*
Y086185D01*
X072571Y090000D02*
X072941D01*
X072756Y089815D02*
Y090185D01*
X073571Y088000D02*
X073941D01*
X073756Y087815D02*
Y088185D01*
X072571Y077000D02*
X072941D01*
X072756Y076815D02*
Y077185D01*
X072571Y076000D02*
X072941D01*
X072756Y075815D02*
Y076185D01*
X072571Y075000D02*
X072941D01*
X072756Y074815D02*
Y075185D01*
X072571Y074000D02*
X072941D01*
X072756Y073815D02*
Y074185D01*
X072571Y073000D02*
X072941D01*
X072756Y072815D02*
Y073185D01*
X072571Y072000D02*
X072941D01*
X072756Y071815D02*
Y072185D01*
X072571Y071000D02*
X072941D01*
X072756Y070815D02*
Y071185D01*
X072571Y068000D02*
X072941D01*
X072756Y067815D02*
Y068185D01*
X073571Y077000D02*
X073941D01*
X073756Y076815D02*
Y077185D01*
X073571Y076000D02*
X073941D01*
X073756Y075815D02*
Y076185D01*
X073571Y074000D02*
X073941D01*
X073756Y073815D02*
Y074185D01*
X073571Y073000D02*
X073941D01*
X073756Y072815D02*
Y073185D01*
X073571Y072000D02*
X073941D01*
X073756Y071815D02*
Y072185D01*
X073571Y071000D02*
X073941D01*
X073756Y070815D02*
Y071185D01*
X073571Y070000D02*
X073941D01*
X073756Y069815D02*
Y070185D01*
X073571Y069000D02*
X073941D01*
X073756Y068815D02*
Y069185D01*
X073571Y068000D02*
X073941D01*
X073756Y067815D02*
Y068185D01*
X073571Y090000D02*
X073941D01*
X073756Y089815D02*
Y090185D01*
X041383Y062008D02*
X042633D01*
X042008Y061383D02*
Y062633D01*
X075123Y092008D02*
X076373D01*
X075748Y091383D02*
Y092633D01*
X075123Y062992D02*
X076373D01*
X075748Y062367D02*
Y063617D01*
X041383Y093504D02*
X042633D01*
X042008Y092879D02*
Y094129D01*
X075217Y089488D02*
X075335D01*
X075276Y089429D02*
Y089547D01*
X073287Y089488D02*
X073406D01*
X073346Y089429D02*
Y089547D01*
X056594Y076260D02*
X056713D01*
X056654Y076201D02*
Y076319D01*
X056909Y076260D02*
X057028D01*
X056968Y076201D02*
Y076319D01*
X057224Y076260D02*
X057343D01*
X057283Y076201D02*
Y076319D01*
X055453Y074646D02*
X055571D01*
X055512Y074587D02*
Y074705D01*
X055453Y074961D02*
X055571D01*
X055512Y074902D02*
Y075020D01*
X055453Y075276D02*
X055571D01*
X055512Y075217D02*
Y075335D01*
X055453Y068504D02*
X055571D01*
X055512Y068445D02*
Y068563D01*
X055453Y068819D02*
X055571D01*
X055512Y068760D02*
Y068878D01*
X065866Y093937D02*
X066102D01*
X065984Y093819D02*
Y094055D01*
X068012Y093701D02*
X068130D01*
X068071Y093642D02*
Y093760D01*
X068996Y093701D02*
X069114D01*
X069055Y093642D02*
Y093760D01*
X070453Y084016D02*
X070571D01*
X070512Y083957D02*
Y084075D01*
X070886Y082992D02*
X071004D01*
X070945Y082933D02*
Y083051D01*
X069035Y086299D02*
X069154D01*
X069094Y086240D02*
Y086358D01*
X068720Y086575D02*
X068839D01*
X068780Y086516D02*
Y086634D01*
X067461Y087835D02*
X067579D01*
X067520Y087776D02*
Y087894D01*
X069783Y088268D02*
X069902D01*
X069843Y088209D02*
Y088327D01*
X067461Y087323D02*
X067579D01*
X067520Y087264D02*
Y087382D01*
X067776Y087598D02*
X067894D01*
X067835Y087539D02*
Y087657D01*
X068878Y087598D02*
X068996D01*
X068937Y087539D02*
Y087657D01*
X068878Y087992D02*
X068996D01*
X068937Y087933D02*
Y088051D01*
X069508Y087677D02*
X069626D01*
X069567Y087618D02*
Y087736D01*
X068091Y084685D02*
X068209D01*
X068150Y084626D02*
Y084744D01*
X067776Y084961D02*
X067894D01*
X067835Y084902D02*
Y085020D01*
X067461Y084685D02*
X067579D01*
X067520Y084626D02*
Y084744D01*
X067146Y084961D02*
X067264D01*
X067205Y084902D02*
Y085020D01*
X054390Y093307D02*
X054508D01*
X054449Y093248D02*
Y093366D01*
X064429Y092480D02*
X064547D01*
X064488Y092421D02*
Y092539D01*
X063957Y092480D02*
X064075D01*
X064016Y092421D02*
Y092539D01*
X071201Y075988D02*
X071319D01*
X071260Y075929D02*
Y076047D01*
X056673Y091594D02*
X056791D01*
X056732Y091535D02*
Y091654D01*
X043051Y064685D02*
X043169D01*
X043110Y064626D02*
Y064744D01*
X043144Y065222D02*
X043262D01*
X043203Y065163D02*
Y065281D01*
X049579Y075669D02*
X049697D01*
X049638Y075610D02*
Y075728D01*
X049311Y075394D02*
X049429D01*
X049370Y075335D02*
Y075453D01*
X049862Y075945D02*
X049980D01*
X049921Y075886D02*
Y076004D01*
X049587Y076220D02*
X049705D01*
X049646Y076161D02*
Y076280D01*
X056240Y092087D02*
X056358D01*
X056299Y092028D02*
Y092146D01*
X044154Y075945D02*
X044272D01*
X044213Y075886D02*
Y076004D01*
X044429Y076220D02*
X044547D01*
X044488Y076161D02*
Y076280D01*
X043602Y075394D02*
X043720D01*
X043661Y075335D02*
Y075453D01*
X043878Y075669D02*
X043996D01*
X043937Y075610D02*
Y075728D01*
X043642Y076260D02*
X043760D01*
X043701Y076201D02*
Y076319D01*
X055571Y091378D02*
X055689D01*
X055630Y091319D02*
Y091437D01*
X054468Y090945D02*
X054587D01*
X054528Y090886D02*
Y091004D01*
X048406Y083701D02*
X048524D01*
X048465Y083642D02*
Y083760D01*
X041831Y076575D02*
X041949D01*
X041890Y076516D02*
Y076634D01*
X041752Y075591D02*
X041870D01*
X041811Y075532D02*
Y075650D01*
X042028Y076102D02*
X042146D01*
X042087Y076043D02*
Y076161D01*
X041516Y077480D02*
X041634D01*
X041575Y077421D02*
Y077539D01*
X044193Y078071D02*
X044311D01*
X044252Y078012D02*
Y078130D01*
X044193Y078465D02*
X044311D01*
X044252Y078406D02*
Y078524D01*
X044193Y078858D02*
X044311D01*
X044252Y078799D02*
Y078917D01*
X044193Y079252D02*
X044311D01*
X044252Y079193D02*
Y079311D01*
X044193Y079646D02*
X044311D01*
X044252Y079587D02*
Y079705D01*
X044193Y080039D02*
X044311D01*
X044252Y079980D02*
Y080098D01*
X044193Y080433D02*
X044311D01*
X044252Y080374D02*
Y080492D01*
X044193Y080827D02*
X044311D01*
X044252Y080768D02*
Y080886D01*
X044193Y081220D02*
X044311D01*
X044252Y081161D02*
Y081280D01*
X044193Y081614D02*
X044311D01*
X044252Y081555D02*
Y081673D01*
X044193Y082008D02*
X044311D01*
X044252Y081949D02*
Y082067D01*
X045453Y087598D02*
X045571D01*
X045512Y087539D02*
Y087657D01*
X046811Y065394D02*
X046968D01*
X046890Y065315D02*
Y065472D01*
X045846Y087598D02*
X045965D01*
X045906Y087539D02*
Y087657D01*
X046240Y087598D02*
X046358D01*
X046299Y087539D02*
Y087657D01*
X044272Y087598D02*
X044390D01*
X044331Y087539D02*
Y087657D01*
X044665Y087598D02*
X044783D01*
X044724Y087539D02*
Y087657D01*
X045059Y087598D02*
X045177D01*
X045118Y087539D02*
Y087657D01*
X043484Y087598D02*
X043602D01*
X043543Y087539D02*
Y087657D01*
X042697Y087598D02*
X042815D01*
X042756Y087539D02*
Y087657D01*
X042303Y087598D02*
X042421D01*
X042362Y087539D02*
Y087657D01*
X044114Y086063D02*
X044232D01*
X044173Y086004D02*
Y086122D01*
X044390Y086299D02*
X044508D01*
X044449Y086240D02*
Y086358D01*
X044665Y086811D02*
X044783D01*
X044724Y086752D02*
Y086870D01*
X055098Y087441D02*
X055217D01*
X055157Y087382D02*
Y087500D01*
X054783Y087244D02*
X054902D01*
X054843Y087185D02*
Y087303D01*
X043839Y085787D02*
X043957D01*
X043898Y085728D02*
Y085846D01*
X043327Y087047D02*
X043445D01*
X043386Y086988D02*
Y087106D01*
X044114Y087047D02*
X044232D01*
X044173Y086988D02*
Y087106D01*
X055571Y087717D02*
X055689D01*
X055630Y087657D02*
Y087776D01*
X054468Y087047D02*
X054587D01*
X054528Y086988D02*
Y087106D01*
X045138Y064961D02*
X045256D01*
X045197Y064902D02*
Y065020D01*
X045532Y064961D02*
X045650D01*
X045591Y064902D02*
Y065020D01*
X044350Y064961D02*
X044468D01*
X044409Y064902D02*
Y065020D01*
X044744Y064961D02*
X044862D01*
X044803Y064902D02*
Y065020D01*
X045020Y064567D02*
X045138D01*
X045079Y064508D02*
Y064626D01*
X054075Y086772D02*
X054193D01*
X054134Y086713D02*
Y086831D01*
X054390Y093898D02*
X054508D01*
X054449Y093839D02*
Y093957D01*
X051004Y093898D02*
X051122D01*
X051063Y093839D02*
Y093957D01*
X044429Y076614D02*
X044547D01*
X044488Y076555D02*
Y076673D01*
X045846Y063543D02*
X045965D01*
X045906Y063484D02*
Y063602D01*
X047894Y084675D02*
X048012D01*
X047953Y084616D02*
Y084734D01*
X048406Y083307D02*
X048524D01*
X048465Y083248D02*
Y083366D01*
X048406Y082913D02*
X048524D01*
X048465Y082854D02*
Y082972D01*
X041398Y086181D02*
X041516D01*
X041457Y086122D02*
Y086240D01*
X048406Y082520D02*
X048524D01*
X048465Y082461D02*
Y082579D01*
X043681Y081890D02*
X043799D01*
X043740Y081831D02*
Y081949D01*
X055453Y069134D02*
X055571D01*
X055512Y069075D02*
Y069193D01*
X049350Y067205D02*
X049468D01*
X049409Y067146D02*
Y067264D01*
X050453Y067205D02*
X050571D01*
X050512Y067146D02*
Y067264D01*
X049990Y065148D02*
X050148D01*
X050069Y065069D02*
Y065226D01*
X049961Y065787D02*
X050118D01*
X050039Y065709D02*
Y065866D01*
X052195Y065148D02*
X052352D01*
X052274Y065069D02*
Y065226D01*
X052234Y066939D02*
X052392D01*
X052313Y066860D02*
Y067018D01*
X052559Y067638D02*
X052717D01*
X052638Y067559D02*
Y067717D01*
X052835Y067008D02*
X052992D01*
X052913Y066929D02*
Y067087D01*
X053425Y067008D02*
X053583D01*
X053504Y066929D02*
Y067087D01*
X050394Y062874D02*
X050551D01*
X050472Y062795D02*
Y062953D01*
X050394Y062283D02*
X050551D01*
X050472Y062205D02*
Y062362D01*
X049370Y061772D02*
X049528D01*
X049449Y061693D02*
Y061850D01*
X048740Y061772D02*
X048898D01*
X048819Y061693D02*
Y061850D01*
X052165Y063583D02*
X052323D01*
X052244Y063504D02*
Y063661D01*
X052165Y063110D02*
X052323D01*
X052244Y063032D02*
Y063189D01*
X054921Y063437D02*
X055079D01*
X055000Y063358D02*
Y063516D01*
X054921Y062437D02*
X055079D01*
X055000Y062358D02*
Y062516D01*
X056417Y062244D02*
X056575D01*
X056496Y062165D02*
Y062323D01*
X058386Y062244D02*
X058543D01*
X058465Y062165D02*
Y062323D01*
X060935Y062437D02*
X061093D01*
X061014Y062358D02*
Y062516D01*
X059409Y062244D02*
X059567D01*
X059488Y062165D02*
Y062323D01*
X048110Y066063D02*
X048268D01*
X048189Y065984D02*
Y066142D01*
X046614Y066575D02*
X046772D01*
X046693Y066496D02*
Y066654D01*
X047717Y068937D02*
X047874D01*
X047795Y068858D02*
Y069016D01*
X048425Y067835D02*
X048583D01*
X048504Y067756D02*
Y067913D01*
X062087Y063898D02*
X062244D01*
X062165Y063819D02*
Y063976D01*
X055512Y094449D02*
X055669D01*
X055591Y094370D02*
Y094528D01*
X054921Y094449D02*
X055079D01*
X055000Y094370D02*
Y094528D01*
X061811Y093110D02*
X061968D01*
X061890Y093032D02*
Y093189D01*
X063445Y092539D02*
X063602D01*
X063524Y092461D02*
Y092618D01*
X061732Y091065D02*
X061890D01*
X061811Y090986D02*
Y091144D01*
X054252Y089331D02*
X054409D01*
X054331Y089252D02*
Y089409D01*
X070472Y092559D02*
X070630D01*
X070551Y092480D02*
Y092638D01*
X040709Y080079D02*
X040866D01*
X040787Y080000D02*
Y080157D01*
X047953Y081024D02*
X048110D01*
X048032Y080945D02*
Y081102D01*
X047913Y080236D02*
X048071D01*
X047992Y080157D02*
Y080315D01*
X044567Y078268D02*
X044724D01*
X044646Y078189D02*
Y078346D01*
X046299Y077913D02*
X046457D01*
X046378Y077835D02*
Y077992D01*
X058209Y072126D02*
X058327D01*
X058268Y072067D02*
Y072185D01*
X058209Y071299D02*
X058327D01*
X058268Y071240D02*
Y071358D01*
X058484Y071299D02*
X058602D01*
X058543Y071240D02*
Y071358D01*
X058760Y071299D02*
X058878D01*
X058819Y071240D02*
Y071358D01*
X059035Y071299D02*
X059154D01*
X059094Y071240D02*
Y071358D01*
X057933Y071299D02*
X058051D01*
X057992Y071240D02*
Y071358D01*
X057657Y071299D02*
X057776D01*
X057717Y071240D02*
Y071358D01*
X057382Y071299D02*
X057500D01*
X057441Y071240D02*
Y071358D01*
X058209Y071575D02*
X058327D01*
X058268Y071516D02*
Y071634D01*
X058484Y071575D02*
X058602D01*
X058543Y071516D02*
Y071634D01*
X058760Y071575D02*
X058878D01*
X058819Y071516D02*
Y071634D01*
X059035Y071575D02*
X059154D01*
X059094Y071516D02*
Y071634D01*
X057933Y071575D02*
X058051D01*
X057992Y071516D02*
Y071634D01*
X057657Y071575D02*
X057776D01*
X057717Y071516D02*
Y071634D01*
X057382Y071575D02*
X057500D01*
X057441Y071516D02*
Y071634D01*
X058209Y071850D02*
X058327D01*
X058268Y071791D02*
Y071909D01*
X058484Y071850D02*
X058602D01*
X058543Y071791D02*
Y071909D01*
X058760Y071850D02*
X058878D01*
X058819Y071791D02*
Y071909D01*
X059035Y071850D02*
X059154D01*
X059094Y071791D02*
Y071909D01*
X057933Y071850D02*
X058051D01*
X057992Y071791D02*
Y071909D01*
X057657Y071850D02*
X057776D01*
X057717Y071791D02*
Y071909D01*
X057382Y071850D02*
X057500D01*
X057441Y071791D02*
Y071909D01*
X058209Y072677D02*
X058327D01*
X058268Y072618D02*
Y072736D01*
X058484Y072677D02*
X058602D01*
X058543Y072618D02*
Y072736D01*
X058760Y072677D02*
X058878D01*
X058819Y072618D02*
Y072736D01*
X059035Y072677D02*
X059154D01*
X059094Y072618D02*
Y072736D01*
X057933Y072677D02*
X058051D01*
X057992Y072618D02*
Y072736D01*
X057657Y072677D02*
X057776D01*
X057717Y072618D02*
Y072736D01*
X057382Y072677D02*
X057500D01*
X057441Y072618D02*
Y072736D01*
X058209Y072402D02*
X058327D01*
X058268Y072343D02*
Y072461D01*
X058484Y072402D02*
X058602D01*
X058543Y072343D02*
Y072461D01*
X058760Y072402D02*
X058878D01*
X058819Y072343D02*
Y072461D01*
X059035Y072402D02*
X059154D01*
X059094Y072343D02*
Y072461D01*
X057933Y072402D02*
X058051D01*
X057992Y072343D02*
Y072461D01*
X057657Y072402D02*
X057776D01*
X057717Y072343D02*
Y072461D01*
X057382Y072402D02*
X057500D01*
X057441Y072343D02*
Y072461D01*
X057382Y072126D02*
X057500D01*
X057441Y072067D02*
Y072185D01*
X057657Y072126D02*
X057776D01*
X057717Y072067D02*
Y072185D01*
X057933Y072126D02*
X058051D01*
X057992Y072067D02*
Y072185D01*
X059035Y072126D02*
X059154D01*
X059094Y072067D02*
Y072185D01*
X058760Y072126D02*
X058878D01*
X058819Y072067D02*
Y072185D01*
X058484Y072126D02*
X058602D01*
X058543Y072067D02*
Y072185D01*
X057382Y072953D02*
X057500D01*
X057441Y072894D02*
Y073012D01*
X057657Y072953D02*
X057776D01*
X057717Y072894D02*
Y073012D01*
X057933Y072953D02*
X058051D01*
X057992Y072894D02*
Y073012D01*
X059035Y072953D02*
X059154D01*
X059094Y072894D02*
Y073012D01*
X058760Y072953D02*
X058878D01*
X058819Y072894D02*
Y073012D01*
X058484Y072953D02*
X058602D01*
X058543Y072894D02*
Y073012D01*
X058209Y072953D02*
X058327D01*
X058268Y072894D02*
Y073012D01*
X061024Y074764D02*
X061181D01*
X061102Y074685D02*
Y074843D01*
X059409Y075197D02*
X059567D01*
X059488Y075118D02*
Y075276D01*
X056339Y074764D02*
X056496D01*
X056417Y074685D02*
Y074843D01*
X055945Y075512D02*
X056102D01*
X056024Y075433D02*
Y075591D01*
X059331Y076575D02*
X059488D01*
X059409Y076496D02*
Y076654D01*
X062126Y075512D02*
X062283D01*
X062205Y075433D02*
Y075591D01*
X053740Y073701D02*
X053898D01*
X053819Y073622D02*
Y073780D01*
X054252Y074094D02*
X054409D01*
X054331Y074016D02*
Y074173D01*
X054803Y074094D02*
X054961D01*
X054882Y074016D02*
Y074173D01*
X058189Y069803D02*
X058346D01*
X058268Y069724D02*
Y069882D01*
X058858Y069803D02*
X059016D01*
X058937Y069724D02*
Y069882D01*
X055945Y071339D02*
X056102D01*
X056024Y071260D02*
Y071417D01*
X060472Y071339D02*
X060630D01*
X060551Y071260D02*
Y071417D01*
X060472Y072835D02*
X060630D01*
X060551Y072756D02*
Y072913D01*
X055945Y072835D02*
X056102D01*
X056024Y072756D02*
Y072913D01*
X052953Y070630D02*
X053110D01*
X053032Y070551D02*
Y070709D01*
X052953Y071299D02*
X053110D01*
X053032Y071220D02*
Y071378D01*
X056850Y070000D02*
X057008D01*
X056929Y069921D02*
Y070079D01*
X056339Y069567D02*
X056496D01*
X056417Y069488D02*
Y069646D01*
Y066929D02*
X056575D01*
X056496Y066850D02*
Y067008D01*
X057402Y066929D02*
X057559D01*
X057480Y066850D02*
Y067008D01*
X058425Y066929D02*
X058583D01*
X058504Y066850D02*
Y067008D01*
X059409Y066929D02*
X059567D01*
X059488Y066850D02*
Y067008D01*
X059646Y065394D02*
X059803D01*
X059724Y065315D02*
Y065472D01*
X056260Y065433D02*
X056417D01*
X056339Y065354D02*
Y065512D01*
X059646Y064449D02*
X059803D01*
X059724Y064370D02*
Y064528D01*
X050039Y069724D02*
X050197D01*
X050118Y069646D02*
Y069803D01*
X051063Y068386D02*
X051220D01*
X051142Y068307D02*
Y068465D01*
X058228Y065354D02*
X058386D01*
X058307Y065276D02*
Y065433D01*
X057920Y065046D02*
X058078D01*
X057999Y064968D02*
Y065125D01*
X057598Y064724D02*
X057756D01*
X057677Y064646D02*
Y064803D01*
X065748Y067283D02*
X065906D01*
X065827Y067205D02*
Y067362D01*
X065402Y066937D02*
X065559D01*
X065481Y066859D02*
Y067016D01*
X065068Y066603D02*
X065225D01*
X065146Y066524D02*
Y066682D01*
X068502Y067911D02*
X068659D01*
X068581Y067833D02*
Y067990D01*
X050394Y061693D02*
X050551D01*
X050472Y061614D02*
Y061772D01*
X070846Y082559D02*
X070965D01*
X070906Y082500D02*
Y082618D01*
X070984Y073701D02*
X071142D01*
X071063Y073622D02*
Y073780D01*
X070984Y074134D02*
X071142D01*
X071063Y074055D02*
Y074213D01*
X070984Y074528D02*
X071142D01*
X071063Y074449D02*
Y074606D01*
X066929Y079606D02*
X067087D01*
X067008Y079528D02*
Y079685D01*
X067874Y079409D02*
X068032D01*
X067953Y079331D02*
Y079488D01*
X047913Y079764D02*
X048071D01*
X047992Y079685D02*
Y079843D01*
X049567Y078780D02*
X049724D01*
X049646Y078701D02*
Y078858D01*
X048976Y077402D02*
X049134D01*
X049055Y077323D02*
Y077480D01*
X043878Y082598D02*
X043996D01*
X043937Y082539D02*
Y082657D01*
X043878Y082244D02*
X043996D01*
X043937Y082185D02*
Y082303D01*
X048091Y073780D02*
X048209D01*
X048150Y073720D02*
Y073839D01*
X047815Y074449D02*
X047933D01*
X047874Y074390D02*
Y074508D01*
X047087Y077008D02*
X047244D01*
X047165Y076929D02*
Y077087D01*
X058091Y076181D02*
X058209D01*
X058150Y076122D02*
Y076240D01*
X057028Y076772D02*
X057146D01*
X057087Y076713D02*
Y076831D01*
X045571Y074764D02*
X045689D01*
X045630Y074705D02*
Y074823D01*
X045177Y074764D02*
X045295D01*
X045236Y074705D02*
Y074823D01*
X044902Y074370D02*
X045020D01*
X044961Y074311D02*
Y074429D01*
X041220Y083307D02*
X041378D01*
X041299Y083228D02*
Y083386D01*
X047913Y067598D02*
X048071D01*
X047992Y067520D02*
Y067677D01*
X043858Y093465D02*
X044016D01*
X043937Y093386D02*
Y093543D01*
X045827Y093465D02*
X045984D01*
X045906Y093386D02*
Y093543D01*
X047795Y093465D02*
X047953D01*
X047874Y093386D02*
Y093543D01*
X049764Y093465D02*
X049921D01*
X049843Y093386D02*
Y093543D01*
X054567Y092441D02*
X054724D01*
X054646Y092362D02*
Y092520D01*
X057362Y094449D02*
X057520D01*
X057441Y094370D02*
Y094528D01*
X057362Y093465D02*
X057520D01*
X057441Y093386D02*
Y093543D01*
X063543Y093465D02*
X063701D01*
X063622Y093386D02*
Y093543D01*
X065276Y094331D02*
X065433D01*
X065354Y094252D02*
Y094409D01*
X064016Y094331D02*
X064173D01*
X064094Y094252D02*
Y094409D01*
X073386Y093701D02*
X073543D01*
X073465Y093622D02*
Y093780D01*
X075354Y093701D02*
X075512D01*
X075433Y093622D02*
Y093780D01*
X041890Y091496D02*
X042047D01*
X041968Y091417D02*
Y091575D01*
X043858Y091968D02*
X044016D01*
X043937Y091890D02*
Y092047D01*
X047795Y091614D02*
X047953D01*
X047874Y091535D02*
Y091693D01*
X053701Y091339D02*
X053858D01*
X053780Y091260D02*
Y091417D01*
X055551Y092441D02*
X055709D01*
X055630Y092362D02*
Y092520D01*
X062441Y092047D02*
X062598D01*
X062520Y091968D02*
Y092126D01*
X060630Y090630D02*
X060787D01*
X060709Y090551D02*
Y090709D01*
X063543Y091496D02*
X063701D01*
X063622Y091417D02*
Y091575D01*
X065512Y091496D02*
X065669D01*
X065591Y091417D02*
Y091575D01*
X067480Y091929D02*
X067638D01*
X067559Y091850D02*
Y092008D01*
X071417D02*
X071575D01*
X071496Y091929D02*
Y092087D01*
X041890Y089961D02*
X042047D01*
X041968Y089882D02*
Y090039D01*
X052953Y088858D02*
X053110D01*
X053032Y088780D02*
Y088937D01*
X059606Y089016D02*
X059764D01*
X059685Y088937D02*
Y089094D01*
X061575Y088701D02*
X061732D01*
X061654Y088622D02*
Y088780D01*
X063543Y088701D02*
X063701D01*
X063622Y088622D02*
Y088780D01*
X065512Y088622D02*
X065669D01*
X065591Y088543D02*
Y088701D01*
X067480Y089528D02*
X067638D01*
X067559Y089449D02*
Y089606D01*
X068504Y088661D02*
X068661D01*
X068583Y088583D02*
Y088740D01*
X071417Y089528D02*
X071575D01*
X071496Y089449D02*
Y089606D01*
X057638Y087559D02*
X057795D01*
X057717Y087480D02*
Y087638D01*
X059606Y087559D02*
X059764D01*
X059685Y087480D02*
Y087638D01*
X061575Y087559D02*
X061732D01*
X061654Y087480D02*
Y087638D01*
X063543Y087559D02*
X063701D01*
X063622Y087480D02*
Y087638D01*
X065512Y087559D02*
X065669D01*
X065591Y087480D02*
Y087638D01*
X075354Y087559D02*
X075512D01*
X075433Y087480D02*
Y087638D01*
X042047Y085748D02*
X042205D01*
X042126Y085669D02*
Y085827D01*
X069449Y085118D02*
X069606D01*
X069528Y085039D02*
Y085197D01*
X041102Y084291D02*
X041260D01*
X041181Y084213D02*
Y084370D01*
X051732Y083189D02*
X051890D01*
X051811Y083110D02*
Y083268D01*
X053701Y083228D02*
X053858D01*
X053780Y083150D02*
Y083307D01*
X057638Y083622D02*
X057795D01*
X057717Y083543D02*
Y083701D01*
X059606Y083622D02*
X059764D01*
X059685Y083543D02*
Y083701D01*
X061575Y083622D02*
X061732D01*
X061654Y083543D02*
Y083701D01*
X063543Y083622D02*
X063701D01*
X063622Y083543D02*
Y083701D01*
X065512Y083622D02*
X065669D01*
X065591Y083543D02*
Y083701D01*
X067480Y083622D02*
X067638D01*
X067559Y083543D02*
Y083701D01*
X069449Y084252D02*
X069606D01*
X069528Y084173D02*
Y084331D01*
X073189Y084488D02*
X073346D01*
X073268Y084409D02*
Y084567D01*
X075197Y084488D02*
X075354D01*
X075276Y084409D02*
Y084567D01*
X049764Y081654D02*
X049921D01*
X049843Y081575D02*
Y081732D01*
X051732Y081654D02*
X051890D01*
X051811Y081575D02*
Y081732D01*
X053701Y081654D02*
X053858D01*
X053780Y081575D02*
Y081732D01*
X055669Y081654D02*
X055827D01*
X055748Y081575D02*
Y081732D01*
X057638Y081654D02*
X057795D01*
X057717Y081575D02*
Y081732D01*
X059606Y081654D02*
X059764D01*
X059685Y081575D02*
Y081732D01*
X061575Y081654D02*
X061732D01*
X061654Y081575D02*
Y081732D01*
X063543Y081654D02*
X063701D01*
X063622Y081575D02*
Y081732D01*
X065512Y081654D02*
X065669D01*
X065591Y081575D02*
Y081732D01*
X067480Y081654D02*
X067638D01*
X067559Y081575D02*
Y081732D01*
X069449Y081654D02*
X069606D01*
X069528Y081575D02*
Y081732D01*
X073150Y080472D02*
X073307D01*
X073228Y080394D02*
Y080551D01*
X075197Y080472D02*
X075354D01*
X075276Y080394D02*
Y080551D01*
X040709Y079134D02*
X040866D01*
X040787Y079055D02*
Y079213D01*
X045827Y079685D02*
X045984D01*
X045906Y079606D02*
Y079764D01*
X049764Y079685D02*
X049921D01*
X049843Y079606D02*
Y079764D01*
X051732Y079685D02*
X051890D01*
X051811Y079606D02*
Y079764D01*
X053701Y079685D02*
X053858D01*
X053780Y079606D02*
Y079764D01*
X055669Y079685D02*
X055827D01*
X055748Y079606D02*
Y079764D01*
X057638Y079685D02*
X057795D01*
X057717Y079606D02*
Y079764D01*
X059606Y079685D02*
X059764D01*
X059685Y079606D02*
Y079764D01*
X061575Y079685D02*
X061732D01*
X061654Y079606D02*
Y079764D01*
X063543Y079685D02*
X063701D01*
X063622Y079606D02*
Y079764D01*
X065512Y080354D02*
X065669D01*
X065591Y080276D02*
Y080433D01*
X069449Y079685D02*
X069606D01*
X069528Y079606D02*
Y079764D01*
X040709Y078110D02*
X040866D01*
X040787Y078032D02*
Y078189D01*
X045827Y078701D02*
X045984D01*
X045906Y078622D02*
Y078780D01*
X047520Y077520D02*
X047677D01*
X047598Y077441D02*
Y077598D01*
X049764Y077717D02*
X049921D01*
X049843Y077638D02*
Y077795D01*
X051732Y077717D02*
X051890D01*
X051811Y077638D02*
Y077795D01*
X053701Y077717D02*
X053858D01*
X053780Y077638D02*
Y077795D01*
X055669Y077717D02*
X055827D01*
X055748Y077638D02*
Y077795D01*
X057402Y077953D02*
X057559D01*
X057480Y077874D02*
Y078032D01*
X059606Y077717D02*
X059764D01*
X059685Y077638D02*
Y077795D01*
X061575Y077717D02*
X061732D01*
X061654Y077638D02*
Y077795D01*
X063543Y077717D02*
X063701D01*
X063622Y077638D02*
Y077795D01*
X065039Y077717D02*
X065197D01*
X065118Y077638D02*
Y077795D01*
X040945Y074724D02*
X041102D01*
X041024Y074646D02*
Y074803D01*
X043268Y075118D02*
X043425D01*
X043346Y075039D02*
Y075197D01*
X048583Y076732D02*
X048740D01*
X048661Y076654D02*
Y076811D01*
X051732Y075748D02*
X051890D01*
X051811Y075669D02*
Y075827D01*
X053701Y075748D02*
X053858D01*
X053780Y075669D02*
Y075827D01*
X059606Y075748D02*
X059764D01*
X059685Y075669D02*
Y075827D01*
X061575Y075748D02*
X061732D01*
X061654Y075669D02*
Y075827D01*
X063543Y075748D02*
X063701D01*
X063622Y075669D02*
Y075827D01*
X065512Y075748D02*
X065669D01*
X065591Y075669D02*
Y075827D01*
X067480Y075748D02*
X067638D01*
X067559Y075669D02*
Y075827D01*
X069449Y075748D02*
X069606D01*
X069528Y075669D02*
Y075827D01*
X073189Y075551D02*
X073346D01*
X073268Y075472D02*
Y075630D01*
X041890Y073780D02*
X042047D01*
X041968Y073701D02*
Y073858D01*
X045827Y073780D02*
X045984D01*
X045906Y073701D02*
Y073858D01*
X047559Y073780D02*
X047717D01*
X047638Y073701D02*
Y073858D01*
X049764Y074016D02*
X049921D01*
X049843Y073937D02*
Y074094D01*
X051732Y074016D02*
X051890D01*
X051811Y073937D02*
Y074094D01*
X056102Y073780D02*
X056260D01*
X056181Y073701D02*
Y073858D01*
X059606Y073780D02*
X059764D01*
X059685Y073701D02*
Y073858D01*
X061575Y073780D02*
X061732D01*
X061654Y073701D02*
Y073858D01*
X063543Y073780D02*
X063701D01*
X063622Y073701D02*
Y073858D01*
X065512Y073780D02*
X065669D01*
X065591Y073701D02*
Y073858D01*
X067480Y073780D02*
X067638D01*
X067559Y073701D02*
Y073858D01*
X069449Y073780D02*
X069606D01*
X069528Y073701D02*
Y073858D01*
X073189Y073543D02*
X073346D01*
X073268Y073465D02*
Y073622D01*
X075197Y073543D02*
X075354D01*
X075276Y073465D02*
Y073622D01*
X041890Y071811D02*
X042047D01*
X041968Y071732D02*
Y071890D01*
X045827Y071811D02*
X045984D01*
X045906Y071732D02*
Y071890D01*
X047795Y071811D02*
X047953D01*
X047874Y071732D02*
Y071890D01*
X049764Y071811D02*
X049921D01*
X049843Y071732D02*
Y071890D01*
X051732Y071811D02*
X051890D01*
X051811Y071732D02*
Y071890D01*
X053701Y071811D02*
X053858D01*
X053780Y071732D02*
Y071890D01*
X056063Y070394D02*
X056220D01*
X056142Y070315D02*
Y070472D01*
X057638Y071811D02*
X057795D01*
X057717Y071732D02*
Y071890D01*
X063543Y071811D02*
X063701D01*
X063622Y071732D02*
Y071890D01*
X065512Y071811D02*
X065669D01*
X065591Y071732D02*
Y071890D01*
X067480Y071811D02*
X067638D01*
X067559Y071732D02*
Y071890D01*
X069449Y071811D02*
X069606D01*
X069528Y071732D02*
Y071890D01*
X075197Y071535D02*
X075354D01*
X075276Y071457D02*
Y071614D01*
X041890Y069843D02*
X042047D01*
X041968Y069764D02*
Y069921D01*
X045827Y069843D02*
X045984D01*
X045906Y069764D02*
Y069921D01*
X047795Y069843D02*
X047953D01*
X047874Y069764D02*
Y069921D01*
X049764Y069843D02*
X049921D01*
X049843Y069764D02*
Y069921D01*
X051732Y069843D02*
X051890D01*
X051811Y069764D02*
Y069921D01*
X053701Y069843D02*
X053858D01*
X053780Y069764D02*
Y069921D01*
X059606Y069843D02*
X059764D01*
X059685Y069764D02*
Y069921D01*
X062087Y069843D02*
X062244D01*
X062165Y069764D02*
Y069921D01*
X063543Y069843D02*
X063701D01*
X063622Y069764D02*
Y069921D01*
X065512Y069843D02*
X065669D01*
X065591Y069764D02*
Y069921D01*
X067480Y069843D02*
X067638D01*
X067559Y069764D02*
Y069921D01*
X069449Y069843D02*
X069606D01*
X069528Y069764D02*
Y069921D01*
X071850Y070157D02*
X072008D01*
X071929Y070079D02*
Y070236D01*
X073189Y069528D02*
X073346D01*
X073268Y069449D02*
Y069606D01*
X075197Y069528D02*
X075354D01*
X075276Y069449D02*
Y069606D01*
X041890Y067874D02*
X042047D01*
X041968Y067795D02*
Y067953D01*
X045827Y067874D02*
X045984D01*
X045906Y067795D02*
Y067953D01*
X047795Y067874D02*
X047953D01*
X047874Y067795D02*
Y067953D01*
X053701Y067874D02*
X053858D01*
X053780Y067795D02*
Y067953D01*
X057638Y067874D02*
X057795D01*
X057717Y067795D02*
Y067953D01*
X059606Y067874D02*
X059764D01*
X059685Y067795D02*
Y067953D01*
X062087Y067874D02*
X062244D01*
X062165Y067795D02*
Y067953D01*
X063543Y067874D02*
X063701D01*
X063622Y067795D02*
Y067953D01*
X067480Y067874D02*
X067638D01*
X067559Y067795D02*
Y067953D01*
X069449Y067874D02*
X069606D01*
X069528Y067795D02*
Y067953D01*
X071417Y067874D02*
X071575D01*
X071496Y067795D02*
Y067953D01*
X041890Y065906D02*
X042047D01*
X041968Y065827D02*
Y065984D01*
X045827Y065906D02*
X045984D01*
X045906Y065827D02*
Y065984D01*
X047795Y065906D02*
X047953D01*
X047874Y065827D02*
Y065984D01*
X054094Y065906D02*
X054252D01*
X054173Y065827D02*
Y065984D01*
X055669Y065906D02*
X055827D01*
X055748Y065827D02*
Y065984D01*
X057638Y065906D02*
X057795D01*
X057717Y065827D02*
Y065984D01*
X062087Y065512D02*
X062244D01*
X062165Y065433D02*
Y065591D01*
X063543Y065512D02*
X063701D01*
X063622Y065433D02*
Y065591D01*
X065512Y065906D02*
X065669D01*
X065591Y065827D02*
Y065984D01*
X067480Y065906D02*
X067638D01*
X067559Y065827D02*
Y065984D01*
X069449Y065906D02*
X069606D01*
X069528Y065827D02*
Y065984D01*
X071417Y065906D02*
X071575D01*
X071496Y065827D02*
Y065984D01*
X075197Y065512D02*
X075354D01*
X075276Y065433D02*
Y065591D01*
X041890Y063937D02*
X042047D01*
X041968Y063858D02*
Y064016D01*
X043858Y063937D02*
X044016D01*
X043937Y063858D02*
Y064016D01*
X050433Y063937D02*
X050591D01*
X050512Y063858D02*
Y064016D01*
X057638Y063937D02*
X057795D01*
X057717Y063858D02*
Y064016D01*
X059606Y063937D02*
X059764D01*
X059685Y063858D02*
Y064016D01*
X061575Y063937D02*
X061732D01*
X061654Y063858D02*
Y064016D01*
X069449Y063937D02*
X069606D01*
X069528Y063858D02*
Y064016D01*
X071417Y063937D02*
X071575D01*
X071496Y063858D02*
Y064016D01*
X073386Y063937D02*
X073543D01*
X073465Y063858D02*
Y064016D01*
X043858Y061417D02*
X044016D01*
X043937Y061339D02*
Y061496D01*
X045827Y061968D02*
X045984D01*
X045906Y061890D02*
Y062047D01*
X047480Y061968D02*
X047638D01*
X047559Y061890D02*
Y062047D01*
X049764Y061968D02*
X049921D01*
X049843Y061890D02*
Y062047D01*
X052165Y061968D02*
X052323D01*
X052244Y061890D02*
Y062047D01*
X053701Y061968D02*
X053858D01*
X053780Y061890D02*
Y062047D01*
X055669Y061968D02*
X055827D01*
X055748Y061890D02*
Y062047D01*
X059606Y061968D02*
X059764D01*
X059685Y061890D02*
Y062047D01*
X061575Y061968D02*
X061732D01*
X061654Y061890D02*
Y062047D01*
X063937Y061968D02*
X064094D01*
X064016Y061890D02*
Y062047D01*
X065512Y061968D02*
X065669D01*
X065591Y061890D02*
Y062047D01*
X067480Y061968D02*
X067638D01*
X067559Y061890D02*
Y062047D01*
X069449Y061968D02*
X069606D01*
X069528Y061890D02*
Y062047D01*
X071417Y061968D02*
X071575D01*
X071496Y061890D02*
Y062047D01*
X073386Y061968D02*
X073543D01*
X073465Y061890D02*
Y062047D01*
X045827Y091614D02*
X045984D01*
X045906Y091535D02*
Y091693D01*
X049764Y094409D02*
X049921D01*
X049843Y094331D02*
Y094488D01*
X047795Y094409D02*
X047953D01*
X047874Y094331D02*
Y094488D01*
X045827Y094409D02*
X045984D01*
X045906Y094331D02*
Y094488D01*
X043858Y094409D02*
X044016D01*
X043937Y094331D02*
Y094488D01*
X045827Y092362D02*
X045984D01*
X045906Y092283D02*
Y092441D01*
X047795Y092362D02*
X047953D01*
X047874Y092283D02*
Y092441D01*
X043878Y087598D02*
X043996D01*
X043937Y087539D02*
Y087657D01*
X041102Y085472D02*
X041260D01*
X041181Y085394D02*
Y085551D01*
X062087Y071811D02*
X062244D01*
X062165Y071732D02*
Y071890D01*
X073189Y065551D02*
X073346D01*
X073268Y065472D02*
Y065630D01*
X072008Y071063D02*
X072165D01*
X072087Y070984D02*
Y071142D01*
X055669Y083228D02*
X055827D01*
X055748Y083150D02*
Y083307D01*
D43*
X040000Y060000D02*
X077752D01*
X040000Y095500D02*
X077752D01*
Y060000D02*
Y095500D01*
X040000Y060000D02*
Y095500D01*
M02*
