%FSAX24Y24*%
%MOIN*%
G70*
G01*
G75*
G04 Layer_Color=32896*
%ADD10C,0.0394*%
%ADD11C,0.0276*%
%ADD12R,0.0630X0.0709*%
%ADD13R,0.0433X0.0394*%
%ADD14R,0.0394X0.0433*%
%ADD15R,0.0591X0.1457*%
%ADD16R,0.0866X0.0236*%
%ADD17R,0.0866X0.0236*%
%ADD18R,0.0807X0.0532*%
%ADD19R,0.0532X0.0807*%
%ADD20R,0.0709X0.0630*%
%ADD21R,0.1014X0.0748*%
%ADD22R,0.0453X0.0236*%
%ADD23R,0.0650X0.0118*%
%ADD24R,0.0630X0.0118*%
%ADD25R,0.0591X0.0335*%
%ADD26R,0.0335X0.0591*%
%ADD27C,0.1969*%
%ADD28R,0.0315X0.0118*%
%ADD29C,0.0315*%
%ADD30C,0.0197*%
%ADD31C,0.0236*%
%ADD32C,0.0472*%
%ADD33C,0.0118*%
%ADD34C,0.0157*%
%ADD35C,0.0591*%
%ADD36R,0.1378X0.0565*%
%ADD37R,0.0945X0.1024*%
%ADD38R,0.0823X0.0266*%
%ADD39R,0.0866X0.0108*%
%ADD40R,0.0591X0.0630*%
%ADD41R,0.2520X0.2480*%
%ADD42C,0.0010*%
%ADD43C,0.0080*%
%ADD44R,0.0591X0.0591*%
%ADD45C,0.0591*%
%ADD46C,0.0984*%
%ADD47C,0.0620*%
%ADD48R,0.0620X0.0620*%
%ADD49C,0.2500*%
%ADD50C,0.0236*%
%ADD51C,0.0472*%
%ADD52C,0.0315*%
%ADD53R,0.0315X0.0630*%
%ADD54R,0.0827X0.1181*%
%ADD55O,0.0118X0.0709*%
%ADD56O,0.0709X0.0118*%
%ADD57R,0.0394X0.0374*%
%ADD58R,0.3307X0.3307*%
%ADD59C,0.0098*%
%ADD60C,0.0079*%
%ADD61C,0.0080*%
%ADD62C,0.0100*%
%ADD63R,0.0710X0.0789*%
%ADD64R,0.0513X0.0474*%
%ADD65R,0.0474X0.0513*%
%ADD66R,0.0671X0.1537*%
%ADD67R,0.0946X0.0316*%
%ADD68R,0.0946X0.0316*%
%ADD69R,0.0887X0.0612*%
%ADD70R,0.0612X0.0887*%
%ADD71R,0.0789X0.0710*%
%ADD72R,0.1094X0.0828*%
%ADD73R,0.0533X0.0316*%
%ADD74R,0.0730X0.0198*%
%ADD75R,0.0710X0.0198*%
%ADD76R,0.0671X0.0415*%
%ADD77R,0.0415X0.0671*%
%ADD78C,0.2049*%
%ADD79R,0.0395X0.0198*%
%ADD80R,0.0671X0.0671*%
%ADD81C,0.0671*%
%ADD82C,0.1064*%
%ADD83C,0.0700*%
%ADD84R,0.0700X0.0700*%
%ADD85C,0.2580*%
%ADD86C,0.0316*%
%ADD87C,0.0552*%
%ADD88C,0.0395*%
%ADD89R,0.0395X0.0710*%
%ADD90R,0.0907X0.1261*%
%ADD91O,0.0198X0.0789*%
%ADD92O,0.0789X0.0198*%
%ADD93R,0.0474X0.0454*%
%ADD94C,0.0140*%
D31*
X046594Y082303D02*
G03*
X046594Y082303I-000118J000000D01*
G01*
D42*
X067598Y063898D02*
G03*
X067598Y063898I-000709J000000D01*
G01*
X067303D02*
G03*
X067303Y063898I-000413J000000D01*
G01*
X066968D02*
G03*
X066968Y063898I-000079J000000D01*
G01*
D43*
X040000Y060000D02*
X077752D01*
X040000Y095500D02*
X077752D01*
Y060000D02*
Y095500D01*
X040000Y060000D02*
Y095500D01*
D59*
X047431Y082874D02*
G03*
X047431Y082874I-000049J000000D01*
G01*
X048770Y078443D02*
G03*
X048770Y078443I-000049J000000D01*
G01*
D60*
X041949Y077776D02*
X046870D01*
X041949Y082697D02*
X046870D01*
X041949Y077776D02*
Y082697D01*
X046870Y077776D02*
Y082697D01*
X048691Y079301D02*
X049222D01*
X048691Y078258D02*
X049222D01*
Y078257D02*
Y078435D01*
Y079124D02*
Y079301D01*
D62*
X049459Y080135D02*
X049559Y080035D01*
Y079835D01*
X049459Y079735D01*
X049059D01*
X048959Y079835D01*
Y080035D01*
X049059Y080135D01*
X048959Y080335D02*
Y080535D01*
Y080435D01*
X049559D01*
X049459Y080335D01*
X049359Y081235D02*
Y080935D01*
X049259Y080835D01*
X049059D01*
X048959Y080935D01*
Y081235D01*
X055327Y092395D02*
X055227Y092495D01*
Y092695D01*
X055327Y092795D01*
X055727D01*
X055827Y092695D01*
Y092495D01*
X055727Y092395D01*
X055827Y092195D02*
Y091996D01*
Y092095D01*
X055227D01*
X055327Y092195D01*
X055227Y091296D02*
X055827D01*
Y091596D01*
X055727Y091696D01*
X055527D01*
X055427Y091596D01*
Y091296D01*
X050860Y078098D02*
X050960Y078198D01*
X051160D01*
X051260Y078098D01*
Y077698D01*
X051160Y077598D01*
X050960D01*
X050860Y077698D01*
X050260Y077598D02*
X050660D01*
X050260Y077998D01*
Y078098D01*
X050360Y078198D01*
X050560D01*
X050660Y078098D01*
X049660Y077998D02*
X049960D01*
X050060Y077898D01*
Y077698D01*
X049960Y077598D01*
X049660D01*
X071417Y092520D02*
Y093119D01*
X071117D01*
X071017Y093020D01*
Y092820D01*
X071117Y092720D01*
X071417D01*
X070818Y093020D02*
X070718Y093119D01*
X070518D01*
X070418Y093020D01*
Y092920D01*
X070518Y092820D01*
X070618D01*
X070518D01*
X070418Y092720D01*
Y092620D01*
X070518Y092520D01*
X070718D01*
X070818Y092620D01*
X070118Y092920D02*
X069918D01*
X069818Y092820D01*
Y092520D01*
X070118D01*
X070218Y092620D01*
X070118Y092720D01*
X069818D01*
X049173Y076220D02*
Y076820D01*
X048873D01*
X048773Y076720D01*
Y076520D01*
X048873Y076420D01*
X049173D01*
X048973D02*
X048773Y076220D01*
X048573Y076720D02*
X048473Y076820D01*
X048274D01*
X048174Y076720D01*
Y076620D01*
X048274Y076520D01*
X048373D01*
X048274D01*
X048174Y076420D01*
Y076320D01*
X048274Y076220D01*
X048473D01*
X048573Y076320D01*
X047774Y076021D02*
X047674D01*
X047574Y076121D01*
Y076620D01*
X047874D01*
X047974Y076520D01*
Y076320D01*
X047874Y076220D01*
X047574D01*
X048268Y082362D02*
X048868D01*
Y082662D01*
X048768Y082762D01*
X048568D01*
X048468Y082662D01*
Y082362D01*
Y082562D02*
X048268Y082762D01*
Y083362D02*
Y082962D01*
X048668Y083362D01*
X048768D01*
X048868Y083262D01*
Y083062D01*
X048768Y082962D01*
X048668Y083962D02*
Y083662D01*
X048568Y083562D01*
X048368D01*
X048268Y083662D01*
Y083962D01*
X051260Y079025D02*
Y078525D01*
X051160Y078425D01*
X050960D01*
X050860Y078525D01*
Y079025D01*
X050260Y078425D02*
X050660D01*
X050260Y078825D01*
Y078925D01*
X050360Y079025D01*
X050560D01*
X050660Y078925D01*
X049660Y078825D02*
X049960D01*
X050060Y078725D01*
Y078525D01*
X049960Y078425D01*
X049660D01*
X046456Y081899D02*
Y081399D01*
X046357Y081299D01*
X046157D01*
X046057Y081399D01*
Y081899D01*
X045857Y081299D02*
X045657D01*
X045757D01*
Y081899D01*
X045857Y081799D01*
X044957Y081699D02*
X045257D01*
X045357Y081599D01*
Y081399D01*
X045257Y081299D01*
X044957D01*
X071457Y092520D02*
Y093119D01*
X071157D01*
X071057Y093020D01*
Y092820D01*
X071157Y092720D01*
X071457D01*
X070857Y093020D02*
X070757Y093119D01*
X070557D01*
X070457Y093020D01*
Y092920D01*
X070557Y092820D01*
X070657D01*
X070557D01*
X070457Y092720D01*
Y092620D01*
X070557Y092520D01*
X070757D01*
X070857Y092620D01*
D94*
X071476Y093701D02*
Y094685D01*
X067106Y093701D02*
X067697D01*
Y093307D02*
Y093701D01*
Y093307D02*
X070917D01*
Y093701D01*
X071476D01*
X067106Y094685D02*
X071476D01*
X067106Y093701D02*
Y094685D01*
M02*
