%FSAX24Y24*%
%MOIN*%
G70*
G01*
G75*
G04 Layer_Color=8388736*
%ADD10C,0.0394*%
%ADD11C,0.0276*%
%ADD12R,0.0630X0.0709*%
%ADD13R,0.0433X0.0394*%
%ADD14R,0.0394X0.0433*%
%ADD15R,0.0591X0.1457*%
%ADD16R,0.0866X0.0236*%
%ADD17R,0.0866X0.0236*%
%ADD18R,0.0807X0.0532*%
%ADD19R,0.0532X0.0807*%
%ADD20R,0.0709X0.0630*%
%ADD21R,0.1014X0.0748*%
%ADD22R,0.0453X0.0236*%
%ADD23R,0.0650X0.0118*%
%ADD24R,0.0630X0.0118*%
%ADD25R,0.0591X0.0335*%
%ADD26R,0.0335X0.0591*%
%ADD27C,0.1969*%
%ADD28R,0.0315X0.0118*%
%ADD29C,0.0315*%
%ADD30C,0.0197*%
%ADD31C,0.0236*%
%ADD32C,0.0472*%
%ADD33C,0.0118*%
%ADD34C,0.0157*%
%ADD35C,0.0591*%
%ADD36R,0.1378X0.0565*%
%ADD37R,0.0945X0.1024*%
%ADD38R,0.0823X0.0266*%
%ADD39R,0.0866X0.0108*%
%ADD40R,0.0591X0.0630*%
%ADD41R,0.2520X0.2480*%
%ADD42C,0.0010*%
%ADD43C,0.0080*%
%ADD44R,0.0591X0.0591*%
%ADD45C,0.0591*%
%ADD46C,0.0984*%
%ADD47C,0.0620*%
%ADD48R,0.0620X0.0620*%
%ADD49C,0.2500*%
%ADD50C,0.0236*%
%ADD51C,0.0472*%
%ADD52C,0.0315*%
%ADD53R,0.0315X0.0630*%
%ADD54R,0.0827X0.1181*%
%ADD55O,0.0118X0.0709*%
%ADD56O,0.0709X0.0118*%
%ADD57R,0.0394X0.0374*%
%ADD58R,0.3307X0.3307*%
%ADD59C,0.0098*%
%ADD60C,0.0079*%
%ADD61C,0.0080*%
%ADD62C,0.0100*%
%ADD63R,0.0710X0.0789*%
%ADD64R,0.0513X0.0474*%
%ADD65R,0.0474X0.0513*%
%ADD66R,0.0671X0.1537*%
%ADD67R,0.0946X0.0316*%
%ADD68R,0.0946X0.0316*%
%ADD69R,0.0887X0.0612*%
%ADD70R,0.0612X0.0887*%
%ADD71R,0.0789X0.0710*%
%ADD72R,0.1094X0.0828*%
%ADD73R,0.0533X0.0316*%
%ADD74R,0.0730X0.0198*%
%ADD75R,0.0710X0.0198*%
%ADD76R,0.0671X0.0415*%
%ADD77R,0.0415X0.0671*%
%ADD78C,0.2049*%
%ADD79R,0.0395X0.0198*%
%ADD80R,0.0671X0.0671*%
%ADD81C,0.0671*%
%ADD82C,0.1064*%
%ADD83C,0.0700*%
%ADD84R,0.0700X0.0700*%
%ADD85C,0.2580*%
%ADD86C,0.0316*%
%ADD87C,0.0552*%
%ADD88C,0.0395*%
D42*
X067598Y063898D02*
G03*
X067598Y063898I-000709J000000D01*
G01*
X067303D02*
G03*
X067303Y063898I-000413J000000D01*
G01*
X066968D02*
G03*
X066968Y063898I-000079J000000D01*
G01*
D43*
X040000Y060000D02*
X077752D01*
X040000Y095500D02*
X077752D01*
Y060000D02*
Y095500D01*
X040000Y060000D02*
Y095500D01*
D63*
X061614Y075512D02*
D03*
X060512D02*
D03*
X056575Y068819D02*
D03*
X057677D02*
D03*
X056575Y075512D02*
D03*
X057677D02*
D03*
D64*
X069055Y094134D02*
D03*
X068386D02*
D03*
X071063Y073307D02*
D03*
X070394D02*
D03*
X071063Y072717D02*
D03*
X070394D02*
D03*
X058268Y074764D02*
D03*
X058937D02*
D03*
X052165Y067638D02*
D03*
X051496D02*
D03*
X048150Y062874D02*
D03*
X048819D02*
D03*
X048032Y065394D02*
D03*
X047362D02*
D03*
X049606Y069724D02*
D03*
X048937D02*
D03*
X046693Y067047D02*
D03*
X047362D02*
D03*
X054803Y064567D02*
D03*
X054134D02*
D03*
X061457Y063425D02*
D03*
X062126D02*
D03*
X048819Y062244D02*
D03*
X048150D02*
D03*
X056929Y069567D02*
D03*
X057598D02*
D03*
X050945Y062283D02*
D03*
X051614D02*
D03*
X056929Y074764D02*
D03*
X057598D02*
D03*
X050945Y062874D02*
D03*
X051614D02*
D03*
X061457Y064370D02*
D03*
X062126D02*
D03*
X054803Y063976D02*
D03*
X054134D02*
D03*
X060630Y074764D02*
D03*
X059961D02*
D03*
X051614Y061693D02*
D03*
X050945D02*
D03*
X066535Y079606D02*
D03*
X065866D02*
D03*
X069134Y083583D02*
D03*
X068465D02*
D03*
X069134Y082992D02*
D03*
X068465D02*
D03*
X070433Y083583D02*
D03*
X069764D02*
D03*
X070433Y082992D02*
D03*
X069764D02*
D03*
X065000Y063898D02*
D03*
X064331D02*
D03*
X047992Y067047D02*
D03*
X048661D02*
D03*
X053504Y071299D02*
D03*
X054173D02*
D03*
X053504Y070630D02*
D03*
X054173D02*
D03*
D65*
X061693Y089449D02*
D03*
Y090118D02*
D03*
X068740Y068858D02*
D03*
Y069528D02*
D03*
X049449Y062205D02*
D03*
Y062874D02*
D03*
X052323Y066378D02*
D03*
Y065709D02*
D03*
X052913Y064567D02*
D03*
Y065236D02*
D03*
Y063268D02*
D03*
Y063937D02*
D03*
X048661Y066063D02*
D03*
Y065394D02*
D03*
X053504Y064567D02*
D03*
Y065236D02*
D03*
X052913Y066535D02*
D03*
Y065866D02*
D03*
X053504Y066535D02*
D03*
Y065866D02*
D03*
X068740Y077874D02*
D03*
Y078543D02*
D03*
X050630Y067717D02*
D03*
Y068386D02*
D03*
X054803Y070630D02*
D03*
Y071299D02*
D03*
D66*
X065512Y090472D02*
D03*
X067972D02*
D03*
D67*
X062520Y090565D02*
D03*
Y090065D02*
D03*
Y089565D02*
D03*
X064567Y091065D02*
D03*
Y090565D02*
D03*
Y090065D02*
D03*
Y089565D02*
D03*
X067913Y068411D02*
D03*
Y068911D02*
D03*
Y069411D02*
D03*
X065866Y067911D02*
D03*
Y068411D02*
D03*
Y068911D02*
D03*
Y069411D02*
D03*
X067913Y077978D02*
D03*
Y078478D02*
D03*
Y078978D02*
D03*
X065866Y077478D02*
D03*
Y077978D02*
D03*
Y078478D02*
D03*
Y078978D02*
D03*
D68*
X062520Y091065D02*
D03*
X067913Y067911D02*
D03*
X067913Y077478D02*
D03*
D69*
X060344Y062437D02*
D03*
Y063437D02*
D03*
Y064437D02*
D03*
Y065437D02*
D03*
X055640D02*
D03*
Y064437D02*
D03*
Y063437D02*
D03*
Y062437D02*
D03*
D70*
X059492Y066289D02*
D03*
X058492D02*
D03*
X057492D02*
D03*
X056492D02*
D03*
Y061585D02*
D03*
X057492D02*
D03*
X058492D02*
D03*
X059492D02*
D03*
D71*
X058780Y075472D02*
D03*
Y076575D02*
D03*
D72*
X047082Y067835D02*
D03*
X049218Y068937D02*
D03*
X047082D02*
D03*
X049218Y067835D02*
D03*
D73*
X062766Y064272D02*
D03*
Y063898D02*
D03*
Y063524D02*
D03*
X063691D02*
D03*
Y063898D02*
D03*
Y064272D02*
D03*
D74*
X051604Y065404D02*
D03*
Y064892D02*
D03*
Y063612D02*
D03*
Y063868D02*
D03*
Y064124D02*
D03*
Y064380D02*
D03*
Y064636D02*
D03*
Y065148D02*
D03*
Y065659D02*
D03*
Y065915D02*
D03*
Y066171D02*
D03*
Y066427D02*
D03*
Y066683D02*
D03*
Y066939D02*
D03*
X049419Y063612D02*
D03*
Y063868D02*
D03*
Y064124D02*
D03*
Y064380D02*
D03*
Y064636D02*
D03*
Y064892D02*
D03*
Y065148D02*
D03*
Y065404D02*
D03*
Y065659D02*
D03*
Y065915D02*
D03*
Y066171D02*
D03*
Y066427D02*
D03*
Y066683D02*
D03*
Y066939D02*
D03*
D75*
X048071Y091063D02*
D03*
Y090866D02*
D03*
Y090669D02*
D03*
Y090472D02*
D03*
Y090276D02*
D03*
Y090079D02*
D03*
Y089882D02*
D03*
Y089685D02*
D03*
Y089488D02*
D03*
Y089291D02*
D03*
Y089094D02*
D03*
Y088898D02*
D03*
Y088701D02*
D03*
Y088504D02*
D03*
Y088307D02*
D03*
Y088110D02*
D03*
X055630Y091063D02*
D03*
Y090866D02*
D03*
Y090669D02*
D03*
Y090472D02*
D03*
Y090276D02*
D03*
Y090079D02*
D03*
Y089882D02*
D03*
Y089685D02*
D03*
Y089488D02*
D03*
Y089291D02*
D03*
Y089094D02*
D03*
Y088898D02*
D03*
Y088701D02*
D03*
Y088504D02*
D03*
Y088307D02*
D03*
Y088110D02*
D03*
D76*
X056545Y072839D02*
D03*
Y072087D02*
D03*
Y071335D02*
D03*
X060030D02*
D03*
Y072087D02*
D03*
Y072839D02*
D03*
D77*
X057638Y070344D02*
D03*
X058287D02*
D03*
X058937D02*
D03*
Y073829D02*
D03*
X058287D02*
D03*
X057638D02*
D03*
D78*
X058287Y072087D02*
D03*
D79*
X054331Y073740D02*
D03*
Y073543D02*
D03*
Y073346D02*
D03*
X054882D02*
D03*
Y073543D02*
D03*
Y073740D02*
D03*
D80*
X070827Y090472D02*
D03*
D81*
Y089472D02*
D03*
D82*
X065906Y064882D02*
D03*
X067874D02*
D03*
Y062913D02*
D03*
X065906D02*
D03*
X066890Y063898D02*
D03*
D83*
X075756Y071000D02*
D03*
X074756D02*
D03*
X075756Y072000D02*
D03*
X074756D02*
D03*
X075756Y078000D02*
D03*
X074756D02*
D03*
X075756Y068000D02*
D03*
X074756D02*
D03*
X075756Y069000D02*
D03*
X074756D02*
D03*
X075756Y070000D02*
D03*
X074756D02*
D03*
X075756Y073000D02*
D03*
X074756D02*
D03*
X075756Y074000D02*
D03*
X074756D02*
D03*
X075756Y075000D02*
D03*
X074756D02*
D03*
X075756Y076000D02*
D03*
X074756D02*
D03*
X075756Y077000D02*
D03*
X074756D02*
D03*
Y083000D02*
D03*
Y082000D02*
D03*
Y081000D02*
D03*
Y080000D02*
D03*
Y079000D02*
D03*
X075756Y084000D02*
D03*
Y083000D02*
D03*
Y082000D02*
D03*
Y081000D02*
D03*
Y080000D02*
D03*
Y079000D02*
D03*
Y089000D02*
D03*
X074756D02*
D03*
Y085000D02*
D03*
X075756Y087000D02*
D03*
X074756Y084000D02*
D03*
Y086000D02*
D03*
X075756Y085000D02*
D03*
Y086000D02*
D03*
X074756Y088000D02*
D03*
Y087000D02*
D03*
Y067000D02*
D03*
X075756Y088000D02*
D03*
Y067000D02*
D03*
X074756Y066000D02*
D03*
Y065000D02*
D03*
X075756Y066000D02*
D03*
Y065000D02*
D03*
Y090000D02*
D03*
X072756Y087000D02*
D03*
Y088000D02*
D03*
X073756Y065000D02*
D03*
X072756D02*
D03*
X073756Y066000D02*
D03*
X072756D02*
D03*
X073756Y067000D02*
D03*
X072756D02*
D03*
Y069000D02*
D03*
Y070000D02*
D03*
X073756Y075000D02*
D03*
X072756Y079000D02*
D03*
Y080000D02*
D03*
Y081000D02*
D03*
Y082000D02*
D03*
Y083000D02*
D03*
Y084000D02*
D03*
Y078000D02*
D03*
X073756Y084000D02*
D03*
Y083000D02*
D03*
Y082000D02*
D03*
Y081000D02*
D03*
Y080000D02*
D03*
Y079000D02*
D03*
Y078000D02*
D03*
Y089000D02*
D03*
X072756D02*
D03*
Y085000D02*
D03*
X073756Y087000D02*
D03*
X072756Y086000D02*
D03*
X073756Y085000D02*
D03*
Y086000D02*
D03*
Y088000D02*
D03*
X072756Y077000D02*
D03*
Y076000D02*
D03*
Y075000D02*
D03*
Y074000D02*
D03*
Y073000D02*
D03*
Y072000D02*
D03*
Y071000D02*
D03*
Y068000D02*
D03*
X073756Y077000D02*
D03*
Y076000D02*
D03*
Y074000D02*
D03*
Y073000D02*
D03*
Y072000D02*
D03*
Y071000D02*
D03*
Y070000D02*
D03*
Y069000D02*
D03*
Y068000D02*
D03*
Y090000D02*
D03*
D84*
X074756D02*
D03*
X072756D02*
D03*
D85*
X042008Y062008D02*
D03*
X075748Y092008D02*
D03*
Y062992D02*
D03*
X042008Y093504D02*
D03*
D86*
X075276Y089488D02*
D03*
X073346D02*
D03*
X056654Y076260D02*
D03*
X056968D02*
D03*
X057283D02*
D03*
X055512Y074646D02*
D03*
Y074961D02*
D03*
Y075276D02*
D03*
Y068504D02*
D03*
Y068819D02*
D03*
X068071Y093701D02*
D03*
X069055D02*
D03*
X070512Y084016D02*
D03*
X070945Y082992D02*
D03*
X069094Y086299D02*
D03*
X068780Y086575D02*
D03*
X067520Y087835D02*
D03*
X069843Y088268D02*
D03*
X067520Y087323D02*
D03*
X067835Y087598D02*
D03*
X068937D02*
D03*
Y087992D02*
D03*
X069567Y087677D02*
D03*
X068150Y084685D02*
D03*
X067835Y084961D02*
D03*
X067520Y084685D02*
D03*
X067205Y084961D02*
D03*
X054449Y093307D02*
D03*
X064488Y092480D02*
D03*
X064016D02*
D03*
X071260Y075988D02*
D03*
X056732Y091594D02*
D03*
X043110Y064685D02*
D03*
X043203Y065222D02*
D03*
X049638Y075669D02*
D03*
X049370Y075394D02*
D03*
X049921Y075945D02*
D03*
X049646Y076220D02*
D03*
X056299Y092087D02*
D03*
X044213Y075945D02*
D03*
X044488Y076220D02*
D03*
X043661Y075394D02*
D03*
X043937Y075669D02*
D03*
X043701Y076260D02*
D03*
X055630Y091378D02*
D03*
X054528Y090945D02*
D03*
X048465Y083701D02*
D03*
X041890Y076575D02*
D03*
X041811Y075591D02*
D03*
X042087Y076102D02*
D03*
X041575Y077480D02*
D03*
X044252Y078071D02*
D03*
Y078465D02*
D03*
Y078858D02*
D03*
Y079252D02*
D03*
Y079646D02*
D03*
Y080039D02*
D03*
Y080433D02*
D03*
Y080827D02*
D03*
Y081220D02*
D03*
Y081614D02*
D03*
Y082008D02*
D03*
X045512Y087598D02*
D03*
X045906D02*
D03*
X046299D02*
D03*
X044331D02*
D03*
X044724D02*
D03*
X045118D02*
D03*
X043543D02*
D03*
X042756D02*
D03*
X042362D02*
D03*
X044173Y086063D02*
D03*
X044449Y086299D02*
D03*
X044724Y086811D02*
D03*
X055157Y087441D02*
D03*
X054843Y087244D02*
D03*
X043898Y085787D02*
D03*
X043386Y087047D02*
D03*
X044173D02*
D03*
X055630Y087717D02*
D03*
X054528Y087047D02*
D03*
X045197Y064961D02*
D03*
X045591D02*
D03*
X044409D02*
D03*
X044803D02*
D03*
X045079Y064567D02*
D03*
X054134Y086772D02*
D03*
X054449Y093898D02*
D03*
X051063D02*
D03*
X044488Y076614D02*
D03*
X045906Y063543D02*
D03*
X047953Y084675D02*
D03*
X048465Y083307D02*
D03*
Y082913D02*
D03*
X041457Y086181D02*
D03*
X048465Y082520D02*
D03*
X043740Y081890D02*
D03*
X055512Y069134D02*
D03*
X049409Y067205D02*
D03*
X050512D02*
D03*
X058268Y072126D02*
D03*
Y071299D02*
D03*
X058543D02*
D03*
X058819D02*
D03*
X059094D02*
D03*
X057992D02*
D03*
X057717D02*
D03*
X057441D02*
D03*
X058268Y071575D02*
D03*
X058543D02*
D03*
X058819D02*
D03*
X059094D02*
D03*
X057992D02*
D03*
X057717D02*
D03*
X057441D02*
D03*
X058268Y071850D02*
D03*
X058543D02*
D03*
X058819D02*
D03*
X059094D02*
D03*
X057992D02*
D03*
X057717D02*
D03*
X057441D02*
D03*
X058268Y072677D02*
D03*
X058543D02*
D03*
X058819D02*
D03*
X059094D02*
D03*
X057992D02*
D03*
X057717D02*
D03*
X057441D02*
D03*
X058268Y072402D02*
D03*
X058543D02*
D03*
X058819D02*
D03*
X059094D02*
D03*
X057992D02*
D03*
X057717D02*
D03*
X057441D02*
D03*
Y072126D02*
D03*
X057717D02*
D03*
X057992D02*
D03*
X059094D02*
D03*
X058819D02*
D03*
X058543D02*
D03*
X057441Y072953D02*
D03*
X057717D02*
D03*
X057992D02*
D03*
X059094D02*
D03*
X058819D02*
D03*
X058543D02*
D03*
X058268D02*
D03*
X070906Y082559D02*
D03*
X043937Y082598D02*
D03*
X043937Y082244D02*
D03*
X048150Y073780D02*
D03*
X047874Y074449D02*
D03*
X058150Y076181D02*
D03*
X057087Y076772D02*
D03*
X045630Y074764D02*
D03*
X045236D02*
D03*
X044961Y074370D02*
D03*
X043937Y087598D02*
D03*
D87*
X065984Y093937D02*
D03*
D88*
X046890Y065394D02*
D03*
X050069Y065148D02*
D03*
X050039Y065787D02*
D03*
X052274Y065148D02*
D03*
X052313Y066939D02*
D03*
X052638Y067638D02*
D03*
X052913Y067008D02*
D03*
X053504D02*
D03*
X050472Y062874D02*
D03*
X050472Y062283D02*
D03*
X049449Y061772D02*
D03*
X048819D02*
D03*
X052244Y063583D02*
D03*
Y063110D02*
D03*
X055000Y063437D02*
D03*
Y062437D02*
D03*
X056496Y062244D02*
D03*
X058465D02*
D03*
X061014Y062437D02*
D03*
X059488Y062244D02*
D03*
X048189Y066063D02*
D03*
X046693Y066575D02*
D03*
X047795Y068937D02*
D03*
X048504Y067835D02*
D03*
X062165Y063898D02*
D03*
X055591Y094449D02*
D03*
X055000D02*
D03*
X061890Y093110D02*
D03*
X063524Y092539D02*
D03*
X061811Y091065D02*
D03*
X054331Y089331D02*
D03*
X070551Y092559D02*
D03*
X040787Y080079D02*
D03*
X048032Y081024D02*
D03*
X047992Y080236D02*
D03*
X044646Y078268D02*
D03*
X046378Y077913D02*
D03*
X061102Y074764D02*
D03*
X059488Y075197D02*
D03*
X056417Y074764D02*
D03*
X056024Y075512D02*
D03*
X059409Y076575D02*
D03*
X062205Y075512D02*
D03*
X053819Y073701D02*
D03*
X054331Y074094D02*
D03*
X054882D02*
D03*
X058268Y069803D02*
D03*
X058937D02*
D03*
X056024Y071339D02*
D03*
X060551D02*
D03*
Y072835D02*
D03*
X056024D02*
D03*
X053032Y070630D02*
D03*
Y071299D02*
D03*
X056929Y070000D02*
D03*
X056417Y069567D02*
D03*
X056496Y066929D02*
D03*
X057480D02*
D03*
X058504D02*
D03*
X059488D02*
D03*
X059724Y065394D02*
D03*
X056339Y065433D02*
D03*
X059724Y064449D02*
D03*
X050118Y069724D02*
D03*
X051142Y068386D02*
D03*
X058307Y065354D02*
D03*
X057999Y065046D02*
D03*
X057677Y064724D02*
D03*
X065827Y067283D02*
D03*
X065481Y066937D02*
D03*
X065146Y066603D02*
D03*
X068581Y067911D02*
D03*
X050472Y061693D02*
D03*
X071063Y073701D02*
D03*
Y074134D02*
D03*
X071063Y074528D02*
D03*
X067008Y079606D02*
D03*
X067953Y079409D02*
D03*
X047992Y079764D02*
D03*
X049646Y078780D02*
D03*
X049055Y077402D02*
D03*
X047165Y077008D02*
D03*
X041299Y083307D02*
D03*
X047992Y067598D02*
D03*
X043937Y093465D02*
D03*
X045906D02*
D03*
X047874D02*
D03*
X049843D02*
D03*
X054646Y092441D02*
D03*
X057441Y094449D02*
D03*
Y093465D02*
D03*
X063622Y093465D02*
D03*
X065354Y094331D02*
D03*
X064094D02*
D03*
X073465Y093701D02*
D03*
X075433D02*
D03*
X041968Y091496D02*
D03*
X043937Y091968D02*
D03*
X047874Y091614D02*
D03*
X053780Y091339D02*
D03*
X055630Y092441D02*
D03*
X062520Y092047D02*
D03*
X060709Y090630D02*
D03*
X063622Y091496D02*
D03*
X065591D02*
D03*
X067559Y091929D02*
D03*
X071496Y092008D02*
D03*
X041968Y089961D02*
D03*
X053032Y088858D02*
D03*
X059685Y089016D02*
D03*
X061654Y088701D02*
D03*
X063622D02*
D03*
X065591Y088622D02*
D03*
X067559Y089528D02*
D03*
X068583Y088661D02*
D03*
X071496Y089528D02*
D03*
X057717Y087559D02*
D03*
X059685D02*
D03*
X061654D02*
D03*
X063622D02*
D03*
X065591D02*
D03*
X075433D02*
D03*
X042126Y085748D02*
D03*
X069528Y085118D02*
D03*
X041181Y084291D02*
D03*
X051811Y083189D02*
D03*
X053780Y083228D02*
D03*
X057717Y083622D02*
D03*
X059685D02*
D03*
X061654D02*
D03*
X063622D02*
D03*
X065591D02*
D03*
X067559D02*
D03*
X069528Y084252D02*
D03*
X073268Y084488D02*
D03*
X075276D02*
D03*
X049843Y081654D02*
D03*
X051811D02*
D03*
X053780D02*
D03*
X055748D02*
D03*
X057717D02*
D03*
X059685D02*
D03*
X061654D02*
D03*
X063622D02*
D03*
X065591D02*
D03*
X067559D02*
D03*
X069528D02*
D03*
X073228Y080472D02*
D03*
X075276D02*
D03*
X040787Y079134D02*
D03*
X045906Y079685D02*
D03*
X049843D02*
D03*
X051811D02*
D03*
X053780D02*
D03*
X055748D02*
D03*
X057717D02*
D03*
X059685D02*
D03*
X061654D02*
D03*
X063622D02*
D03*
X065591Y080354D02*
D03*
X069528Y079685D02*
D03*
X040787Y078110D02*
D03*
X045906Y078701D02*
D03*
X047598Y077520D02*
D03*
X049843Y077717D02*
D03*
X051811D02*
D03*
X053780D02*
D03*
X055748D02*
D03*
X057480Y077953D02*
D03*
X059685Y077717D02*
D03*
X061654D02*
D03*
X063622D02*
D03*
X065118Y077717D02*
D03*
X041024Y074724D02*
D03*
X043346Y075118D02*
D03*
X048661Y076732D02*
D03*
X051811Y075748D02*
D03*
X053780D02*
D03*
X059685D02*
D03*
X061654D02*
D03*
X063622D02*
D03*
X065591D02*
D03*
X067559D02*
D03*
X069528D02*
D03*
X073268Y075551D02*
D03*
X041968Y073780D02*
D03*
X045906D02*
D03*
X047638Y073780D02*
D03*
X049843Y074016D02*
D03*
X051811D02*
D03*
X056181Y073780D02*
D03*
X059685Y073780D02*
D03*
X061654D02*
D03*
X063622D02*
D03*
X065591D02*
D03*
X067559D02*
D03*
X069528D02*
D03*
X073268Y073543D02*
D03*
X075276D02*
D03*
X041968Y071811D02*
D03*
X045906D02*
D03*
X047874D02*
D03*
X049843D02*
D03*
X051811D02*
D03*
X053780D02*
D03*
X056142Y070394D02*
D03*
X057717Y071811D02*
D03*
X063622D02*
D03*
X065591D02*
D03*
X067559D02*
D03*
X069528D02*
D03*
X075276Y071535D02*
D03*
X041968Y069843D02*
D03*
X045906D02*
D03*
X047874D02*
D03*
X049843D02*
D03*
X051811D02*
D03*
X053780D02*
D03*
X059685D02*
D03*
X062165D02*
D03*
X063622D02*
D03*
X065591D02*
D03*
X067559D02*
D03*
X069528D02*
D03*
X071929Y070157D02*
D03*
X073268Y069528D02*
D03*
X075276D02*
D03*
X041968Y067874D02*
D03*
X045906D02*
D03*
X047874D02*
D03*
X053780D02*
D03*
X057717D02*
D03*
X059685D02*
D03*
X062165D02*
D03*
X063622D02*
D03*
X067559D02*
D03*
X069528D02*
D03*
X071496D02*
D03*
X041968Y065906D02*
D03*
X045906D02*
D03*
X047874D02*
D03*
X054173D02*
D03*
X055748D02*
D03*
X057717D02*
D03*
X062165Y065512D02*
D03*
X063622D02*
D03*
X065591Y065906D02*
D03*
X067559D02*
D03*
X069528D02*
D03*
X071496D02*
D03*
X075276Y065512D02*
D03*
X041968Y063937D02*
D03*
X043937D02*
D03*
X050512D02*
D03*
X057717D02*
D03*
X059685D02*
D03*
X061654D02*
D03*
X069528D02*
D03*
X071496D02*
D03*
X073465D02*
D03*
X043937Y061417D02*
D03*
X045906Y061968D02*
D03*
X047559D02*
D03*
X049843D02*
D03*
X052244D02*
D03*
X053780D02*
D03*
X055748D02*
D03*
X059685D02*
D03*
X061654D02*
D03*
X064016D02*
D03*
X065591D02*
D03*
X067559D02*
D03*
X069528D02*
D03*
X071496D02*
D03*
X073465D02*
D03*
X045906Y091614D02*
D03*
X049843Y094409D02*
D03*
X047874D02*
D03*
X045906D02*
D03*
X043937D02*
D03*
X045906Y092362D02*
D03*
X047874D02*
D03*
X041181Y085472D02*
D03*
X062165Y071811D02*
D03*
X073268Y065551D02*
D03*
X072087Y071063D02*
D03*
X055748Y083228D02*
D03*
M02*
