M48
;Layer_Color=9474304
;FILE_FORMAT=2:4
INCH
;TYPE=PLATED
T1F00S00C0.0118
T2F00S00C0.0157
T3F00S00C0.0236
T4F00S00C0.0354
T5F00S00C0.0370
T6F00S00C0.0591
T7F00S00C0.1250
%
T01
X043110Y064685
X043203Y065222
X044409Y064961
X044803
X045197
X045591
X045079Y064567
X045906Y063543
X045630Y074764
X045236
X044961Y074370
X044213Y075945
X043937Y075669
X043661Y075394
X043701Y076260
X044488Y076220
Y076614
X044252Y078071
X041575Y077480
X041890Y076575
X042087Y076102
X041811Y075591
X047874Y074449
X048150Y073780
X049370Y075394
X049638Y075669
X049921Y075945
X049646Y076220
X055512Y075276
Y074961
Y074646
X056654Y076260
X056968
X057283
X057087Y076772
X058150Y076181
X058268Y072953
Y072677
X058543
Y072953
X058819
Y072677
X059094
Y072953
Y072402
X058819
Y072126
X059094
Y071850
X058819
Y071575
Y071299
X059094
Y071575
X058543
Y071299
X058268
Y071575
X057992
Y071299
X057717
Y071575
X057441
Y071299
Y071850
X057717
X057992
X058268
X058543
Y072126
X058268
Y072402
X058543
X057992
X057717
Y072126
X057992
Y072677
X057717
Y072953
X057992
X057441
Y072677
Y072402
Y072126
X055512Y069134
Y068819
Y068504
X050512Y067205
X049409
X071260Y075988
X070906Y082559
X070945Y082992
X070512Y084016
X068150Y084685
X067835Y084961
X067520Y084685
X067205Y084961
X067520Y087323
Y087835
X067835Y087598
X068937
Y087992
X069567Y087677
X069843Y088268
X069094Y086299
X068780Y086575
X069055Y093701
X068071
X064488Y092480
X064016
X073346Y089488
X075276
X056732Y091594
X056299Y092087
X055630Y091378
X054528Y090945
X054449Y093307
X054528Y087047
X054843Y087244
X055157Y087441
X055630Y087717
X054134Y086772
X047953Y084675
X048465Y083701
Y083307
Y082913
Y082520
X043937Y082598
X043937Y082244
X044252Y082008
Y081614
Y081220
Y080827
Y080433
Y080039
Y079646
Y079252
Y078858
Y078465
X043740Y081890
X043898Y085787
X044173Y086063
X044449Y086299
X044724Y086811
Y087598
X045118
X045512
X045906
X046299
X044331
X043937
X043543
X043386Y087047
X044173
X042756Y087598
X042362
X041457Y086181
X051063Y093898
X054449
T02
X064016Y061968
X065591
X067559
X069528
X071496
X073465
X061654
X061014Y062437
X059488Y062244
X059685Y061968
X058465Y062244
X056496
X055748Y061968
X055000Y062437
X053780Y061968
X052244
X050472Y061693
Y062283
X049843Y061968
X049449Y061772
X048819
X047559Y061968
X045906
X043937Y061417
Y063937
X041968
Y065906
Y067874
Y069843
Y071811
Y073780
X041024Y074724
X043346Y075118
X045906Y073780
Y071811
Y069843
Y067874
Y065906
X046693Y066575
X046378Y077913
X040787Y078110
X047598Y077520
X047165Y077008
X048661Y076732
X049055Y077402
X049843Y077717
X051811
X053780
X055748
X057480Y077953
X059685Y077717
X059409Y076575
X059685Y075748
X059488Y075197
X059685Y073780
X060551Y072835
Y071339
X062165Y071811
Y069843
Y067874
Y065512
Y063898
X061654Y063937
X059685
X059724Y064449
Y065394
X058307Y065354
X057999Y065046
X057677Y064724
X057717Y063937
Y065906
X057480Y066929
X056496
X056339Y065433
X055748Y065906
X054173
X053504Y067008
X052913
X052313Y066939
X052638Y067638
X053780Y067874
Y069843
X053032Y070630
Y071299
X053780Y071811
X053819Y073701
X054331Y074094
X054882
X056181Y073780
X056024Y072835
Y071339
X056142Y070394
X056417Y069567
X056929Y070000
X058268Y069803
X058937
X059685Y069843
Y067874
X059488Y066929
X058504
X057717Y067874
Y071811
X056417Y074764
X056024Y075512
X053780Y075748
X051811
Y074016
X049843
Y071811
X047874
Y069843
X047795Y068937
X047874Y067874
X047992Y067598
X048504Y067835
X048189Y066063
X047874Y065906
X046890Y065394
X050069Y065148
X050039Y065787
X050512Y063937
X050472Y062874
X052244Y063110
Y063583
X052274Y065148
X051142Y068386
X051811Y069843
X050118Y069724
X049843Y069843
X051811Y071811
X047638Y073780
X061654Y073780
X061102Y074764
X061654Y075748
X062205Y075512
X061654Y077717
X055000Y063437
X063622Y065512
X063622Y067874
Y069843
Y071811
Y073780
X065591
Y071811
X067559
Y073780
X069528
X071063Y073701
Y074134
X071063Y074528
X069528Y075748
X067559
X065591
X063622
Y077717
X065118Y077717
X065591Y069843
X067559
X069528
Y071811
X072087Y071063
X071929Y070157
X073268Y069528
X075276
Y071535
Y073543
X073268
Y075551
X071496Y067874
X069528
X068581Y067911
X067559Y067874
Y065906
X065591
X065481Y066937
X065146Y066603
X065827Y067283
X069528Y065906
X071496
Y063937
X069528
X073465
X073268Y065551
X075276Y065512
Y080472
X073228
X073268Y084488
X075276
X075433Y087559
X071496Y089528
X071496Y092008
X070551Y092559
X067559Y091929
X065591Y091496
X063622
X063524Y092539
X063622Y093465
X062520Y092047
X063622Y088701
X063622Y087559
X065591
X065591Y088622
X067559Y089528
X068583Y088661
X069528Y085118
Y084252
X067559Y083622
X065591
X063622
Y081654
X065591
X065591Y080354
X067008Y079606
X067953Y079409
X069528Y079685
Y081654
X067559
X063622Y079685
X073465Y093701
X075433
X061890Y093110
X061811Y091065
X060709Y090630
X059685Y089016
X059685Y087559
X057717
X061654
X061654Y088701
X061654Y083622
X059685
X057717
Y081654
X059685
X061654
Y079685
X059685
X057717
X055748
X053780
Y081654
Y083228
X055748
Y081654
X051811
Y083189
X049843Y081654
Y079685
X049646Y078780
X047992Y079764
Y080236
X048032Y081024
X051811Y079685
X053032Y088858
X054331Y089331
X053780Y091339
X054646Y092441
X055630
X057441Y093465
X049843Y093465
X047874
Y092362
Y091614
X045906
Y092362
Y093465
X043937
Y091968
X041968Y091496
Y089961
X042126Y085748
X041181Y085472
Y084291
X041299Y083307
X040787Y080079
Y079134
X044646Y078268
X045906Y078701
Y079685
Y094409
X043937
X047874
X049843
X055000Y094449
X055591
X057441
X064094Y094331
X065354
T03
X065984Y093937
T04
X070827Y089472
Y090472
T05
X072756Y065000
X073756
X074756
Y066000
Y067000
Y068000
X075756
Y069000
X074756
Y070000
Y071000
X075756
Y072000
X074756
Y073000
X075756
Y074000
X074756
Y075000
X075756
Y076000
X074756
Y077000
Y078000
X075756
Y077000
X073756
Y078000
X072756
Y077000
Y076000
Y075000
X073756
Y076000
Y074000
X072756
Y073000
Y072000
Y071000
Y070000
Y069000
Y068000
Y067000
Y066000
X073756
Y067000
Y068000
Y069000
Y070000
Y071000
Y072000
Y073000
X075756Y070000
Y067000
Y066000
Y065000
Y079000
X074756
Y080000
Y081000
Y082000
Y083000
X075756
Y084000
X074756
Y085000
Y086000
X075756
Y087000
X074756
Y088000
Y089000
X075756
Y088000
Y090000
X074756
X073756
Y089000
X072756
Y088000
Y087000
X073756
Y086000
X072756
Y085000
Y084000
Y083000
Y082000
Y081000
Y080000
Y079000
X073756
Y080000
Y081000
Y082000
Y083000
Y084000
Y085000
X075756
Y082000
Y081000
Y080000
X073756Y088000
X072756Y090000
T06
X065906Y062913
Y064882
X067874
Y062913
X066890Y063898
T07
X042008Y062008
X075748Y062992
Y092008
X042008Y093504
M30
