%FSAX24Y24*%
%MOIN*%
G70*
G01*
G75*
G04 Layer_Color=128*
%ADD10C,0.0394*%
%ADD11C,0.0276*%
%ADD12R,0.0630X0.0709*%
%ADD13R,0.0433X0.0394*%
%ADD14R,0.0394X0.0433*%
%ADD15R,0.0591X0.1457*%
%ADD16R,0.0866X0.0236*%
%ADD17R,0.0866X0.0236*%
%ADD18R,0.0807X0.0532*%
%ADD19R,0.0532X0.0807*%
%ADD20R,0.0709X0.0630*%
%ADD21R,0.1014X0.0748*%
%ADD22R,0.0453X0.0236*%
%ADD23R,0.0650X0.0118*%
%ADD24R,0.0630X0.0118*%
%ADD25R,0.0591X0.0335*%
%ADD26R,0.0335X0.0591*%
%ADD27C,0.1969*%
%ADD28R,0.0315X0.0118*%
%ADD29C,0.0315*%
%ADD30C,0.0197*%
%ADD31C,0.0236*%
%ADD32C,0.0472*%
%ADD33C,0.0118*%
%ADD34C,0.0157*%
%ADD35C,0.0591*%
%ADD36R,0.1378X0.0565*%
%ADD37R,0.0945X0.1024*%
%ADD38R,0.0823X0.0266*%
%ADD39R,0.0866X0.0108*%
%ADD40R,0.0591X0.0630*%
%ADD41R,0.2520X0.2480*%
%ADD42C,0.0010*%
%ADD43C,0.0080*%
%ADD44R,0.0591X0.0591*%
%ADD45C,0.0591*%
%ADD46C,0.0984*%
%ADD47C,0.0620*%
%ADD48R,0.0620X0.0620*%
%ADD49C,0.2500*%
%ADD50C,0.0236*%
%ADD51C,0.0472*%
%ADD52C,0.0315*%
%ADD53R,0.0315X0.0630*%
%ADD54R,0.0827X0.1181*%
%ADD55O,0.0118X0.0709*%
%ADD56O,0.0709X0.0118*%
%ADD57R,0.0394X0.0374*%
%ADD58R,0.3307X0.3307*%
%ADD59C,0.0098*%
%ADD60C,0.0079*%
%ADD61C,0.0080*%
%ADD62C,0.0100*%
%ADD63R,0.0710X0.0789*%
%ADD64R,0.0513X0.0474*%
%ADD65R,0.0474X0.0513*%
%ADD66R,0.0671X0.1537*%
%ADD67R,0.0946X0.0316*%
%ADD68R,0.0946X0.0316*%
%ADD69R,0.0887X0.0612*%
%ADD70R,0.0612X0.0887*%
%ADD71R,0.0789X0.0710*%
%ADD72R,0.1094X0.0828*%
%ADD73R,0.0533X0.0316*%
%ADD74R,0.0730X0.0198*%
%ADD75R,0.0710X0.0198*%
%ADD76R,0.0671X0.0415*%
%ADD77R,0.0415X0.0671*%
%ADD78C,0.2049*%
%ADD79R,0.0395X0.0198*%
%ADD80R,0.0671X0.0671*%
%ADD81C,0.0671*%
%ADD82C,0.1064*%
%ADD83C,0.0700*%
%ADD84R,0.0700X0.0700*%
%ADD85C,0.2580*%
%ADD86C,0.0316*%
%ADD87C,0.0552*%
%ADD88C,0.0395*%
%ADD89R,0.0395X0.0710*%
%ADD90R,0.0907X0.1261*%
%ADD91O,0.0198X0.0789*%
%ADD92O,0.0789X0.0198*%
%ADD93R,0.0474X0.0454*%
D13*
X048386Y077835D02*
D03*
X049055D02*
D03*
X047047Y076496D02*
D03*
X046378D02*
D03*
D14*
X055591Y093976D02*
D03*
Y093307D02*
D03*
X048543Y081890D02*
D03*
Y081220D02*
D03*
X048465Y079921D02*
D03*
Y080591D02*
D03*
D42*
X067598Y063898D02*
G03*
X067598Y063898I-000709J000000D01*
G01*
X067303D02*
G03*
X067303Y063898I-000413J000000D01*
G01*
X066968D02*
G03*
X066968Y063898I-000079J000000D01*
G01*
D43*
X040000Y060000D02*
X077752D01*
X040000Y095500D02*
X077752D01*
Y060000D02*
Y095500D01*
X040000Y060000D02*
Y095500D01*
D53*
X070551Y093110D02*
D03*
X068091D02*
D03*
X068583D02*
D03*
X069075D02*
D03*
X069567D02*
D03*
X070059D02*
D03*
D54*
X067087Y094252D02*
D03*
X071555D02*
D03*
D55*
X046772Y083209D02*
D03*
X046575D02*
D03*
X046378D02*
D03*
X046181D02*
D03*
X045984D02*
D03*
X045787D02*
D03*
X045591D02*
D03*
X045394D02*
D03*
X045197D02*
D03*
X045000D02*
D03*
X044803D02*
D03*
X044606D02*
D03*
X044409D02*
D03*
X044213D02*
D03*
X044016D02*
D03*
X043819D02*
D03*
X043622D02*
D03*
X043425D02*
D03*
X043228D02*
D03*
X043031D02*
D03*
X042835D02*
D03*
X042638D02*
D03*
X042441D02*
D03*
X042244D02*
D03*
X042047D02*
D03*
X044409Y077264D02*
D03*
X044606D02*
D03*
X046378D02*
D03*
X046575D02*
D03*
X046772D02*
D03*
X046181D02*
D03*
X042638D02*
D03*
X042441D02*
D03*
X042244D02*
D03*
X042047D02*
D03*
X045000D02*
D03*
X044803D02*
D03*
X045787D02*
D03*
X045591D02*
D03*
X045394D02*
D03*
X045197D02*
D03*
X044213D02*
D03*
X045984D02*
D03*
X044016D02*
D03*
X043819D02*
D03*
X043622D02*
D03*
X043425D02*
D03*
X043228D02*
D03*
X043031D02*
D03*
X042835D02*
D03*
D56*
X041437Y082598D02*
D03*
Y082402D02*
D03*
Y082205D02*
D03*
Y082008D02*
D03*
Y081811D02*
D03*
Y081614D02*
D03*
Y081417D02*
D03*
Y081220D02*
D03*
Y081024D02*
D03*
Y080827D02*
D03*
Y080630D02*
D03*
Y080433D02*
D03*
Y080236D02*
D03*
Y080039D02*
D03*
Y079843D02*
D03*
Y079252D02*
D03*
Y079055D02*
D03*
X047382Y077874D02*
D03*
Y078071D02*
D03*
Y078268D02*
D03*
Y078465D02*
D03*
Y078661D02*
D03*
Y078858D02*
D03*
Y079055D02*
D03*
Y079252D02*
D03*
Y079449D02*
D03*
Y079646D02*
D03*
Y079843D02*
D03*
Y080039D02*
D03*
Y080236D02*
D03*
Y080433D02*
D03*
Y080630D02*
D03*
Y080827D02*
D03*
Y081024D02*
D03*
Y081220D02*
D03*
Y081417D02*
D03*
Y081614D02*
D03*
Y081811D02*
D03*
Y082008D02*
D03*
Y082205D02*
D03*
Y082402D02*
D03*
Y082598D02*
D03*
X041437Y077874D02*
D03*
Y078071D02*
D03*
Y078268D02*
D03*
Y078465D02*
D03*
Y079449D02*
D03*
Y079646D02*
D03*
Y078661D02*
D03*
Y078858D02*
D03*
D57*
X049222Y078780D02*
D03*
X048337Y079154D02*
D03*
Y078405D02*
D03*
M02*
