%FSAX24Y24*%
%MOIN*%
G70*
G01*
G75*
G04 Layer_Color=2752767*
%ADD10C,0.0394*%
%ADD11C,0.0276*%
%ADD12R,0.0630X0.0709*%
%ADD13R,0.0433X0.0394*%
%ADD14R,0.0394X0.0433*%
%ADD15R,0.0591X0.1457*%
%ADD16R,0.0866X0.0236*%
%ADD17R,0.0866X0.0236*%
%ADD18R,0.0807X0.0532*%
%ADD19R,0.0532X0.0807*%
%ADD20R,0.0709X0.0630*%
%ADD21R,0.1014X0.0748*%
%ADD22R,0.0453X0.0236*%
%ADD23R,0.0650X0.0118*%
%ADD24R,0.0630X0.0118*%
%ADD25R,0.0591X0.0335*%
%ADD26R,0.0335X0.0591*%
%ADD27C,0.1969*%
%ADD28R,0.0315X0.0118*%
%ADD29C,0.0315*%
%ADD30C,0.0197*%
%ADD31C,0.0236*%
%ADD32C,0.0472*%
%ADD33C,0.0118*%
%ADD34C,0.0157*%
%ADD35C,0.0591*%
%ADD36R,0.1378X0.0565*%
%ADD37R,0.0945X0.1024*%
%ADD38R,0.0823X0.0266*%
%ADD39R,0.0866X0.0108*%
%ADD40R,0.0591X0.0630*%
%ADD41R,0.2520X0.2480*%
%ADD42C,0.0010*%
%ADD43C,0.0080*%
%ADD44R,0.0591X0.0591*%
%ADD45C,0.0591*%
%ADD46C,0.0984*%
%ADD47C,0.0620*%
%ADD48R,0.0620X0.0620*%
%ADD49C,0.2500*%
%ADD50C,0.0236*%
%ADD51C,0.0472*%
%ADD52C,0.0315*%
%ADD53R,0.0315X0.0630*%
%ADD54R,0.0827X0.1181*%
%ADD55O,0.0118X0.0709*%
%ADD56O,0.0709X0.0118*%
%ADD57R,0.0394X0.0374*%
%ADD58R,0.3307X0.3307*%
%ADD59C,0.0098*%
%ADD60C,0.0079*%
%ADD61C,0.0080*%
%ADD62C,0.0100*%
%ADD63R,0.0710X0.0789*%
%ADD64R,0.0513X0.0474*%
%ADD65R,0.0474X0.0513*%
%ADD66R,0.0671X0.1537*%
%ADD67R,0.0946X0.0316*%
%ADD68R,0.0946X0.0316*%
%ADD69R,0.0887X0.0612*%
%ADD70R,0.0612X0.0887*%
%ADD71R,0.0789X0.0710*%
%ADD72R,0.1094X0.0828*%
%ADD73R,0.0533X0.0316*%
%ADD74R,0.0730X0.0198*%
%ADD75R,0.0710X0.0198*%
%ADD76R,0.0671X0.0415*%
%ADD77R,0.0415X0.0671*%
%ADD78C,0.2049*%
%ADD79R,0.0395X0.0198*%
%ADD80R,0.0671X0.0671*%
%ADD81C,0.0671*%
%ADD82C,0.1064*%
%ADD83C,0.0700*%
%ADD84R,0.0700X0.0700*%
%ADD85C,0.2580*%
%ADD86C,0.0316*%
%ADD87C,0.0552*%
%ADD88C,0.0395*%
%ADD89R,0.0395X0.0710*%
%ADD90R,0.0907X0.1261*%
%ADD91O,0.0198X0.0789*%
%ADD92O,0.0789X0.0198*%
%ADD93R,0.0474X0.0454*%
%ADD94C,0.0140*%
%ADD95C,0.0039*%
%ADD96C,0.0067*%
D42*
X067598Y063898D02*
G03*
X067598Y063898I-000709J000000D01*
G01*
X067303D02*
G03*
X067303Y063898I-000413J000000D01*
G01*
X066968D02*
G03*
X066968Y063898I-000079J000000D01*
G01*
X070627Y090272D02*
Y090672D01*
X071027D01*
Y090272D01*
X070627D01*
Y089272D02*
Y089672D01*
X071027D01*
Y089272D01*
X070627D01*
X075756Y070800D02*
X075556Y071200D01*
X075956D01*
X075756Y070800D01*
X074756D02*
X074556Y071200D01*
X074956D01*
X074756Y070800D01*
X075756Y071800D02*
X075556Y072200D01*
X075956D01*
X075756Y071800D01*
X074756D02*
X074556Y072200D01*
X074956D01*
X074756Y071800D01*
X075756Y077800D02*
X075556Y078200D01*
X075956D01*
X075756Y077800D01*
X074756D02*
X074556Y078200D01*
X074956D01*
X074756Y077800D01*
X075756Y067800D02*
X075556Y068200D01*
X075956D01*
X075756Y067800D01*
X074756D02*
X074556Y068200D01*
X074956D01*
X074756Y067800D01*
X075756Y068800D02*
X075556Y069200D01*
X075956D01*
X075756Y068800D01*
X074756D02*
X074556Y069200D01*
X074956D01*
X074756Y068800D01*
X075756Y069800D02*
X075556Y070200D01*
X075956D01*
X075756Y069800D01*
X074756D02*
X074556Y070200D01*
X074956D01*
X074756Y069800D01*
X075756Y072800D02*
X075556Y073200D01*
X075956D01*
X075756Y072800D01*
X074756D02*
X074556Y073200D01*
X074956D01*
X074756Y072800D01*
X075756Y073800D02*
X075556Y074200D01*
X075956D01*
X075756Y073800D01*
X074756D02*
X074556Y074200D01*
X074956D01*
X074756Y073800D01*
X075756Y074800D02*
X075556Y075200D01*
X075956D01*
X075756Y074800D01*
X074756D02*
X074556Y075200D01*
X074956D01*
X074756Y074800D01*
X075756Y075800D02*
X075556Y076200D01*
X075956D01*
X075756Y075800D01*
X074756D02*
X074556Y076200D01*
X074956D01*
X074756Y075800D01*
X075756Y076800D02*
X075556Y077200D01*
X075956D01*
X075756Y076800D01*
X074756D02*
X074556Y077200D01*
X074956D01*
X074756Y076800D01*
Y082800D02*
X074556Y083200D01*
X074956D01*
X074756Y082800D01*
Y081800D02*
X074556Y082200D01*
X074956D01*
X074756Y081800D01*
Y080800D02*
X074556Y081200D01*
X074956D01*
X074756Y080800D01*
Y079800D02*
X074556Y080200D01*
X074956D01*
X074756Y079800D01*
Y078800D02*
X074556Y079200D01*
X074956D01*
X074756Y078800D01*
X075756Y083800D02*
X075556Y084200D01*
X075956D01*
X075756Y083800D01*
Y082800D02*
X075556Y083200D01*
X075956D01*
X075756Y082800D01*
Y081800D02*
X075556Y082200D01*
X075956D01*
X075756Y081800D01*
Y080800D02*
X075556Y081200D01*
X075956D01*
X075756Y080800D01*
Y079800D02*
X075556Y080200D01*
X075956D01*
X075756Y079800D01*
Y078800D02*
X075556Y079200D01*
X075956D01*
X075756Y078800D01*
Y088800D02*
X075556Y089200D01*
X075956D01*
X075756Y088800D01*
X074756D02*
X074556Y089200D01*
X074956D01*
X074756Y088800D01*
Y084800D02*
X074556Y085200D01*
X074956D01*
X074756Y084800D01*
X075756Y086800D02*
X075556Y087200D01*
X075956D01*
X075756Y086800D01*
X074756Y083800D02*
X074556Y084200D01*
X074956D01*
X074756Y083800D01*
Y085800D02*
X074556Y086200D01*
X074956D01*
X074756Y085800D01*
X075756Y084800D02*
X075556Y085200D01*
X075956D01*
X075756Y084800D01*
Y085800D02*
X075556Y086200D01*
X075956D01*
X075756Y085800D01*
X074756Y089800D02*
X074556Y090200D01*
X074956D01*
X074756Y089800D01*
Y087800D02*
X074556Y088200D01*
X074956D01*
X074756Y087800D01*
Y086800D02*
X074556Y087200D01*
X074956D01*
X074756Y086800D01*
Y066800D02*
X074556Y067200D01*
X074956D01*
X074756Y066800D01*
X075756Y087800D02*
X075556Y088200D01*
X075956D01*
X075756Y087800D01*
Y066800D02*
X075556Y067200D01*
X075956D01*
X075756Y066800D01*
X074756Y065800D02*
X074556Y066200D01*
X074956D01*
X074756Y065800D01*
Y064800D02*
X074556Y065200D01*
X074956D01*
X074756Y064800D01*
X075756Y065800D02*
X075556Y066200D01*
X075956D01*
X075756Y065800D01*
Y064800D02*
X075556Y065200D01*
X075956D01*
X075756Y064800D01*
Y089800D02*
X075556Y090200D01*
X075956D01*
X075756Y089800D01*
X072756Y086800D02*
X072556Y087200D01*
X072956D01*
X072756Y086800D01*
Y087800D02*
X072556Y088200D01*
X072956D01*
X072756Y087800D01*
X073756Y064800D02*
X073556Y065200D01*
X073956D01*
X073756Y064800D01*
X072756D02*
X072556Y065200D01*
X072956D01*
X072756Y064800D01*
X073756Y065800D02*
X073556Y066200D01*
X073956D01*
X073756Y065800D01*
X072756D02*
X072556Y066200D01*
X072956D01*
X072756Y065800D01*
X073756Y066800D02*
X073556Y067200D01*
X073956D01*
X073756Y066800D01*
X072756D02*
X072556Y067200D01*
X072956D01*
X072756Y066800D01*
Y068800D02*
X072556Y069200D01*
X072956D01*
X072756Y068800D01*
Y069800D02*
X072556Y070200D01*
X072956D01*
X072756Y069800D01*
X073756Y074800D02*
X073556Y075200D01*
X073956D01*
X073756Y074800D01*
X072756Y078800D02*
X072556Y079200D01*
X072956D01*
X072756Y078800D01*
Y079800D02*
X072556Y080200D01*
X072956D01*
X072756Y079800D01*
Y080800D02*
X072556Y081200D01*
X072956D01*
X072756Y080800D01*
Y081800D02*
X072556Y082200D01*
X072956D01*
X072756Y081800D01*
Y082800D02*
X072556Y083200D01*
X072956D01*
X072756Y082800D01*
Y083800D02*
X072556Y084200D01*
X072956D01*
X072756Y083800D01*
Y077800D02*
X072556Y078200D01*
X072956D01*
X072756Y077800D01*
X073756Y083800D02*
X073556Y084200D01*
X073956D01*
X073756Y083800D01*
Y082800D02*
X073556Y083200D01*
X073956D01*
X073756Y082800D01*
Y081800D02*
X073556Y082200D01*
X073956D01*
X073756Y081800D01*
Y080800D02*
X073556Y081200D01*
X073956D01*
X073756Y080800D01*
Y079800D02*
X073556Y080200D01*
X073956D01*
X073756Y079800D01*
Y078800D02*
X073556Y079200D01*
X073956D01*
X073756Y078800D01*
Y077800D02*
X073556Y078200D01*
X073956D01*
X073756Y077800D01*
Y088800D02*
X073556Y089200D01*
X073956D01*
X073756Y088800D01*
X072756D02*
X072556Y089200D01*
X072956D01*
X072756Y088800D01*
Y084800D02*
X072556Y085200D01*
X072956D01*
X072756Y084800D01*
X073756Y086800D02*
X073556Y087200D01*
X073956D01*
X073756Y086800D01*
X072756Y085800D02*
X072556Y086200D01*
X072956D01*
X072756Y085800D01*
X073756Y084800D02*
X073556Y085200D01*
X073956D01*
X073756Y084800D01*
Y085800D02*
X073556Y086200D01*
X073956D01*
X073756Y085800D01*
X072756Y089800D02*
X072556Y090200D01*
X072956D01*
X072756Y089800D01*
X073756Y087800D02*
X073556Y088200D01*
X073956D01*
X073756Y087800D01*
X072756Y076800D02*
X072556Y077200D01*
X072956D01*
X072756Y076800D01*
Y075800D02*
X072556Y076200D01*
X072956D01*
X072756Y075800D01*
Y074800D02*
X072556Y075200D01*
X072956D01*
X072756Y074800D01*
Y073800D02*
X072556Y074200D01*
X072956D01*
X072756Y073800D01*
Y072800D02*
X072556Y073200D01*
X072956D01*
X072756Y072800D01*
Y071800D02*
X072556Y072200D01*
X072956D01*
X072756Y071800D01*
Y070800D02*
X072556Y071200D01*
X072956D01*
X072756Y070800D01*
Y067800D02*
X072556Y068200D01*
X072956D01*
X072756Y067800D01*
X073756Y076800D02*
X073556Y077200D01*
X073956D01*
X073756Y076800D01*
Y075800D02*
X073556Y076200D01*
X073956D01*
X073756Y075800D01*
Y073800D02*
X073556Y074200D01*
X073956D01*
X073756Y073800D01*
Y072800D02*
X073556Y073200D01*
X073956D01*
X073756Y072800D01*
Y071800D02*
X073556Y072200D01*
X073956D01*
X073756Y071800D01*
Y070800D02*
X073556Y071200D01*
X073956D01*
X073756Y070800D01*
Y069800D02*
X073556Y070200D01*
X073956D01*
X073756Y069800D01*
Y068800D02*
X073556Y069200D01*
X073956D01*
X073756Y068800D01*
Y067800D02*
X073556Y068200D01*
X073956D01*
X073756Y067800D01*
Y089800D02*
X073556Y090200D01*
X073956D01*
X073756Y089800D01*
X042008Y061808D02*
X042108Y061908D01*
X042208D01*
X042108Y062008D01*
X042208Y062108D01*
X042108D01*
X042008Y062208D01*
X041908Y062108D01*
X041808D01*
X041908Y062008D01*
X041808Y061908D01*
X041908D01*
X042008Y061808D01*
X075748Y091808D02*
X075848Y091908D01*
X075948D01*
X075848Y092008D01*
X075948Y092108D01*
X075848D01*
X075748Y092208D01*
X075648Y092108D01*
X075548D01*
X075648Y092008D01*
X075548Y091908D01*
X075648D01*
X075748Y091808D01*
Y062792D02*
X075848Y062892D01*
X075948D01*
X075848Y062992D01*
X075948Y063092D01*
X075848D01*
X075748Y063192D01*
X075648Y063092D01*
X075548D01*
X075648Y062992D01*
X075548Y062892D01*
X075648D01*
X075748Y062792D01*
X042008Y093304D02*
X042108Y093404D01*
X042208D01*
X042108Y093504D01*
X042208Y093604D01*
X042108D01*
X042008Y093704D01*
X041908Y093604D01*
X041808D01*
X041908Y093504D01*
X041808Y093404D01*
X041908D01*
X042008Y093304D01*
X075076Y089288D02*
X075176Y089488D01*
X075076Y089688D01*
X075276Y089588D01*
X075476Y089688D01*
X075376Y089488D01*
X075476Y089288D01*
X075276Y089388D01*
X075076Y089288D01*
X073146D02*
X073246Y089488D01*
X073146Y089688D01*
X073346Y089588D01*
X073546Y089688D01*
X073446Y089488D01*
X073546Y089288D01*
X073346Y089388D01*
X073146Y089288D01*
X056454Y076060D02*
X056554Y076260D01*
X056454Y076460D01*
X056654Y076360D01*
X056854Y076460D01*
X056754Y076260D01*
X056854Y076060D01*
X056654Y076160D01*
X056454Y076060D01*
X056768D02*
X056869Y076260D01*
X056768Y076460D01*
X056968Y076360D01*
X057168Y076460D01*
X057069Y076260D01*
X057168Y076060D01*
X056968Y076160D01*
X056768Y076060D01*
X057083D02*
X057183Y076260D01*
X057083Y076460D01*
X057283Y076360D01*
X057483Y076460D01*
X057383Y076260D01*
X057483Y076060D01*
X057283Y076160D01*
X057083Y076060D01*
X055312Y074446D02*
X055412Y074646D01*
X055312Y074846D01*
X055512Y074746D01*
X055712Y074846D01*
X055612Y074646D01*
X055712Y074446D01*
X055512Y074546D01*
X055312Y074446D01*
Y074761D02*
X055412Y074961D01*
X055312Y075161D01*
X055512Y075061D01*
X055712Y075161D01*
X055612Y074961D01*
X055712Y074761D01*
X055512Y074861D01*
X055312Y074761D01*
Y075076D02*
X055412Y075276D01*
X055312Y075476D01*
X055512Y075376D01*
X055712Y075476D01*
X055612Y075276D01*
X055712Y075076D01*
X055512Y075176D01*
X055312Y075076D01*
Y068304D02*
X055412Y068504D01*
X055312Y068704D01*
X055512Y068604D01*
X055712Y068704D01*
X055612Y068504D01*
X055712Y068304D01*
X055512Y068404D01*
X055312Y068304D01*
Y068619D02*
X055412Y068819D01*
X055312Y069019D01*
X055512Y068919D01*
X055712Y069019D01*
X055612Y068819D01*
X055712Y068619D01*
X055512Y068719D01*
X055312Y068619D01*
X065884Y093837D02*
Y093737D01*
X066084D01*
Y093837D01*
X066184D01*
Y094037D01*
X066084D01*
Y094137D01*
X065884D01*
Y094037D01*
X065784D01*
Y093837D01*
X065884D01*
X067871Y093501D02*
X067971Y093701D01*
X067871Y093901D01*
X068071Y093801D01*
X068271Y093901D01*
X068171Y093701D01*
X068271Y093501D01*
X068071Y093601D01*
X067871Y093501D01*
X068855D02*
X068955Y093701D01*
X068855Y093901D01*
X069055Y093801D01*
X069255Y093901D01*
X069155Y093701D01*
X069255Y093501D01*
X069055Y093601D01*
X068855Y093501D01*
X070312Y083816D02*
X070412Y084016D01*
X070312Y084216D01*
X070512Y084116D01*
X070712Y084216D01*
X070612Y084016D01*
X070712Y083816D01*
X070512Y083916D01*
X070312Y083816D01*
X070745Y082792D02*
X070845Y082992D01*
X070745Y083192D01*
X070945Y083092D01*
X071145Y083192D01*
X071045Y082992D01*
X071145Y082792D01*
X070945Y082892D01*
X070745Y082792D01*
X068894Y086099D02*
X068994Y086299D01*
X068894Y086499D01*
X069094Y086399D01*
X069294Y086499D01*
X069194Y086299D01*
X069294Y086099D01*
X069094Y086199D01*
X068894Y086099D01*
X068580Y086375D02*
X068680Y086575D01*
X068580Y086775D01*
X068780Y086675D01*
X068980Y086775D01*
X068880Y086575D01*
X068980Y086375D01*
X068780Y086475D01*
X068580Y086375D01*
X067320Y087635D02*
X067420Y087835D01*
X067320Y088035D01*
X067520Y087935D01*
X067720Y088035D01*
X067620Y087835D01*
X067720Y087635D01*
X067520Y087735D01*
X067320Y087635D01*
X069643Y088068D02*
X069743Y088268D01*
X069643Y088468D01*
X069843Y088368D01*
X070043Y088468D01*
X069943Y088268D01*
X070043Y088068D01*
X069843Y088168D01*
X069643Y088068D01*
X067320Y087123D02*
X067420Y087323D01*
X067320Y087523D01*
X067520Y087423D01*
X067720Y087523D01*
X067620Y087323D01*
X067720Y087123D01*
X067520Y087223D01*
X067320Y087123D01*
X067635Y087398D02*
X067735Y087598D01*
X067635Y087798D01*
X067835Y087698D01*
X068035Y087798D01*
X067935Y087598D01*
X068035Y087398D01*
X067835Y087498D01*
X067635Y087398D01*
X068737D02*
X068837Y087598D01*
X068737Y087798D01*
X068937Y087698D01*
X069137Y087798D01*
X069037Y087598D01*
X069137Y087398D01*
X068937Y087498D01*
X068737Y087398D01*
Y087792D02*
X068837Y087992D01*
X068737Y088192D01*
X068937Y088092D01*
X069137Y088192D01*
X069037Y087992D01*
X069137Y087792D01*
X068937Y087892D01*
X068737Y087792D01*
X069367Y087477D02*
X069467Y087677D01*
X069367Y087877D01*
X069567Y087777D01*
X069767Y087877D01*
X069667Y087677D01*
X069767Y087477D01*
X069567Y087577D01*
X069367Y087477D01*
X067950Y084485D02*
X068050Y084685D01*
X067950Y084885D01*
X068150Y084785D01*
X068350Y084885D01*
X068250Y084685D01*
X068350Y084485D01*
X068150Y084585D01*
X067950Y084485D01*
X067635Y084761D02*
X067735Y084961D01*
X067635Y085161D01*
X067835Y085061D01*
X068035Y085161D01*
X067935Y084961D01*
X068035Y084761D01*
X067835Y084861D01*
X067635Y084761D01*
X067320Y084485D02*
X067420Y084685D01*
X067320Y084885D01*
X067520Y084785D01*
X067720Y084885D01*
X067620Y084685D01*
X067720Y084485D01*
X067520Y084585D01*
X067320Y084485D01*
X067005Y084761D02*
X067105Y084961D01*
X067005Y085161D01*
X067205Y085061D01*
X067405Y085161D01*
X067305Y084961D01*
X067405Y084761D01*
X067205Y084861D01*
X067005Y084761D01*
X054249Y093107D02*
X054349Y093307D01*
X054249Y093507D01*
X054449Y093407D01*
X054649Y093507D01*
X054549Y093307D01*
X054649Y093107D01*
X054449Y093207D01*
X054249Y093107D01*
X064288Y092280D02*
X064388Y092480D01*
X064288Y092680D01*
X064488Y092580D01*
X064688Y092680D01*
X064588Y092480D01*
X064688Y092280D01*
X064488Y092380D01*
X064288Y092280D01*
X063816D02*
X063916Y092480D01*
X063816Y092680D01*
X064016Y092580D01*
X064216Y092680D01*
X064116Y092480D01*
X064216Y092280D01*
X064016Y092380D01*
X063816Y092280D01*
X071060Y075788D02*
X071160Y075988D01*
X071060Y076188D01*
X071260Y076088D01*
X071460Y076188D01*
X071360Y075988D01*
X071460Y075788D01*
X071260Y075888D01*
X071060Y075788D01*
X056532Y091395D02*
X056632Y091594D01*
X056532Y091795D01*
X056732Y091694D01*
X056932Y091795D01*
X056832Y091594D01*
X056932Y091395D01*
X056732Y091495D01*
X056532Y091395D01*
X042910Y064485D02*
X043010Y064685D01*
X042910Y064885D01*
X043110Y064785D01*
X043310Y064885D01*
X043210Y064685D01*
X043310Y064485D01*
X043110Y064585D01*
X042910Y064485D01*
X043003Y065022D02*
X043103Y065222D01*
X043003Y065422D01*
X043203Y065322D01*
X043403Y065422D01*
X043303Y065222D01*
X043403Y065022D01*
X043203Y065122D01*
X043003Y065022D01*
X049438Y075469D02*
X049538Y075669D01*
X049438Y075869D01*
X049638Y075769D01*
X049838Y075869D01*
X049738Y075669D01*
X049838Y075469D01*
X049638Y075569D01*
X049438Y075469D01*
X049170Y075194D02*
X049270Y075394D01*
X049170Y075594D01*
X049370Y075494D01*
X049570Y075594D01*
X049470Y075394D01*
X049570Y075194D01*
X049370Y075294D01*
X049170Y075194D01*
X049721Y075745D02*
X049821Y075945D01*
X049721Y076145D01*
X049921Y076045D01*
X050121Y076145D01*
X050021Y075945D01*
X050121Y075745D01*
X049921Y075845D01*
X049721Y075745D01*
X049446Y076020D02*
X049546Y076220D01*
X049446Y076420D01*
X049646Y076320D01*
X049846Y076420D01*
X049746Y076220D01*
X049846Y076020D01*
X049646Y076120D01*
X049446Y076020D01*
X056099Y091887D02*
X056199Y092087D01*
X056099Y092287D01*
X056299Y092187D01*
X056499Y092287D01*
X056399Y092087D01*
X056499Y091887D01*
X056299Y091987D01*
X056099Y091887D01*
X044013Y075745D02*
X044113Y075945D01*
X044013Y076145D01*
X044213Y076045D01*
X044413Y076145D01*
X044313Y075945D01*
X044413Y075745D01*
X044213Y075845D01*
X044013Y075745D01*
X044288Y076020D02*
X044388Y076220D01*
X044288Y076420D01*
X044488Y076320D01*
X044688Y076420D01*
X044588Y076220D01*
X044688Y076020D01*
X044488Y076120D01*
X044288Y076020D01*
X043461Y075194D02*
X043561Y075394D01*
X043461Y075594D01*
X043661Y075494D01*
X043861Y075594D01*
X043761Y075394D01*
X043861Y075194D01*
X043661Y075294D01*
X043461Y075194D01*
X043737Y075469D02*
X043837Y075669D01*
X043737Y075869D01*
X043937Y075769D01*
X044137Y075869D01*
X044037Y075669D01*
X044137Y075469D01*
X043937Y075569D01*
X043737Y075469D01*
X043501Y076060D02*
X043601Y076260D01*
X043501Y076460D01*
X043701Y076360D01*
X043901Y076460D01*
X043801Y076260D01*
X043901Y076060D01*
X043701Y076160D01*
X043501Y076060D01*
X055430Y091178D02*
X055530Y091378D01*
X055430Y091578D01*
X055630Y091478D01*
X055830Y091578D01*
X055730Y091378D01*
X055830Y091178D01*
X055630Y091278D01*
X055430Y091178D01*
X054328Y090745D02*
X054428Y090945D01*
X054328Y091145D01*
X054528Y091045D01*
X054728Y091145D01*
X054628Y090945D01*
X054728Y090745D01*
X054528Y090845D01*
X054328Y090745D01*
X048265Y083501D02*
X048365Y083701D01*
X048265Y083901D01*
X048465Y083801D01*
X048665Y083901D01*
X048565Y083701D01*
X048665Y083501D01*
X048465Y083601D01*
X048265Y083501D01*
X041690Y076375D02*
X041790Y076575D01*
X041690Y076775D01*
X041890Y076675D01*
X042090Y076775D01*
X041990Y076575D01*
X042090Y076375D01*
X041890Y076475D01*
X041690Y076375D01*
X041611Y075391D02*
X041711Y075591D01*
X041611Y075791D01*
X041811Y075691D01*
X042011Y075791D01*
X041911Y075591D01*
X042011Y075391D01*
X041811Y075491D01*
X041611Y075391D01*
X041887Y075902D02*
X041987Y076102D01*
X041887Y076302D01*
X042087Y076202D01*
X042287Y076302D01*
X042187Y076102D01*
X042287Y075902D01*
X042087Y076002D01*
X041887Y075902D01*
X041375Y077280D02*
X041475Y077480D01*
X041375Y077680D01*
X041575Y077580D01*
X041775Y077680D01*
X041675Y077480D01*
X041775Y077280D01*
X041575Y077380D01*
X041375Y077280D01*
X044052Y077871D02*
X044152Y078071D01*
X044052Y078271D01*
X044252Y078171D01*
X044452Y078271D01*
X044352Y078071D01*
X044452Y077871D01*
X044252Y077971D01*
X044052Y077871D01*
Y078265D02*
X044152Y078465D01*
X044052Y078665D01*
X044252Y078565D01*
X044452Y078665D01*
X044352Y078465D01*
X044452Y078265D01*
X044252Y078365D01*
X044052Y078265D01*
Y078658D02*
X044152Y078858D01*
X044052Y079058D01*
X044252Y078958D01*
X044452Y079058D01*
X044352Y078858D01*
X044452Y078658D01*
X044252Y078758D01*
X044052Y078658D01*
Y079052D02*
X044152Y079252D01*
X044052Y079452D01*
X044252Y079352D01*
X044452Y079452D01*
X044352Y079252D01*
X044452Y079052D01*
X044252Y079152D01*
X044052Y079052D01*
Y079446D02*
X044152Y079646D01*
X044052Y079846D01*
X044252Y079746D01*
X044452Y079846D01*
X044352Y079646D01*
X044452Y079446D01*
X044252Y079546D01*
X044052Y079446D01*
Y079839D02*
X044152Y080039D01*
X044052Y080239D01*
X044252Y080139D01*
X044452Y080239D01*
X044352Y080039D01*
X044452Y079839D01*
X044252Y079939D01*
X044052Y079839D01*
Y080233D02*
X044152Y080433D01*
X044052Y080633D01*
X044252Y080533D01*
X044452Y080633D01*
X044352Y080433D01*
X044452Y080233D01*
X044252Y080333D01*
X044052Y080233D01*
Y080627D02*
X044152Y080827D01*
X044052Y081027D01*
X044252Y080927D01*
X044452Y081027D01*
X044352Y080827D01*
X044452Y080627D01*
X044252Y080727D01*
X044052Y080627D01*
Y081020D02*
X044152Y081220D01*
X044052Y081420D01*
X044252Y081320D01*
X044452Y081420D01*
X044352Y081220D01*
X044452Y081020D01*
X044252Y081120D01*
X044052Y081020D01*
Y081414D02*
X044152Y081614D01*
X044052Y081814D01*
X044252Y081714D01*
X044452Y081814D01*
X044352Y081614D01*
X044452Y081414D01*
X044252Y081514D01*
X044052Y081414D01*
Y081808D02*
X044152Y082008D01*
X044052Y082208D01*
X044252Y082108D01*
X044452Y082208D01*
X044352Y082008D01*
X044452Y081808D01*
X044252Y081908D01*
X044052Y081808D01*
X045312Y087398D02*
X045412Y087598D01*
X045312Y087798D01*
X045512Y087698D01*
X045712Y087798D01*
X045612Y087598D01*
X045712Y087398D01*
X045512Y087498D01*
X045312Y087398D01*
X046690Y065194D02*
X046790D01*
X046890Y065294D01*
X046990Y065194D01*
X047090D01*
Y065294D01*
X046990Y065394D01*
X047090Y065494D01*
Y065594D01*
X046990D01*
X046890Y065494D01*
X046790Y065594D01*
X046690D01*
Y065494D01*
X046790Y065394D01*
X046690Y065294D01*
Y065194D01*
X045706Y087398D02*
X045806Y087598D01*
X045706Y087798D01*
X045906Y087698D01*
X046106Y087798D01*
X046006Y087598D01*
X046106Y087398D01*
X045906Y087498D01*
X045706Y087398D01*
X046099D02*
X046199Y087598D01*
X046099Y087798D01*
X046299Y087698D01*
X046499Y087798D01*
X046399Y087598D01*
X046499Y087398D01*
X046299Y087498D01*
X046099Y087398D01*
X044131D02*
X044231Y087598D01*
X044131Y087798D01*
X044331Y087698D01*
X044531Y087798D01*
X044431Y087598D01*
X044531Y087398D01*
X044331Y087498D01*
X044131Y087398D01*
X044524D02*
X044624Y087598D01*
X044524Y087798D01*
X044724Y087698D01*
X044924Y087798D01*
X044824Y087598D01*
X044924Y087398D01*
X044724Y087498D01*
X044524Y087398D01*
X044918D02*
X045018Y087598D01*
X044918Y087798D01*
X045118Y087698D01*
X045318Y087798D01*
X045218Y087598D01*
X045318Y087398D01*
X045118Y087498D01*
X044918Y087398D01*
X043343D02*
X043443Y087598D01*
X043343Y087798D01*
X043543Y087698D01*
X043743Y087798D01*
X043643Y087598D01*
X043743Y087398D01*
X043543Y087498D01*
X043343Y087398D01*
X042556D02*
X042656Y087598D01*
X042556Y087798D01*
X042756Y087698D01*
X042956Y087798D01*
X042856Y087598D01*
X042956Y087398D01*
X042756Y087498D01*
X042556Y087398D01*
X042162D02*
X042262Y087598D01*
X042162Y087798D01*
X042362Y087698D01*
X042562Y087798D01*
X042462Y087598D01*
X042562Y087398D01*
X042362Y087498D01*
X042162Y087398D01*
X043973Y085863D02*
X044073Y086063D01*
X043973Y086263D01*
X044173Y086163D01*
X044373Y086263D01*
X044273Y086063D01*
X044373Y085863D01*
X044173Y085963D01*
X043973Y085863D01*
X044249Y086099D02*
X044349Y086299D01*
X044249Y086499D01*
X044449Y086399D01*
X044649Y086499D01*
X044549Y086299D01*
X044649Y086099D01*
X044449Y086199D01*
X044249Y086099D01*
X044524Y086611D02*
X044624Y086811D01*
X044524Y087011D01*
X044724Y086911D01*
X044924Y087011D01*
X044824Y086811D01*
X044924Y086611D01*
X044724Y086711D01*
X044524Y086611D01*
X054957Y087241D02*
X055057Y087441D01*
X054957Y087641D01*
X055157Y087541D01*
X055357Y087641D01*
X055257Y087441D01*
X055357Y087241D01*
X055157Y087341D01*
X054957Y087241D01*
X054643Y087044D02*
X054743Y087244D01*
X054643Y087444D01*
X054843Y087344D01*
X055043Y087444D01*
X054943Y087244D01*
X055043Y087044D01*
X054843Y087144D01*
X054643Y087044D01*
X043698Y085587D02*
X043798Y085787D01*
X043698Y085987D01*
X043898Y085887D01*
X044098Y085987D01*
X043998Y085787D01*
X044098Y085587D01*
X043898Y085687D01*
X043698Y085587D01*
X043186Y086847D02*
X043286Y087047D01*
X043186Y087247D01*
X043386Y087147D01*
X043586Y087247D01*
X043486Y087047D01*
X043586Y086847D01*
X043386Y086947D01*
X043186Y086847D01*
X043973D02*
X044073Y087047D01*
X043973Y087247D01*
X044173Y087147D01*
X044373Y087247D01*
X044273Y087047D01*
X044373Y086847D01*
X044173Y086947D01*
X043973Y086847D01*
X055430Y087517D02*
X055530Y087717D01*
X055430Y087917D01*
X055630Y087817D01*
X055830Y087917D01*
X055730Y087717D01*
X055830Y087517D01*
X055630Y087617D01*
X055430Y087517D01*
X054328Y086847D02*
X054428Y087047D01*
X054328Y087247D01*
X054528Y087147D01*
X054728Y087247D01*
X054628Y087047D01*
X054728Y086847D01*
X054528Y086947D01*
X054328Y086847D01*
X044997Y064761D02*
X045097Y064961D01*
X044997Y065161D01*
X045197Y065061D01*
X045397Y065161D01*
X045297Y064961D01*
X045397Y064761D01*
X045197Y064861D01*
X044997Y064761D01*
X045391D02*
X045491Y064961D01*
X045391Y065161D01*
X045591Y065061D01*
X045791Y065161D01*
X045691Y064961D01*
X045791Y064761D01*
X045591Y064861D01*
X045391Y064761D01*
X044209D02*
X044309Y064961D01*
X044209Y065161D01*
X044409Y065061D01*
X044609Y065161D01*
X044509Y064961D01*
X044609Y064761D01*
X044409Y064861D01*
X044209Y064761D01*
X044603D02*
X044703Y064961D01*
X044603Y065161D01*
X044803Y065061D01*
X045003Y065161D01*
X044903Y064961D01*
X045003Y064761D01*
X044803Y064861D01*
X044603Y064761D01*
X044879Y064367D02*
X044979Y064567D01*
X044879Y064767D01*
X045079Y064667D01*
X045279Y064767D01*
X045179Y064567D01*
X045279Y064367D01*
X045079Y064467D01*
X044879Y064367D01*
X053934Y086572D02*
X054034Y086772D01*
X053934Y086972D01*
X054134Y086872D01*
X054334Y086972D01*
X054234Y086772D01*
X054334Y086572D01*
X054134Y086672D01*
X053934Y086572D01*
X054249Y093698D02*
X054349Y093898D01*
X054249Y094098D01*
X054449Y093998D01*
X054649Y094098D01*
X054549Y093898D01*
X054649Y093698D01*
X054449Y093798D01*
X054249Y093698D01*
X050863D02*
X050963Y093898D01*
X050863Y094098D01*
X051063Y093998D01*
X051263Y094098D01*
X051163Y093898D01*
X051263Y093698D01*
X051063Y093798D01*
X050863Y093698D01*
X044288Y076414D02*
X044388Y076614D01*
X044288Y076814D01*
X044488Y076714D01*
X044688Y076814D01*
X044588Y076614D01*
X044688Y076414D01*
X044488Y076514D01*
X044288Y076414D01*
X045706Y063343D02*
X045806Y063543D01*
X045706Y063743D01*
X045906Y063643D01*
X046106Y063743D01*
X046006Y063543D01*
X046106Y063343D01*
X045906Y063443D01*
X045706Y063343D01*
X047753Y084475D02*
X047853Y084675D01*
X047753Y084875D01*
X047953Y084775D01*
X048153Y084875D01*
X048053Y084675D01*
X048153Y084475D01*
X047953Y084575D01*
X047753Y084475D01*
X048265Y083107D02*
X048365Y083307D01*
X048265Y083507D01*
X048465Y083407D01*
X048665Y083507D01*
X048565Y083307D01*
X048665Y083107D01*
X048465Y083207D01*
X048265Y083107D01*
Y082713D02*
X048365Y082913D01*
X048265Y083113D01*
X048465Y083013D01*
X048665Y083113D01*
X048565Y082913D01*
X048665Y082713D01*
X048465Y082813D01*
X048265Y082713D01*
X041257Y085981D02*
X041357Y086181D01*
X041257Y086381D01*
X041457Y086281D01*
X041657Y086381D01*
X041557Y086181D01*
X041657Y085981D01*
X041457Y086081D01*
X041257Y085981D01*
X048265Y082320D02*
X048365Y082520D01*
X048265Y082720D01*
X048465Y082620D01*
X048665Y082720D01*
X048565Y082520D01*
X048665Y082320D01*
X048465Y082420D01*
X048265Y082320D01*
X043540Y081690D02*
X043640Y081890D01*
X043540Y082090D01*
X043740Y081990D01*
X043940Y082090D01*
X043840Y081890D01*
X043940Y081690D01*
X043740Y081790D01*
X043540Y081690D01*
X055312Y068934D02*
X055412Y069134D01*
X055312Y069334D01*
X055512Y069234D01*
X055712Y069334D01*
X055612Y069134D01*
X055712Y068934D01*
X055512Y069034D01*
X055312Y068934D01*
X049209Y067005D02*
X049309Y067205D01*
X049209Y067405D01*
X049409Y067305D01*
X049609Y067405D01*
X049509Y067205D01*
X049609Y067005D01*
X049409Y067105D01*
X049209Y067005D01*
X050312D02*
X050412Y067205D01*
X050312Y067405D01*
X050512Y067305D01*
X050712Y067405D01*
X050612Y067205D01*
X050712Y067005D01*
X050512Y067105D01*
X050312Y067005D01*
X049869Y064948D02*
X049969D01*
X050069Y065048D01*
X050169Y064948D01*
X050269D01*
Y065048D01*
X050169Y065148D01*
X050269Y065248D01*
Y065348D01*
X050169D01*
X050069Y065248D01*
X049969Y065348D01*
X049869D01*
Y065248D01*
X049969Y065148D01*
X049869Y065048D01*
Y064948D01*
X049839Y065587D02*
X049939D01*
X050039Y065687D01*
X050139Y065587D01*
X050239D01*
Y065687D01*
X050139Y065787D01*
X050239Y065887D01*
Y065987D01*
X050139D01*
X050039Y065887D01*
X049939Y065987D01*
X049839D01*
Y065887D01*
X049939Y065787D01*
X049839Y065687D01*
Y065587D01*
X052074Y064948D02*
X052174D01*
X052274Y065048D01*
X052374Y064948D01*
X052474D01*
Y065048D01*
X052374Y065148D01*
X052474Y065248D01*
Y065348D01*
X052374D01*
X052274Y065248D01*
X052174Y065348D01*
X052074D01*
Y065248D01*
X052174Y065148D01*
X052074Y065048D01*
Y064948D01*
X052113Y066739D02*
X052213D01*
X052313Y066839D01*
X052413Y066739D01*
X052513D01*
Y066839D01*
X052413Y066939D01*
X052513Y067039D01*
Y067139D01*
X052413D01*
X052313Y067039D01*
X052213Y067139D01*
X052113D01*
Y067039D01*
X052213Y066939D01*
X052113Y066839D01*
Y066739D01*
X052438Y067438D02*
X052538D01*
X052638Y067538D01*
X052738Y067438D01*
X052838D01*
Y067538D01*
X052738Y067638D01*
X052838Y067738D01*
Y067838D01*
X052738D01*
X052638Y067738D01*
X052538Y067838D01*
X052438D01*
Y067738D01*
X052538Y067638D01*
X052438Y067538D01*
Y067438D01*
X052713Y066808D02*
X052813D01*
X052913Y066908D01*
X053013Y066808D01*
X053113D01*
Y066908D01*
X053013Y067008D01*
X053113Y067108D01*
Y067208D01*
X053013D01*
X052913Y067108D01*
X052813Y067208D01*
X052713D01*
Y067108D01*
X052813Y067008D01*
X052713Y066908D01*
Y066808D01*
X053304D02*
X053404D01*
X053504Y066908D01*
X053604Y066808D01*
X053704D01*
Y066908D01*
X053604Y067008D01*
X053704Y067108D01*
Y067208D01*
X053604D01*
X053504Y067108D01*
X053404Y067208D01*
X053304D01*
Y067108D01*
X053404Y067008D01*
X053304Y066908D01*
Y066808D01*
X050272Y062674D02*
X050372D01*
X050472Y062774D01*
X050572Y062674D01*
X050672D01*
Y062774D01*
X050572Y062874D01*
X050672Y062974D01*
Y063074D01*
X050572D01*
X050472Y062974D01*
X050372Y063074D01*
X050272D01*
Y062974D01*
X050372Y062874D01*
X050272Y062774D01*
Y062674D01*
X050272Y062083D02*
X050372D01*
X050472Y062183D01*
X050572Y062083D01*
X050672D01*
Y062183D01*
X050572Y062283D01*
X050672Y062383D01*
Y062483D01*
X050572D01*
X050472Y062383D01*
X050372Y062483D01*
X050272D01*
Y062383D01*
X050372Y062283D01*
X050272Y062183D01*
Y062083D01*
X049249Y061572D02*
X049349D01*
X049449Y061672D01*
X049549Y061572D01*
X049649D01*
Y061672D01*
X049549Y061772D01*
X049649Y061872D01*
Y061972D01*
X049549D01*
X049449Y061872D01*
X049349Y061972D01*
X049249D01*
Y061872D01*
X049349Y061772D01*
X049249Y061672D01*
Y061572D01*
X048619D02*
X048719D01*
X048819Y061672D01*
X048919Y061572D01*
X049019D01*
Y061672D01*
X048919Y061772D01*
X049019Y061872D01*
Y061972D01*
X048919D01*
X048819Y061872D01*
X048719Y061972D01*
X048619D01*
Y061872D01*
X048719Y061772D01*
X048619Y061672D01*
Y061572D01*
X052044Y063383D02*
X052144D01*
X052244Y063483D01*
X052344Y063383D01*
X052444D01*
Y063483D01*
X052344Y063583D01*
X052444Y063683D01*
Y063783D01*
X052344D01*
X052244Y063683D01*
X052144Y063783D01*
X052044D01*
Y063683D01*
X052144Y063583D01*
X052044Y063483D01*
Y063383D01*
Y062910D02*
X052144D01*
X052244Y063010D01*
X052344Y062910D01*
X052444D01*
Y063010D01*
X052344Y063110D01*
X052444Y063210D01*
Y063310D01*
X052344D01*
X052244Y063210D01*
X052144Y063310D01*
X052044D01*
Y063210D01*
X052144Y063110D01*
X052044Y063010D01*
Y062910D01*
X054800Y063237D02*
X054900D01*
X055000Y063337D01*
X055100Y063237D01*
X055200D01*
Y063337D01*
X055100Y063437D01*
X055200Y063537D01*
Y063637D01*
X055100D01*
X055000Y063537D01*
X054900Y063637D01*
X054800D01*
Y063537D01*
X054900Y063437D01*
X054800Y063337D01*
Y063237D01*
Y062237D02*
X054900D01*
X055000Y062337D01*
X055100Y062237D01*
X055200D01*
Y062337D01*
X055100Y062437D01*
X055200Y062537D01*
Y062637D01*
X055100D01*
X055000Y062537D01*
X054900Y062637D01*
X054800D01*
Y062537D01*
X054900Y062437D01*
X054800Y062337D01*
Y062237D01*
X056296Y062044D02*
X056396D01*
X056496Y062144D01*
X056596Y062044D01*
X056696D01*
Y062144D01*
X056596Y062244D01*
X056696Y062344D01*
Y062444D01*
X056596D01*
X056496Y062344D01*
X056396Y062444D01*
X056296D01*
Y062344D01*
X056396Y062244D01*
X056296Y062144D01*
Y062044D01*
X058265D02*
X058365D01*
X058465Y062144D01*
X058565Y062044D01*
X058665D01*
Y062144D01*
X058565Y062244D01*
X058665Y062344D01*
Y062444D01*
X058565D01*
X058465Y062344D01*
X058365Y062444D01*
X058265D01*
Y062344D01*
X058365Y062244D01*
X058265Y062144D01*
Y062044D01*
X060814Y062237D02*
X060914D01*
X061014Y062337D01*
X061114Y062237D01*
X061214D01*
Y062337D01*
X061114Y062437D01*
X061214Y062537D01*
Y062637D01*
X061114D01*
X061014Y062537D01*
X060914Y062637D01*
X060814D01*
Y062537D01*
X060914Y062437D01*
X060814Y062337D01*
Y062237D01*
X059288Y062044D02*
X059388D01*
X059488Y062144D01*
X059588Y062044D01*
X059688D01*
Y062144D01*
X059588Y062244D01*
X059688Y062344D01*
Y062444D01*
X059588D01*
X059488Y062344D01*
X059388Y062444D01*
X059288D01*
Y062344D01*
X059388Y062244D01*
X059288Y062144D01*
Y062044D01*
X047989Y065863D02*
X048089D01*
X048189Y065963D01*
X048289Y065863D01*
X048389D01*
Y065963D01*
X048289Y066063D01*
X048389Y066163D01*
Y066263D01*
X048289D01*
X048189Y066163D01*
X048089Y066263D01*
X047989D01*
Y066163D01*
X048089Y066063D01*
X047989Y065963D01*
Y065863D01*
X046493Y066375D02*
X046593D01*
X046693Y066475D01*
X046793Y066375D01*
X046893D01*
Y066475D01*
X046793Y066575D01*
X046893Y066675D01*
Y066775D01*
X046793D01*
X046693Y066675D01*
X046593Y066775D01*
X046493D01*
Y066675D01*
X046593Y066575D01*
X046493Y066475D01*
Y066375D01*
X047595Y068737D02*
X047695D01*
X047795Y068837D01*
X047895Y068737D01*
X047995D01*
Y068837D01*
X047895Y068937D01*
X047995Y069037D01*
Y069137D01*
X047895D01*
X047795Y069037D01*
X047695Y069137D01*
X047595D01*
Y069037D01*
X047695Y068937D01*
X047595Y068837D01*
Y068737D01*
X048304Y067635D02*
X048404D01*
X048504Y067735D01*
X048604Y067635D01*
X048704D01*
Y067735D01*
X048604Y067835D01*
X048704Y067935D01*
Y068035D01*
X048604D01*
X048504Y067935D01*
X048404Y068035D01*
X048304D01*
Y067935D01*
X048404Y067835D01*
X048304Y067735D01*
Y067635D01*
X061965Y063698D02*
X062065D01*
X062165Y063798D01*
X062265Y063698D01*
X062365D01*
Y063798D01*
X062265Y063898D01*
X062365Y063998D01*
Y064098D01*
X062265D01*
X062165Y063998D01*
X062065Y064098D01*
X061965D01*
Y063998D01*
X062065Y063898D01*
X061965Y063798D01*
Y063698D01*
X055391Y094249D02*
X055491D01*
X055591Y094349D01*
X055691Y094249D01*
X055791D01*
Y094349D01*
X055691Y094449D01*
X055791Y094549D01*
Y094649D01*
X055691D01*
X055591Y094549D01*
X055491Y094649D01*
X055391D01*
Y094549D01*
X055491Y094449D01*
X055391Y094349D01*
Y094249D01*
X054800D02*
X054900D01*
X055000Y094349D01*
X055100Y094249D01*
X055200D01*
Y094349D01*
X055100Y094449D01*
X055200Y094549D01*
Y094649D01*
X055100D01*
X055000Y094549D01*
X054900Y094649D01*
X054800D01*
Y094549D01*
X054900Y094449D01*
X054800Y094349D01*
Y094249D01*
X061690Y092910D02*
X061790D01*
X061890Y093010D01*
X061990Y092910D01*
X062090D01*
Y093010D01*
X061990Y093110D01*
X062090Y093210D01*
Y093310D01*
X061990D01*
X061890Y093210D01*
X061790Y093310D01*
X061690D01*
Y093210D01*
X061790Y093110D01*
X061690Y093010D01*
Y092910D01*
X063324Y092339D02*
X063424D01*
X063524Y092439D01*
X063624Y092339D01*
X063724D01*
Y092439D01*
X063624Y092539D01*
X063724Y092639D01*
Y092739D01*
X063624D01*
X063524Y092639D01*
X063424Y092739D01*
X063324D01*
Y092639D01*
X063424Y092539D01*
X063324Y092439D01*
Y092339D01*
X061611Y090865D02*
X061711D01*
X061811Y090965D01*
X061911Y090865D01*
X062011D01*
Y090965D01*
X061911Y091065D01*
X062011Y091165D01*
Y091265D01*
X061911D01*
X061811Y091165D01*
X061711Y091265D01*
X061611D01*
Y091165D01*
X061711Y091065D01*
X061611Y090965D01*
Y090865D01*
X054131Y089131D02*
X054231D01*
X054331Y089231D01*
X054431Y089131D01*
X054531D01*
Y089231D01*
X054431Y089331D01*
X054531Y089431D01*
Y089531D01*
X054431D01*
X054331Y089431D01*
X054231Y089531D01*
X054131D01*
Y089431D01*
X054231Y089331D01*
X054131Y089231D01*
Y089131D01*
X070351Y092359D02*
X070451D01*
X070551Y092459D01*
X070651Y092359D01*
X070751D01*
Y092459D01*
X070651Y092559D01*
X070751Y092659D01*
Y092759D01*
X070651D01*
X070551Y092659D01*
X070451Y092759D01*
X070351D01*
Y092659D01*
X070451Y092559D01*
X070351Y092459D01*
Y092359D01*
X040587Y079879D02*
X040687D01*
X040787Y079979D01*
X040887Y079879D01*
X040987D01*
Y079979D01*
X040887Y080079D01*
X040987Y080179D01*
Y080279D01*
X040887D01*
X040787Y080179D01*
X040687Y080279D01*
X040587D01*
Y080179D01*
X040687Y080079D01*
X040587Y079979D01*
Y079879D01*
X047832Y080824D02*
X047931D01*
X048032Y080924D01*
X048131Y080824D01*
X048232D01*
Y080924D01*
X048131Y081024D01*
X048232Y081124D01*
Y081224D01*
X048131D01*
X048032Y081124D01*
X047931Y081224D01*
X047832D01*
Y081124D01*
X047931Y081024D01*
X047832Y080924D01*
Y080824D01*
X047792Y080036D02*
X047892D01*
X047992Y080136D01*
X048092Y080036D01*
X048192D01*
Y080136D01*
X048092Y080236D01*
X048192Y080336D01*
Y080436D01*
X048092D01*
X047992Y080336D01*
X047892Y080436D01*
X047792D01*
Y080336D01*
X047892Y080236D01*
X047792Y080136D01*
Y080036D01*
X044446Y078068D02*
X044546D01*
X044646Y078168D01*
X044746Y078068D01*
X044846D01*
Y078168D01*
X044746Y078268D01*
X044846Y078368D01*
Y078468D01*
X044746D01*
X044646Y078368D01*
X044546Y078468D01*
X044446D01*
Y078368D01*
X044546Y078268D01*
X044446Y078168D01*
Y078068D01*
X046178Y077713D02*
X046278D01*
X046378Y077813D01*
X046478Y077713D01*
X046578D01*
Y077813D01*
X046478Y077913D01*
X046578Y078013D01*
Y078113D01*
X046478D01*
X046378Y078013D01*
X046278Y078113D01*
X046178D01*
Y078013D01*
X046278Y077913D01*
X046178Y077813D01*
Y077713D01*
X058068Y071926D02*
X058168Y072126D01*
X058068Y072326D01*
X058268Y072226D01*
X058468Y072326D01*
X058368Y072126D01*
X058468Y071926D01*
X058268Y072026D01*
X058068Y071926D01*
Y071099D02*
X058168Y071299D01*
X058068Y071499D01*
X058268Y071399D01*
X058468Y071499D01*
X058368Y071299D01*
X058468Y071099D01*
X058268Y071199D01*
X058068Y071099D01*
X058343D02*
X058443Y071299D01*
X058343Y071499D01*
X058543Y071399D01*
X058743Y071499D01*
X058643Y071299D01*
X058743Y071099D01*
X058543Y071199D01*
X058343Y071099D01*
X058619D02*
X058719Y071299D01*
X058619Y071499D01*
X058819Y071399D01*
X059019Y071499D01*
X058919Y071299D01*
X059019Y071099D01*
X058819Y071199D01*
X058619Y071099D01*
X058894D02*
X058994Y071299D01*
X058894Y071499D01*
X059094Y071399D01*
X059294Y071499D01*
X059194Y071299D01*
X059294Y071099D01*
X059094Y071199D01*
X058894Y071099D01*
X057792D02*
X057892Y071299D01*
X057792Y071499D01*
X057992Y071399D01*
X058192Y071499D01*
X058092Y071299D01*
X058192Y071099D01*
X057992Y071199D01*
X057792Y071099D01*
X057517D02*
X057617Y071299D01*
X057517Y071499D01*
X057717Y071399D01*
X057917Y071499D01*
X057817Y071299D01*
X057917Y071099D01*
X057717Y071199D01*
X057517Y071099D01*
X057241D02*
X057341Y071299D01*
X057241Y071499D01*
X057441Y071399D01*
X057641Y071499D01*
X057541Y071299D01*
X057641Y071099D01*
X057441Y071199D01*
X057241Y071099D01*
X058068Y071375D02*
X058168Y071575D01*
X058068Y071775D01*
X058268Y071675D01*
X058468Y071775D01*
X058368Y071575D01*
X058468Y071375D01*
X058268Y071475D01*
X058068Y071375D01*
X058343D02*
X058443Y071575D01*
X058343Y071775D01*
X058543Y071675D01*
X058743Y071775D01*
X058643Y071575D01*
X058743Y071375D01*
X058543Y071475D01*
X058343Y071375D01*
X058619D02*
X058719Y071575D01*
X058619Y071775D01*
X058819Y071675D01*
X059019Y071775D01*
X058919Y071575D01*
X059019Y071375D01*
X058819Y071475D01*
X058619Y071375D01*
X058894D02*
X058994Y071575D01*
X058894Y071775D01*
X059094Y071675D01*
X059294Y071775D01*
X059194Y071575D01*
X059294Y071375D01*
X059094Y071475D01*
X058894Y071375D01*
X057792D02*
X057892Y071575D01*
X057792Y071775D01*
X057992Y071675D01*
X058192Y071775D01*
X058092Y071575D01*
X058192Y071375D01*
X057992Y071475D01*
X057792Y071375D01*
X057517D02*
X057617Y071575D01*
X057517Y071775D01*
X057717Y071675D01*
X057917Y071775D01*
X057817Y071575D01*
X057917Y071375D01*
X057717Y071475D01*
X057517Y071375D01*
X057241D02*
X057341Y071575D01*
X057241Y071775D01*
X057441Y071675D01*
X057641Y071775D01*
X057541Y071575D01*
X057641Y071375D01*
X057441Y071475D01*
X057241Y071375D01*
X058068Y071650D02*
X058168Y071850D01*
X058068Y072050D01*
X058268Y071950D01*
X058468Y072050D01*
X058368Y071850D01*
X058468Y071650D01*
X058268Y071750D01*
X058068Y071650D01*
X058343D02*
X058443Y071850D01*
X058343Y072050D01*
X058543Y071950D01*
X058743Y072050D01*
X058643Y071850D01*
X058743Y071650D01*
X058543Y071750D01*
X058343Y071650D01*
X058619D02*
X058719Y071850D01*
X058619Y072050D01*
X058819Y071950D01*
X059019Y072050D01*
X058919Y071850D01*
X059019Y071650D01*
X058819Y071750D01*
X058619Y071650D01*
X058894D02*
X058994Y071850D01*
X058894Y072050D01*
X059094Y071950D01*
X059294Y072050D01*
X059194Y071850D01*
X059294Y071650D01*
X059094Y071750D01*
X058894Y071650D01*
X057792D02*
X057892Y071850D01*
X057792Y072050D01*
X057992Y071950D01*
X058192Y072050D01*
X058092Y071850D01*
X058192Y071650D01*
X057992Y071750D01*
X057792Y071650D01*
X057517D02*
X057617Y071850D01*
X057517Y072050D01*
X057717Y071950D01*
X057917Y072050D01*
X057817Y071850D01*
X057917Y071650D01*
X057717Y071750D01*
X057517Y071650D01*
X057241D02*
X057341Y071850D01*
X057241Y072050D01*
X057441Y071950D01*
X057641Y072050D01*
X057541Y071850D01*
X057641Y071650D01*
X057441Y071750D01*
X057241Y071650D01*
X058068Y072477D02*
X058168Y072677D01*
X058068Y072877D01*
X058268Y072777D01*
X058468Y072877D01*
X058368Y072677D01*
X058468Y072477D01*
X058268Y072577D01*
X058068Y072477D01*
X058343D02*
X058443Y072677D01*
X058343Y072877D01*
X058543Y072777D01*
X058743Y072877D01*
X058643Y072677D01*
X058743Y072477D01*
X058543Y072577D01*
X058343Y072477D01*
X058619D02*
X058719Y072677D01*
X058619Y072877D01*
X058819Y072777D01*
X059019Y072877D01*
X058919Y072677D01*
X059019Y072477D01*
X058819Y072577D01*
X058619Y072477D01*
X058894D02*
X058994Y072677D01*
X058894Y072877D01*
X059094Y072777D01*
X059294Y072877D01*
X059194Y072677D01*
X059294Y072477D01*
X059094Y072577D01*
X058894Y072477D01*
X057792D02*
X057892Y072677D01*
X057792Y072877D01*
X057992Y072777D01*
X058192Y072877D01*
X058092Y072677D01*
X058192Y072477D01*
X057992Y072577D01*
X057792Y072477D01*
X057517D02*
X057617Y072677D01*
X057517Y072877D01*
X057717Y072777D01*
X057917Y072877D01*
X057817Y072677D01*
X057917Y072477D01*
X057717Y072577D01*
X057517Y072477D01*
X057241D02*
X057341Y072677D01*
X057241Y072877D01*
X057441Y072777D01*
X057641Y072877D01*
X057541Y072677D01*
X057641Y072477D01*
X057441Y072577D01*
X057241Y072477D01*
X058068Y072202D02*
X058168Y072402D01*
X058068Y072602D01*
X058268Y072502D01*
X058468Y072602D01*
X058368Y072402D01*
X058468Y072202D01*
X058268Y072302D01*
X058068Y072202D01*
X058343D02*
X058443Y072402D01*
X058343Y072602D01*
X058543Y072502D01*
X058743Y072602D01*
X058643Y072402D01*
X058743Y072202D01*
X058543Y072302D01*
X058343Y072202D01*
X058619D02*
X058719Y072402D01*
X058619Y072602D01*
X058819Y072502D01*
X059019Y072602D01*
X058919Y072402D01*
X059019Y072202D01*
X058819Y072302D01*
X058619Y072202D01*
X058894D02*
X058994Y072402D01*
X058894Y072602D01*
X059094Y072502D01*
X059294Y072602D01*
X059194Y072402D01*
X059294Y072202D01*
X059094Y072302D01*
X058894Y072202D01*
X057792D02*
X057892Y072402D01*
X057792Y072602D01*
X057992Y072502D01*
X058192Y072602D01*
X058092Y072402D01*
X058192Y072202D01*
X057992Y072302D01*
X057792Y072202D01*
X057517D02*
X057617Y072402D01*
X057517Y072602D01*
X057717Y072502D01*
X057917Y072602D01*
X057817Y072402D01*
X057917Y072202D01*
X057717Y072302D01*
X057517Y072202D01*
X057241D02*
X057341Y072402D01*
X057241Y072602D01*
X057441Y072502D01*
X057641Y072602D01*
X057541Y072402D01*
X057641Y072202D01*
X057441Y072302D01*
X057241Y072202D01*
Y071926D02*
X057341Y072126D01*
X057241Y072326D01*
X057441Y072226D01*
X057641Y072326D01*
X057541Y072126D01*
X057641Y071926D01*
X057441Y072026D01*
X057241Y071926D01*
X057517D02*
X057617Y072126D01*
X057517Y072326D01*
X057717Y072226D01*
X057917Y072326D01*
X057817Y072126D01*
X057917Y071926D01*
X057717Y072026D01*
X057517Y071926D01*
X057792D02*
X057892Y072126D01*
X057792Y072326D01*
X057992Y072226D01*
X058192Y072326D01*
X058092Y072126D01*
X058192Y071926D01*
X057992Y072026D01*
X057792Y071926D01*
X058894D02*
X058994Y072126D01*
X058894Y072326D01*
X059094Y072226D01*
X059294Y072326D01*
X059194Y072126D01*
X059294Y071926D01*
X059094Y072026D01*
X058894Y071926D01*
X058619D02*
X058719Y072126D01*
X058619Y072326D01*
X058819Y072226D01*
X059019Y072326D01*
X058919Y072126D01*
X059019Y071926D01*
X058819Y072026D01*
X058619Y071926D01*
X058343D02*
X058443Y072126D01*
X058343Y072326D01*
X058543Y072226D01*
X058743Y072326D01*
X058643Y072126D01*
X058743Y071926D01*
X058543Y072026D01*
X058343Y071926D01*
X057241Y072753D02*
X057341Y072953D01*
X057241Y073153D01*
X057441Y073053D01*
X057641Y073153D01*
X057541Y072953D01*
X057641Y072753D01*
X057441Y072853D01*
X057241Y072753D01*
X057517D02*
X057617Y072953D01*
X057517Y073153D01*
X057717Y073053D01*
X057917Y073153D01*
X057817Y072953D01*
X057917Y072753D01*
X057717Y072853D01*
X057517Y072753D01*
X057792D02*
X057892Y072953D01*
X057792Y073153D01*
X057992Y073053D01*
X058192Y073153D01*
X058092Y072953D01*
X058192Y072753D01*
X057992Y072853D01*
X057792Y072753D01*
X058894D02*
X058994Y072953D01*
X058894Y073153D01*
X059094Y073053D01*
X059294Y073153D01*
X059194Y072953D01*
X059294Y072753D01*
X059094Y072853D01*
X058894Y072753D01*
X058619D02*
X058719Y072953D01*
X058619Y073153D01*
X058819Y073053D01*
X059019Y073153D01*
X058919Y072953D01*
X059019Y072753D01*
X058819Y072853D01*
X058619Y072753D01*
X058343D02*
X058443Y072953D01*
X058343Y073153D01*
X058543Y073053D01*
X058743Y073153D01*
X058643Y072953D01*
X058743Y072753D01*
X058543Y072853D01*
X058343Y072753D01*
X058068D02*
X058168Y072953D01*
X058068Y073153D01*
X058268Y073053D01*
X058468Y073153D01*
X058368Y072953D01*
X058468Y072753D01*
X058268Y072853D01*
X058068Y072753D01*
X060902Y074564D02*
X061002D01*
X061102Y074664D01*
X061202Y074564D01*
X061302D01*
Y074664D01*
X061202Y074764D01*
X061302Y074864D01*
Y074964D01*
X061202D01*
X061102Y074864D01*
X061002Y074964D01*
X060902D01*
Y074864D01*
X061002Y074764D01*
X060902Y074664D01*
Y074564D01*
X059288Y074997D02*
X059388D01*
X059488Y075097D01*
X059588Y074997D01*
X059688D01*
Y075097D01*
X059588Y075197D01*
X059688Y075297D01*
Y075397D01*
X059588D01*
X059488Y075297D01*
X059388Y075397D01*
X059288D01*
Y075297D01*
X059388Y075197D01*
X059288Y075097D01*
Y074997D01*
X056217Y074564D02*
X056317D01*
X056417Y074664D01*
X056517Y074564D01*
X056617D01*
Y074664D01*
X056517Y074764D01*
X056617Y074864D01*
Y074964D01*
X056517D01*
X056417Y074864D01*
X056317Y074964D01*
X056217D01*
Y074864D01*
X056317Y074764D01*
X056217Y074664D01*
Y074564D01*
X055824Y075312D02*
X055924D01*
X056024Y075412D01*
X056124Y075312D01*
X056224D01*
Y075412D01*
X056124Y075512D01*
X056224Y075612D01*
Y075712D01*
X056124D01*
X056024Y075612D01*
X055924Y075712D01*
X055824D01*
Y075612D01*
X055924Y075512D01*
X055824Y075412D01*
Y075312D01*
X059209Y076375D02*
X059309D01*
X059409Y076475D01*
X059509Y076375D01*
X059609D01*
Y076475D01*
X059509Y076575D01*
X059609Y076675D01*
Y076775D01*
X059509D01*
X059409Y076675D01*
X059309Y076775D01*
X059209D01*
Y076675D01*
X059309Y076575D01*
X059209Y076475D01*
Y076375D01*
X062005Y075312D02*
X062105D01*
X062205Y075412D01*
X062305Y075312D01*
X062405D01*
Y075412D01*
X062305Y075512D01*
X062405Y075612D01*
Y075712D01*
X062305D01*
X062205Y075612D01*
X062105Y075712D01*
X062005D01*
Y075612D01*
X062105Y075512D01*
X062005Y075412D01*
Y075312D01*
X053619Y073501D02*
X053719D01*
X053819Y073601D01*
X053919Y073501D01*
X054019D01*
Y073601D01*
X053919Y073701D01*
X054019Y073801D01*
Y073901D01*
X053919D01*
X053819Y073801D01*
X053719Y073901D01*
X053619D01*
Y073801D01*
X053719Y073701D01*
X053619Y073601D01*
Y073501D01*
X054131Y073894D02*
X054231D01*
X054331Y073994D01*
X054431Y073894D01*
X054531D01*
Y073994D01*
X054431Y074094D01*
X054531Y074194D01*
Y074294D01*
X054431D01*
X054331Y074194D01*
X054231Y074294D01*
X054131D01*
Y074194D01*
X054231Y074094D01*
X054131Y073994D01*
Y073894D01*
X054682D02*
X054782D01*
X054882Y073994D01*
X054982Y073894D01*
X055082D01*
Y073994D01*
X054982Y074094D01*
X055082Y074194D01*
Y074294D01*
X054982D01*
X054882Y074194D01*
X054782Y074294D01*
X054682D01*
Y074194D01*
X054782Y074094D01*
X054682Y073994D01*
Y073894D01*
X058068Y069603D02*
X058168D01*
X058268Y069703D01*
X058368Y069603D01*
X058468D01*
Y069703D01*
X058368Y069803D01*
X058468Y069903D01*
Y070003D01*
X058368D01*
X058268Y069903D01*
X058168Y070003D01*
X058068D01*
Y069903D01*
X058168Y069803D01*
X058068Y069703D01*
Y069603D01*
X058737D02*
X058837D01*
X058937Y069703D01*
X059037Y069603D01*
X059137D01*
Y069703D01*
X059037Y069803D01*
X059137Y069903D01*
Y070003D01*
X059037D01*
X058937Y069903D01*
X058837Y070003D01*
X058737D01*
Y069903D01*
X058837Y069803D01*
X058737Y069703D01*
Y069603D01*
X055824Y071139D02*
X055924D01*
X056024Y071239D01*
X056124Y071139D01*
X056224D01*
Y071239D01*
X056124Y071339D01*
X056224Y071439D01*
Y071539D01*
X056124D01*
X056024Y071439D01*
X055924Y071539D01*
X055824D01*
Y071439D01*
X055924Y071339D01*
X055824Y071239D01*
Y071139D01*
X060351D02*
X060451D01*
X060551Y071239D01*
X060651Y071139D01*
X060751D01*
Y071239D01*
X060651Y071339D01*
X060751Y071439D01*
Y071539D01*
X060651D01*
X060551Y071439D01*
X060451Y071539D01*
X060351D01*
Y071439D01*
X060451Y071339D01*
X060351Y071239D01*
Y071139D01*
Y072635D02*
X060451D01*
X060551Y072735D01*
X060651Y072635D01*
X060751D01*
Y072735D01*
X060651Y072835D01*
X060751Y072935D01*
Y073035D01*
X060651D01*
X060551Y072935D01*
X060451Y073035D01*
X060351D01*
Y072935D01*
X060451Y072835D01*
X060351Y072735D01*
Y072635D01*
X055824D02*
X055924D01*
X056024Y072735D01*
X056124Y072635D01*
X056224D01*
Y072735D01*
X056124Y072835D01*
X056224Y072935D01*
Y073035D01*
X056124D01*
X056024Y072935D01*
X055924Y073035D01*
X055824D01*
Y072935D01*
X055924Y072835D01*
X055824Y072735D01*
Y072635D01*
X052832Y070430D02*
X052931D01*
X053032Y070530D01*
X053131Y070430D01*
X053232D01*
Y070530D01*
X053131Y070630D01*
X053232Y070730D01*
Y070830D01*
X053131D01*
X053032Y070730D01*
X052931Y070830D01*
X052832D01*
Y070730D01*
X052931Y070630D01*
X052832Y070530D01*
Y070430D01*
Y071099D02*
X052931D01*
X053032Y071199D01*
X053131Y071099D01*
X053232D01*
Y071199D01*
X053131Y071299D01*
X053232Y071399D01*
Y071499D01*
X053131D01*
X053032Y071399D01*
X052931Y071499D01*
X052832D01*
Y071399D01*
X052931Y071299D01*
X052832Y071199D01*
Y071099D01*
X056729Y069800D02*
X056829D01*
X056929Y069900D01*
X057029Y069800D01*
X057129D01*
Y069900D01*
X057029Y070000D01*
X057129Y070100D01*
Y070200D01*
X057029D01*
X056929Y070100D01*
X056829Y070200D01*
X056729D01*
Y070100D01*
X056829Y070000D01*
X056729Y069900D01*
Y069800D01*
X056217Y069367D02*
X056317D01*
X056417Y069467D01*
X056517Y069367D01*
X056617D01*
Y069467D01*
X056517Y069567D01*
X056617Y069667D01*
Y069767D01*
X056517D01*
X056417Y069667D01*
X056317Y069767D01*
X056217D01*
Y069667D01*
X056317Y069567D01*
X056217Y069467D01*
Y069367D01*
X056296Y066729D02*
X056396D01*
X056496Y066829D01*
X056596Y066729D01*
X056696D01*
Y066829D01*
X056596Y066929D01*
X056696Y067029D01*
Y067129D01*
X056596D01*
X056496Y067029D01*
X056396Y067129D01*
X056296D01*
Y067029D01*
X056396Y066929D01*
X056296Y066829D01*
Y066729D01*
X057280D02*
X057380D01*
X057480Y066829D01*
X057580Y066729D01*
X057680D01*
Y066829D01*
X057580Y066929D01*
X057680Y067029D01*
Y067129D01*
X057580D01*
X057480Y067029D01*
X057380Y067129D01*
X057280D01*
Y067029D01*
X057380Y066929D01*
X057280Y066829D01*
Y066729D01*
X058304D02*
X058404D01*
X058504Y066829D01*
X058604Y066729D01*
X058704D01*
Y066829D01*
X058604Y066929D01*
X058704Y067029D01*
Y067129D01*
X058604D01*
X058504Y067029D01*
X058404Y067129D01*
X058304D01*
Y067029D01*
X058404Y066929D01*
X058304Y066829D01*
Y066729D01*
X059288D02*
X059388D01*
X059488Y066829D01*
X059588Y066729D01*
X059688D01*
Y066829D01*
X059588Y066929D01*
X059688Y067029D01*
Y067129D01*
X059588D01*
X059488Y067029D01*
X059388Y067129D01*
X059288D01*
Y067029D01*
X059388Y066929D01*
X059288Y066829D01*
Y066729D01*
X059524Y065194D02*
X059624D01*
X059724Y065294D01*
X059824Y065194D01*
X059924D01*
Y065294D01*
X059824Y065394D01*
X059924Y065494D01*
Y065594D01*
X059824D01*
X059724Y065494D01*
X059624Y065594D01*
X059524D01*
Y065494D01*
X059624Y065394D01*
X059524Y065294D01*
Y065194D01*
X056139Y065233D02*
X056239D01*
X056339Y065333D01*
X056439Y065233D01*
X056539D01*
Y065333D01*
X056439Y065433D01*
X056539Y065533D01*
Y065633D01*
X056439D01*
X056339Y065533D01*
X056239Y065633D01*
X056139D01*
Y065533D01*
X056239Y065433D01*
X056139Y065333D01*
Y065233D01*
X059524Y064249D02*
X059624D01*
X059724Y064349D01*
X059824Y064249D01*
X059924D01*
Y064349D01*
X059824Y064449D01*
X059924Y064549D01*
Y064649D01*
X059824D01*
X059724Y064549D01*
X059624Y064649D01*
X059524D01*
Y064549D01*
X059624Y064449D01*
X059524Y064349D01*
Y064249D01*
X049918Y069524D02*
X050018D01*
X050118Y069624D01*
X050218Y069524D01*
X050318D01*
Y069624D01*
X050218Y069724D01*
X050318Y069824D01*
Y069924D01*
X050218D01*
X050118Y069824D01*
X050018Y069924D01*
X049918D01*
Y069824D01*
X050018Y069724D01*
X049918Y069624D01*
Y069524D01*
X050942Y068186D02*
X051042D01*
X051142Y068286D01*
X051242Y068186D01*
X051342D01*
Y068286D01*
X051242Y068386D01*
X051342Y068486D01*
Y068586D01*
X051242D01*
X051142Y068486D01*
X051042Y068586D01*
X050942D01*
Y068486D01*
X051042Y068386D01*
X050942Y068286D01*
Y068186D01*
X058107Y065154D02*
X058207D01*
X058307Y065254D01*
X058407Y065154D01*
X058507D01*
Y065254D01*
X058407Y065354D01*
X058507Y065454D01*
Y065554D01*
X058407D01*
X058307Y065454D01*
X058207Y065554D01*
X058107D01*
Y065454D01*
X058207Y065354D01*
X058107Y065254D01*
Y065154D01*
X057799Y064846D02*
X057899D01*
X057999Y064946D01*
X058099Y064846D01*
X058199D01*
Y064946D01*
X058099Y065046D01*
X058199Y065146D01*
Y065246D01*
X058099D01*
X057999Y065146D01*
X057899Y065246D01*
X057799D01*
Y065146D01*
X057899Y065046D01*
X057799Y064946D01*
Y064846D01*
X057477Y064524D02*
X057577D01*
X057677Y064624D01*
X057777Y064524D01*
X057877D01*
Y064624D01*
X057777Y064724D01*
X057877Y064824D01*
Y064924D01*
X057777D01*
X057677Y064824D01*
X057577Y064924D01*
X057477D01*
Y064824D01*
X057577Y064724D01*
X057477Y064624D01*
Y064524D01*
X065627Y067083D02*
X065727D01*
X065827Y067183D01*
X065927Y067083D01*
X066027D01*
Y067183D01*
X065927Y067283D01*
X066027Y067383D01*
Y067483D01*
X065927D01*
X065827Y067383D01*
X065727Y067483D01*
X065627D01*
Y067383D01*
X065727Y067283D01*
X065627Y067183D01*
Y067083D01*
X065281Y066737D02*
X065381D01*
X065481Y066837D01*
X065581Y066737D01*
X065681D01*
Y066837D01*
X065581Y066937D01*
X065681Y067037D01*
Y067137D01*
X065581D01*
X065481Y067037D01*
X065381Y067137D01*
X065281D01*
Y067037D01*
X065381Y066937D01*
X065281Y066837D01*
Y066737D01*
X064946Y066403D02*
X065046D01*
X065146Y066503D01*
X065246Y066403D01*
X065346D01*
Y066503D01*
X065246Y066603D01*
X065346Y066703D01*
Y066803D01*
X065246D01*
X065146Y066703D01*
X065046Y066803D01*
X064946D01*
Y066703D01*
X065046Y066603D01*
X064946Y066503D01*
Y066403D01*
X068381Y067711D02*
X068481D01*
X068581Y067811D01*
X068681Y067711D01*
X068781D01*
Y067811D01*
X068681Y067911D01*
X068781Y068011D01*
Y068111D01*
X068681D01*
X068581Y068011D01*
X068481Y068111D01*
X068381D01*
Y068011D01*
X068481Y067911D01*
X068381Y067811D01*
Y067711D01*
X050272Y061493D02*
X050372D01*
X050472Y061593D01*
X050572Y061493D01*
X050672D01*
Y061593D01*
X050572Y061693D01*
X050672Y061793D01*
Y061893D01*
X050572D01*
X050472Y061793D01*
X050372Y061893D01*
X050272D01*
Y061793D01*
X050372Y061693D01*
X050272Y061593D01*
Y061493D01*
X070706Y082359D02*
X070806Y082559D01*
X070706Y082759D01*
X070906Y082659D01*
X071106Y082759D01*
X071006Y082559D01*
X071106Y082359D01*
X070906Y082459D01*
X070706Y082359D01*
X070863Y073501D02*
X070963D01*
X071063Y073601D01*
X071163Y073501D01*
X071263D01*
Y073601D01*
X071163Y073701D01*
X071263Y073801D01*
Y073901D01*
X071163D01*
X071063Y073801D01*
X070963Y073901D01*
X070863D01*
Y073801D01*
X070963Y073701D01*
X070863Y073601D01*
Y073501D01*
Y073934D02*
X070963D01*
X071063Y074034D01*
X071163Y073934D01*
X071263D01*
Y074034D01*
X071163Y074134D01*
X071263Y074234D01*
Y074334D01*
X071163D01*
X071063Y074234D01*
X070963Y074334D01*
X070863D01*
Y074234D01*
X070963Y074134D01*
X070863Y074034D01*
Y073934D01*
X070863Y074328D02*
X070963D01*
X071063Y074428D01*
X071163Y074328D01*
X071263D01*
Y074428D01*
X071163Y074528D01*
X071263Y074628D01*
Y074728D01*
X071163D01*
X071063Y074628D01*
X070963Y074728D01*
X070863D01*
Y074628D01*
X070963Y074528D01*
X070863Y074428D01*
Y074328D01*
X066808Y079406D02*
X066908D01*
X067008Y079506D01*
X067108Y079406D01*
X067208D01*
Y079506D01*
X067108Y079606D01*
X067208Y079706D01*
Y079806D01*
X067108D01*
X067008Y079706D01*
X066908Y079806D01*
X066808D01*
Y079706D01*
X066908Y079606D01*
X066808Y079506D01*
Y079406D01*
X067753Y079209D02*
X067853D01*
X067953Y079309D01*
X068053Y079209D01*
X068153D01*
Y079309D01*
X068053Y079409D01*
X068153Y079509D01*
Y079609D01*
X068053D01*
X067953Y079509D01*
X067853Y079609D01*
X067753D01*
Y079509D01*
X067853Y079409D01*
X067753Y079309D01*
Y079209D01*
X047792Y079564D02*
X047892D01*
X047992Y079664D01*
X048092Y079564D01*
X048192D01*
Y079664D01*
X048092Y079764D01*
X048192Y079864D01*
Y079964D01*
X048092D01*
X047992Y079864D01*
X047892Y079964D01*
X047792D01*
Y079864D01*
X047892Y079764D01*
X047792Y079664D01*
Y079564D01*
X049446Y078580D02*
X049546D01*
X049646Y078680D01*
X049746Y078580D01*
X049846D01*
Y078680D01*
X049746Y078780D01*
X049846Y078880D01*
Y078980D01*
X049746D01*
X049646Y078880D01*
X049546Y078980D01*
X049446D01*
Y078880D01*
X049546Y078780D01*
X049446Y078680D01*
Y078580D01*
X048855Y077202D02*
X048955D01*
X049055Y077302D01*
X049155Y077202D01*
X049255D01*
Y077302D01*
X049155Y077402D01*
X049255Y077502D01*
Y077602D01*
X049155D01*
X049055Y077502D01*
X048955Y077602D01*
X048855D01*
Y077502D01*
X048955Y077402D01*
X048855Y077302D01*
Y077202D01*
X043737Y082398D02*
X043837Y082598D01*
X043737Y082798D01*
X043937Y082698D01*
X044137Y082798D01*
X044037Y082598D01*
X044137Y082398D01*
X043937Y082498D01*
X043737Y082398D01*
X043737Y082044D02*
X043837Y082244D01*
X043737Y082444D01*
X043937Y082344D01*
X044137Y082444D01*
X044037Y082244D01*
X044137Y082044D01*
X043937Y082144D01*
X043737Y082044D01*
X047950Y073580D02*
X048050Y073780D01*
X047950Y073980D01*
X048150Y073880D01*
X048350Y073980D01*
X048250Y073780D01*
X048350Y073580D01*
X048150Y073680D01*
X047950Y073580D01*
X047674Y074249D02*
X047774Y074449D01*
X047674Y074649D01*
X047874Y074549D01*
X048074Y074649D01*
X047974Y074449D01*
X048074Y074249D01*
X047874Y074349D01*
X047674Y074249D01*
X046965Y076808D02*
X047065D01*
X047165Y076908D01*
X047265Y076808D01*
X047365D01*
Y076908D01*
X047265Y077008D01*
X047365Y077108D01*
Y077208D01*
X047265D01*
X047165Y077108D01*
X047065Y077208D01*
X046965D01*
Y077108D01*
X047065Y077008D01*
X046965Y076908D01*
Y076808D01*
X057950Y075981D02*
X058050Y076181D01*
X057950Y076381D01*
X058150Y076281D01*
X058350Y076381D01*
X058250Y076181D01*
X058350Y075981D01*
X058150Y076081D01*
X057950Y075981D01*
X056887Y076572D02*
X056987Y076772D01*
X056887Y076972D01*
X057087Y076872D01*
X057287Y076972D01*
X057187Y076772D01*
X057287Y076572D01*
X057087Y076672D01*
X056887Y076572D01*
X045430Y074564D02*
X045530Y074764D01*
X045430Y074964D01*
X045630Y074864D01*
X045830Y074964D01*
X045730Y074764D01*
X045830Y074564D01*
X045630Y074664D01*
X045430Y074564D01*
X045036D02*
X045136Y074764D01*
X045036Y074964D01*
X045236Y074864D01*
X045436Y074964D01*
X045336Y074764D01*
X045436Y074564D01*
X045236Y074664D01*
X045036Y074564D01*
X044761Y074170D02*
X044861Y074370D01*
X044761Y074570D01*
X044961Y074470D01*
X045161Y074570D01*
X045061Y074370D01*
X045161Y074170D01*
X044961Y074270D01*
X044761Y074170D01*
X041099Y083107D02*
X041199D01*
X041299Y083207D01*
X041399Y083107D01*
X041499D01*
Y083207D01*
X041399Y083307D01*
X041499Y083407D01*
Y083507D01*
X041399D01*
X041299Y083407D01*
X041199Y083507D01*
X041099D01*
Y083407D01*
X041199Y083307D01*
X041099Y083207D01*
Y083107D01*
X047792Y067398D02*
X047892D01*
X047992Y067498D01*
X048092Y067398D01*
X048192D01*
Y067498D01*
X048092Y067598D01*
X048192Y067698D01*
Y067798D01*
X048092D01*
X047992Y067698D01*
X047892Y067798D01*
X047792D01*
Y067698D01*
X047892Y067598D01*
X047792Y067498D01*
Y067398D01*
X043737Y093265D02*
X043837D01*
X043937Y093365D01*
X044037Y093265D01*
X044137D01*
Y093365D01*
X044037Y093465D01*
X044137Y093565D01*
Y093665D01*
X044037D01*
X043937Y093565D01*
X043837Y093665D01*
X043737D01*
Y093565D01*
X043837Y093465D01*
X043737Y093365D01*
Y093265D01*
X045706D02*
X045806D01*
X045906Y093365D01*
X046006Y093265D01*
X046106D01*
Y093365D01*
X046006Y093465D01*
X046106Y093565D01*
Y093665D01*
X046006D01*
X045906Y093565D01*
X045806Y093665D01*
X045706D01*
Y093565D01*
X045806Y093465D01*
X045706Y093365D01*
Y093265D01*
X047674D02*
X047774D01*
X047874Y093365D01*
X047974Y093265D01*
X048074D01*
Y093365D01*
X047974Y093465D01*
X048074Y093565D01*
Y093665D01*
X047974D01*
X047874Y093565D01*
X047774Y093665D01*
X047674D01*
Y093565D01*
X047774Y093465D01*
X047674Y093365D01*
Y093265D01*
X049643D02*
X049743D01*
X049843Y093365D01*
X049943Y093265D01*
X050043D01*
Y093365D01*
X049943Y093465D01*
X050043Y093565D01*
Y093665D01*
X049943D01*
X049843Y093565D01*
X049743Y093665D01*
X049643D01*
Y093565D01*
X049743Y093465D01*
X049643Y093365D01*
Y093265D01*
X054446Y092241D02*
X054546D01*
X054646Y092341D01*
X054746Y092241D01*
X054846D01*
Y092341D01*
X054746Y092441D01*
X054846Y092541D01*
Y092641D01*
X054746D01*
X054646Y092541D01*
X054546Y092641D01*
X054446D01*
Y092541D01*
X054546Y092441D01*
X054446Y092341D01*
Y092241D01*
X057241Y094249D02*
X057341D01*
X057441Y094349D01*
X057541Y094249D01*
X057641D01*
Y094349D01*
X057541Y094449D01*
X057641Y094549D01*
Y094649D01*
X057541D01*
X057441Y094549D01*
X057341Y094649D01*
X057241D01*
Y094549D01*
X057341Y094449D01*
X057241Y094349D01*
Y094249D01*
Y093265D02*
X057341D01*
X057441Y093365D01*
X057541Y093265D01*
X057641D01*
Y093365D01*
X057541Y093465D01*
X057641Y093565D01*
Y093665D01*
X057541D01*
X057441Y093565D01*
X057341Y093665D01*
X057241D01*
Y093565D01*
X057341Y093465D01*
X057241Y093365D01*
Y093265D01*
X063422Y093265D02*
X063522D01*
X063622Y093365D01*
X063722Y093265D01*
X063822D01*
Y093365D01*
X063722Y093465D01*
X063822Y093565D01*
Y093665D01*
X063722D01*
X063622Y093565D01*
X063522Y093665D01*
X063422D01*
Y093565D01*
X063522Y093465D01*
X063422Y093365D01*
Y093265D01*
X065154Y094131D02*
X065254D01*
X065354Y094231D01*
X065454Y094131D01*
X065554D01*
Y094231D01*
X065454Y094331D01*
X065554Y094431D01*
Y094531D01*
X065454D01*
X065354Y094431D01*
X065254Y094531D01*
X065154D01*
Y094431D01*
X065254Y094331D01*
X065154Y094231D01*
Y094131D01*
X063894D02*
X063994D01*
X064094Y094231D01*
X064194Y094131D01*
X064294D01*
Y094231D01*
X064194Y094331D01*
X064294Y094431D01*
Y094531D01*
X064194D01*
X064094Y094431D01*
X063994Y094531D01*
X063894D01*
Y094431D01*
X063994Y094331D01*
X063894Y094231D01*
Y094131D01*
X073265Y093501D02*
X073365D01*
X073465Y093601D01*
X073565Y093501D01*
X073665D01*
Y093601D01*
X073565Y093701D01*
X073665Y093801D01*
Y093901D01*
X073565D01*
X073465Y093801D01*
X073365Y093901D01*
X073265D01*
Y093801D01*
X073365Y093701D01*
X073265Y093601D01*
Y093501D01*
X075233D02*
X075333D01*
X075433Y093601D01*
X075533Y093501D01*
X075633D01*
Y093601D01*
X075533Y093701D01*
X075633Y093801D01*
Y093901D01*
X075533D01*
X075433Y093801D01*
X075333Y093901D01*
X075233D01*
Y093801D01*
X075333Y093701D01*
X075233Y093601D01*
Y093501D01*
X041768Y091296D02*
X041869D01*
X041968Y091396D01*
X042069Y091296D01*
X042168D01*
Y091396D01*
X042069Y091496D01*
X042168Y091596D01*
Y091696D01*
X042069D01*
X041968Y091596D01*
X041869Y091696D01*
X041768D01*
Y091596D01*
X041869Y091496D01*
X041768Y091396D01*
Y091296D01*
X043737Y091769D02*
X043837D01*
X043937Y091868D01*
X044037Y091769D01*
X044137D01*
Y091868D01*
X044037Y091968D01*
X044137Y092069D01*
Y092169D01*
X044037D01*
X043937Y092069D01*
X043837Y092169D01*
X043737D01*
Y092069D01*
X043837Y091968D01*
X043737Y091868D01*
Y091769D01*
X047674Y091414D02*
X047774D01*
X047874Y091514D01*
X047974Y091414D01*
X048074D01*
Y091514D01*
X047974Y091614D01*
X048074Y091714D01*
Y091814D01*
X047974D01*
X047874Y091714D01*
X047774Y091814D01*
X047674D01*
Y091714D01*
X047774Y091614D01*
X047674Y091514D01*
Y091414D01*
X053580Y091139D02*
X053680D01*
X053780Y091239D01*
X053880Y091139D01*
X053980D01*
Y091239D01*
X053880Y091339D01*
X053980Y091439D01*
Y091539D01*
X053880D01*
X053780Y091439D01*
X053680Y091539D01*
X053580D01*
Y091439D01*
X053680Y091339D01*
X053580Y091239D01*
Y091139D01*
X055430Y092241D02*
X055530D01*
X055630Y092341D01*
X055730Y092241D01*
X055830D01*
Y092341D01*
X055730Y092441D01*
X055830Y092541D01*
Y092641D01*
X055730D01*
X055630Y092541D01*
X055530Y092641D01*
X055430D01*
Y092541D01*
X055530Y092441D01*
X055430Y092341D01*
Y092241D01*
X062320Y091847D02*
X062420D01*
X062520Y091947D01*
X062620Y091847D01*
X062720D01*
Y091947D01*
X062620Y092047D01*
X062720Y092147D01*
Y092247D01*
X062620D01*
X062520Y092147D01*
X062420Y092247D01*
X062320D01*
Y092147D01*
X062420Y092047D01*
X062320Y091947D01*
Y091847D01*
X060509Y090430D02*
X060609D01*
X060709Y090530D01*
X060809Y090430D01*
X060909D01*
Y090530D01*
X060809Y090630D01*
X060909Y090730D01*
Y090830D01*
X060809D01*
X060709Y090730D01*
X060609Y090830D01*
X060509D01*
Y090730D01*
X060609Y090630D01*
X060509Y090530D01*
Y090430D01*
X063422Y091296D02*
X063522D01*
X063622Y091396D01*
X063722Y091296D01*
X063822D01*
Y091396D01*
X063722Y091496D01*
X063822Y091596D01*
Y091696D01*
X063722D01*
X063622Y091596D01*
X063522Y091696D01*
X063422D01*
Y091596D01*
X063522Y091496D01*
X063422Y091396D01*
Y091296D01*
X065391D02*
X065491D01*
X065591Y091396D01*
X065691Y091296D01*
X065791D01*
Y091396D01*
X065691Y091496D01*
X065791Y091596D01*
Y091696D01*
X065691D01*
X065591Y091596D01*
X065491Y091696D01*
X065391D01*
Y091596D01*
X065491Y091496D01*
X065391Y091396D01*
Y091296D01*
X067359Y091729D02*
X067459D01*
X067559Y091829D01*
X067659Y091729D01*
X067759D01*
Y091829D01*
X067659Y091929D01*
X067759Y092029D01*
Y092129D01*
X067659D01*
X067559Y092029D01*
X067459Y092129D01*
X067359D01*
Y092029D01*
X067459Y091929D01*
X067359Y091829D01*
Y091729D01*
X071296Y091808D02*
X071396D01*
X071496Y091908D01*
X071596Y091808D01*
X071696D01*
Y091908D01*
X071596Y092008D01*
X071696Y092108D01*
Y092208D01*
X071596D01*
X071496Y092108D01*
X071396Y092208D01*
X071296D01*
Y092108D01*
X071396Y092008D01*
X071296Y091908D01*
Y091808D01*
X041768Y089761D02*
X041869D01*
X041968Y089861D01*
X042069Y089761D01*
X042168D01*
Y089861D01*
X042069Y089961D01*
X042168Y090061D01*
Y090161D01*
X042069D01*
X041968Y090061D01*
X041869Y090161D01*
X041768D01*
Y090061D01*
X041869Y089961D01*
X041768Y089861D01*
Y089761D01*
X052832Y088658D02*
X052931D01*
X053032Y088758D01*
X053131Y088658D01*
X053232D01*
Y088758D01*
X053131Y088858D01*
X053232Y088958D01*
Y089058D01*
X053131D01*
X053032Y088958D01*
X052931Y089058D01*
X052832D01*
Y088958D01*
X052931Y088858D01*
X052832Y088758D01*
Y088658D01*
X059485Y088816D02*
X059585D01*
X059685Y088916D01*
X059785Y088816D01*
X059885D01*
Y088916D01*
X059785Y089016D01*
X059885Y089116D01*
Y089216D01*
X059785D01*
X059685Y089116D01*
X059585Y089216D01*
X059485D01*
Y089116D01*
X059585Y089016D01*
X059485Y088916D01*
Y088816D01*
X061454Y088501D02*
X061554D01*
X061654Y088601D01*
X061754Y088501D01*
X061854D01*
Y088601D01*
X061754Y088701D01*
X061854Y088801D01*
Y088901D01*
X061754D01*
X061654Y088801D01*
X061554Y088901D01*
X061454D01*
Y088801D01*
X061554Y088701D01*
X061454Y088601D01*
Y088501D01*
X063422D02*
X063522D01*
X063622Y088601D01*
X063722Y088501D01*
X063822D01*
Y088601D01*
X063722Y088701D01*
X063822Y088801D01*
Y088901D01*
X063722D01*
X063622Y088801D01*
X063522Y088901D01*
X063422D01*
Y088801D01*
X063522Y088701D01*
X063422Y088601D01*
Y088501D01*
X065391Y088422D02*
X065491D01*
X065591Y088522D01*
X065691Y088422D01*
X065791D01*
Y088522D01*
X065691Y088622D01*
X065791Y088722D01*
Y088822D01*
X065691D01*
X065591Y088722D01*
X065491Y088822D01*
X065391D01*
Y088722D01*
X065491Y088622D01*
X065391Y088522D01*
Y088422D01*
X067359Y089328D02*
X067459D01*
X067559Y089428D01*
X067659Y089328D01*
X067759D01*
Y089428D01*
X067659Y089528D01*
X067759Y089628D01*
Y089728D01*
X067659D01*
X067559Y089628D01*
X067459Y089728D01*
X067359D01*
Y089628D01*
X067459Y089528D01*
X067359Y089428D01*
Y089328D01*
X068383Y088461D02*
X068483D01*
X068583Y088561D01*
X068683Y088461D01*
X068783D01*
Y088561D01*
X068683Y088661D01*
X068783Y088761D01*
Y088861D01*
X068683D01*
X068583Y088761D01*
X068483Y088861D01*
X068383D01*
Y088761D01*
X068483Y088661D01*
X068383Y088561D01*
Y088461D01*
X071296Y089328D02*
X071396D01*
X071496Y089428D01*
X071596Y089328D01*
X071696D01*
Y089428D01*
X071596Y089528D01*
X071696Y089628D01*
Y089728D01*
X071596D01*
X071496Y089628D01*
X071396Y089728D01*
X071296D01*
Y089628D01*
X071396Y089528D01*
X071296Y089428D01*
Y089328D01*
X057517Y087359D02*
X057617D01*
X057717Y087459D01*
X057817Y087359D01*
X057917D01*
Y087459D01*
X057817Y087559D01*
X057917Y087659D01*
Y087759D01*
X057817D01*
X057717Y087659D01*
X057617Y087759D01*
X057517D01*
Y087659D01*
X057617Y087559D01*
X057517Y087459D01*
Y087359D01*
X059485D02*
X059585D01*
X059685Y087459D01*
X059785Y087359D01*
X059885D01*
Y087459D01*
X059785Y087559D01*
X059885Y087659D01*
Y087759D01*
X059785D01*
X059685Y087659D01*
X059585Y087759D01*
X059485D01*
Y087659D01*
X059585Y087559D01*
X059485Y087459D01*
Y087359D01*
X061454D02*
X061554D01*
X061654Y087459D01*
X061754Y087359D01*
X061854D01*
Y087459D01*
X061754Y087559D01*
X061854Y087659D01*
Y087759D01*
X061754D01*
X061654Y087659D01*
X061554Y087759D01*
X061454D01*
Y087659D01*
X061554Y087559D01*
X061454Y087459D01*
Y087359D01*
X063422D02*
X063522D01*
X063622Y087459D01*
X063722Y087359D01*
X063822D01*
Y087459D01*
X063722Y087559D01*
X063822Y087659D01*
Y087759D01*
X063722D01*
X063622Y087659D01*
X063522Y087759D01*
X063422D01*
Y087659D01*
X063522Y087559D01*
X063422Y087459D01*
Y087359D01*
X065391D02*
X065491D01*
X065591Y087459D01*
X065691Y087359D01*
X065791D01*
Y087459D01*
X065691Y087559D01*
X065791Y087659D01*
Y087759D01*
X065691D01*
X065591Y087659D01*
X065491Y087759D01*
X065391D01*
Y087659D01*
X065491Y087559D01*
X065391Y087459D01*
Y087359D01*
X075233D02*
X075333D01*
X075433Y087459D01*
X075533Y087359D01*
X075633D01*
Y087459D01*
X075533Y087559D01*
X075633Y087659D01*
Y087759D01*
X075533D01*
X075433Y087659D01*
X075333Y087759D01*
X075233D01*
Y087659D01*
X075333Y087559D01*
X075233Y087459D01*
Y087359D01*
X041926Y085548D02*
X042026D01*
X042126Y085648D01*
X042226Y085548D01*
X042326D01*
Y085648D01*
X042226Y085748D01*
X042326Y085848D01*
Y085948D01*
X042226D01*
X042126Y085848D01*
X042026Y085948D01*
X041926D01*
Y085848D01*
X042026Y085748D01*
X041926Y085648D01*
Y085548D01*
X069328Y084918D02*
X069428D01*
X069528Y085018D01*
X069628Y084918D01*
X069728D01*
Y085018D01*
X069628Y085118D01*
X069728Y085218D01*
Y085318D01*
X069628D01*
X069528Y085218D01*
X069428Y085318D01*
X069328D01*
Y085218D01*
X069428Y085118D01*
X069328Y085018D01*
Y084918D01*
X040981Y084091D02*
X041081D01*
X041181Y084191D01*
X041281Y084091D01*
X041381D01*
Y084191D01*
X041281Y084291D01*
X041381Y084391D01*
Y084491D01*
X041281D01*
X041181Y084391D01*
X041081Y084491D01*
X040981D01*
Y084391D01*
X041081Y084291D01*
X040981Y084191D01*
Y084091D01*
X051611Y082989D02*
X051711D01*
X051811Y083089D01*
X051911Y082989D01*
X052011D01*
Y083089D01*
X051911Y083189D01*
X052011Y083289D01*
Y083389D01*
X051911D01*
X051811Y083289D01*
X051711Y083389D01*
X051611D01*
Y083289D01*
X051711Y083189D01*
X051611Y083089D01*
Y082989D01*
X053580Y083028D02*
X053680D01*
X053780Y083128D01*
X053880Y083028D01*
X053980D01*
Y083128D01*
X053880Y083228D01*
X053980Y083328D01*
Y083428D01*
X053880D01*
X053780Y083328D01*
X053680Y083428D01*
X053580D01*
Y083328D01*
X053680Y083228D01*
X053580Y083128D01*
Y083028D01*
X057517Y083422D02*
X057617D01*
X057717Y083522D01*
X057817Y083422D01*
X057917D01*
Y083522D01*
X057817Y083622D01*
X057917Y083722D01*
Y083822D01*
X057817D01*
X057717Y083722D01*
X057617Y083822D01*
X057517D01*
Y083722D01*
X057617Y083622D01*
X057517Y083522D01*
Y083422D01*
X059485D02*
X059585D01*
X059685Y083522D01*
X059785Y083422D01*
X059885D01*
Y083522D01*
X059785Y083622D01*
X059885Y083722D01*
Y083822D01*
X059785D01*
X059685Y083722D01*
X059585Y083822D01*
X059485D01*
Y083722D01*
X059585Y083622D01*
X059485Y083522D01*
Y083422D01*
X061454D02*
X061554D01*
X061654Y083522D01*
X061754Y083422D01*
X061854D01*
Y083522D01*
X061754Y083622D01*
X061854Y083722D01*
Y083822D01*
X061754D01*
X061654Y083722D01*
X061554Y083822D01*
X061454D01*
Y083722D01*
X061554Y083622D01*
X061454Y083522D01*
Y083422D01*
X063422D02*
X063522D01*
X063622Y083522D01*
X063722Y083422D01*
X063822D01*
Y083522D01*
X063722Y083622D01*
X063822Y083722D01*
Y083822D01*
X063722D01*
X063622Y083722D01*
X063522Y083822D01*
X063422D01*
Y083722D01*
X063522Y083622D01*
X063422Y083522D01*
Y083422D01*
X065391D02*
X065491D01*
X065591Y083522D01*
X065691Y083422D01*
X065791D01*
Y083522D01*
X065691Y083622D01*
X065791Y083722D01*
Y083822D01*
X065691D01*
X065591Y083722D01*
X065491Y083822D01*
X065391D01*
Y083722D01*
X065491Y083622D01*
X065391Y083522D01*
Y083422D01*
X067359D02*
X067459D01*
X067559Y083522D01*
X067659Y083422D01*
X067759D01*
Y083522D01*
X067659Y083622D01*
X067759Y083722D01*
Y083822D01*
X067659D01*
X067559Y083722D01*
X067459Y083822D01*
X067359D01*
Y083722D01*
X067459Y083622D01*
X067359Y083522D01*
Y083422D01*
X069328Y084052D02*
X069428D01*
X069528Y084152D01*
X069628Y084052D01*
X069728D01*
Y084152D01*
X069628Y084252D01*
X069728Y084352D01*
Y084452D01*
X069628D01*
X069528Y084352D01*
X069428Y084452D01*
X069328D01*
Y084352D01*
X069428Y084252D01*
X069328Y084152D01*
Y084052D01*
X073068Y084288D02*
X073168D01*
X073268Y084388D01*
X073368Y084288D01*
X073468D01*
Y084388D01*
X073368Y084488D01*
X073468Y084588D01*
Y084688D01*
X073368D01*
X073268Y084588D01*
X073168Y084688D01*
X073068D01*
Y084588D01*
X073168Y084488D01*
X073068Y084388D01*
Y084288D01*
X075076D02*
X075176D01*
X075276Y084388D01*
X075376Y084288D01*
X075476D01*
Y084388D01*
X075376Y084488D01*
X075476Y084588D01*
Y084688D01*
X075376D01*
X075276Y084588D01*
X075176Y084688D01*
X075076D01*
Y084588D01*
X075176Y084488D01*
X075076Y084388D01*
Y084288D01*
X049643Y081454D02*
X049743D01*
X049843Y081554D01*
X049943Y081454D01*
X050043D01*
Y081554D01*
X049943Y081654D01*
X050043Y081754D01*
Y081854D01*
X049943D01*
X049843Y081754D01*
X049743Y081854D01*
X049643D01*
Y081754D01*
X049743Y081654D01*
X049643Y081554D01*
Y081454D01*
X051611D02*
X051711D01*
X051811Y081554D01*
X051911Y081454D01*
X052011D01*
Y081554D01*
X051911Y081654D01*
X052011Y081754D01*
Y081854D01*
X051911D01*
X051811Y081754D01*
X051711Y081854D01*
X051611D01*
Y081754D01*
X051711Y081654D01*
X051611Y081554D01*
Y081454D01*
X053580D02*
X053680D01*
X053780Y081554D01*
X053880Y081454D01*
X053980D01*
Y081554D01*
X053880Y081654D01*
X053980Y081754D01*
Y081854D01*
X053880D01*
X053780Y081754D01*
X053680Y081854D01*
X053580D01*
Y081754D01*
X053680Y081654D01*
X053580Y081554D01*
Y081454D01*
X055548D02*
X055648D01*
X055748Y081554D01*
X055848Y081454D01*
X055948D01*
Y081554D01*
X055848Y081654D01*
X055948Y081754D01*
Y081854D01*
X055848D01*
X055748Y081754D01*
X055648Y081854D01*
X055548D01*
Y081754D01*
X055648Y081654D01*
X055548Y081554D01*
Y081454D01*
X057517D02*
X057617D01*
X057717Y081554D01*
X057817Y081454D01*
X057917D01*
Y081554D01*
X057817Y081654D01*
X057917Y081754D01*
Y081854D01*
X057817D01*
X057717Y081754D01*
X057617Y081854D01*
X057517D01*
Y081754D01*
X057617Y081654D01*
X057517Y081554D01*
Y081454D01*
X059485D02*
X059585D01*
X059685Y081554D01*
X059785Y081454D01*
X059885D01*
Y081554D01*
X059785Y081654D01*
X059885Y081754D01*
Y081854D01*
X059785D01*
X059685Y081754D01*
X059585Y081854D01*
X059485D01*
Y081754D01*
X059585Y081654D01*
X059485Y081554D01*
Y081454D01*
X061454D02*
X061554D01*
X061654Y081554D01*
X061754Y081454D01*
X061854D01*
Y081554D01*
X061754Y081654D01*
X061854Y081754D01*
Y081854D01*
X061754D01*
X061654Y081754D01*
X061554Y081854D01*
X061454D01*
Y081754D01*
X061554Y081654D01*
X061454Y081554D01*
Y081454D01*
X063422D02*
X063522D01*
X063622Y081554D01*
X063722Y081454D01*
X063822D01*
Y081554D01*
X063722Y081654D01*
X063822Y081754D01*
Y081854D01*
X063722D01*
X063622Y081754D01*
X063522Y081854D01*
X063422D01*
Y081754D01*
X063522Y081654D01*
X063422Y081554D01*
Y081454D01*
X065391D02*
X065491D01*
X065591Y081554D01*
X065691Y081454D01*
X065791D01*
Y081554D01*
X065691Y081654D01*
X065791Y081754D01*
Y081854D01*
X065691D01*
X065591Y081754D01*
X065491Y081854D01*
X065391D01*
Y081754D01*
X065491Y081654D01*
X065391Y081554D01*
Y081454D01*
X067359D02*
X067459D01*
X067559Y081554D01*
X067659Y081454D01*
X067759D01*
Y081554D01*
X067659Y081654D01*
X067759Y081754D01*
Y081854D01*
X067659D01*
X067559Y081754D01*
X067459Y081854D01*
X067359D01*
Y081754D01*
X067459Y081654D01*
X067359Y081554D01*
Y081454D01*
X069328D02*
X069428D01*
X069528Y081554D01*
X069628Y081454D01*
X069728D01*
Y081554D01*
X069628Y081654D01*
X069728Y081754D01*
Y081854D01*
X069628D01*
X069528Y081754D01*
X069428Y081854D01*
X069328D01*
Y081754D01*
X069428Y081654D01*
X069328Y081554D01*
Y081454D01*
X073028Y080272D02*
X073128D01*
X073228Y080372D01*
X073328Y080272D01*
X073428D01*
Y080372D01*
X073328Y080472D01*
X073428Y080572D01*
Y080672D01*
X073328D01*
X073228Y080572D01*
X073128Y080672D01*
X073028D01*
Y080572D01*
X073128Y080472D01*
X073028Y080372D01*
Y080272D01*
X075076D02*
X075176D01*
X075276Y080372D01*
X075376Y080272D01*
X075476D01*
Y080372D01*
X075376Y080472D01*
X075476Y080572D01*
Y080672D01*
X075376D01*
X075276Y080572D01*
X075176Y080672D01*
X075076D01*
Y080572D01*
X075176Y080472D01*
X075076Y080372D01*
Y080272D01*
X040587Y078934D02*
X040687D01*
X040787Y079034D01*
X040887Y078934D01*
X040987D01*
Y079034D01*
X040887Y079134D01*
X040987Y079234D01*
Y079334D01*
X040887D01*
X040787Y079234D01*
X040687Y079334D01*
X040587D01*
Y079234D01*
X040687Y079134D01*
X040587Y079034D01*
Y078934D01*
X045706Y079485D02*
X045806D01*
X045906Y079585D01*
X046006Y079485D01*
X046106D01*
Y079585D01*
X046006Y079685D01*
X046106Y079785D01*
Y079885D01*
X046006D01*
X045906Y079785D01*
X045806Y079885D01*
X045706D01*
Y079785D01*
X045806Y079685D01*
X045706Y079585D01*
Y079485D01*
X049643D02*
X049743D01*
X049843Y079585D01*
X049943Y079485D01*
X050043D01*
Y079585D01*
X049943Y079685D01*
X050043Y079785D01*
Y079885D01*
X049943D01*
X049843Y079785D01*
X049743Y079885D01*
X049643D01*
Y079785D01*
X049743Y079685D01*
X049643Y079585D01*
Y079485D01*
X051611D02*
X051711D01*
X051811Y079585D01*
X051911Y079485D01*
X052011D01*
Y079585D01*
X051911Y079685D01*
X052011Y079785D01*
Y079885D01*
X051911D01*
X051811Y079785D01*
X051711Y079885D01*
X051611D01*
Y079785D01*
X051711Y079685D01*
X051611Y079585D01*
Y079485D01*
X053580D02*
X053680D01*
X053780Y079585D01*
X053880Y079485D01*
X053980D01*
Y079585D01*
X053880Y079685D01*
X053980Y079785D01*
Y079885D01*
X053880D01*
X053780Y079785D01*
X053680Y079885D01*
X053580D01*
Y079785D01*
X053680Y079685D01*
X053580Y079585D01*
Y079485D01*
X055548D02*
X055648D01*
X055748Y079585D01*
X055848Y079485D01*
X055948D01*
Y079585D01*
X055848Y079685D01*
X055948Y079785D01*
Y079885D01*
X055848D01*
X055748Y079785D01*
X055648Y079885D01*
X055548D01*
Y079785D01*
X055648Y079685D01*
X055548Y079585D01*
Y079485D01*
X057517D02*
X057617D01*
X057717Y079585D01*
X057817Y079485D01*
X057917D01*
Y079585D01*
X057817Y079685D01*
X057917Y079785D01*
Y079885D01*
X057817D01*
X057717Y079785D01*
X057617Y079885D01*
X057517D01*
Y079785D01*
X057617Y079685D01*
X057517Y079585D01*
Y079485D01*
X059485D02*
X059585D01*
X059685Y079585D01*
X059785Y079485D01*
X059885D01*
Y079585D01*
X059785Y079685D01*
X059885Y079785D01*
Y079885D01*
X059785D01*
X059685Y079785D01*
X059585Y079885D01*
X059485D01*
Y079785D01*
X059585Y079685D01*
X059485Y079585D01*
Y079485D01*
X061454D02*
X061554D01*
X061654Y079585D01*
X061754Y079485D01*
X061854D01*
Y079585D01*
X061754Y079685D01*
X061854Y079785D01*
Y079885D01*
X061754D01*
X061654Y079785D01*
X061554Y079885D01*
X061454D01*
Y079785D01*
X061554Y079685D01*
X061454Y079585D01*
Y079485D01*
X063422D02*
X063522D01*
X063622Y079585D01*
X063722Y079485D01*
X063822D01*
Y079585D01*
X063722Y079685D01*
X063822Y079785D01*
Y079885D01*
X063722D01*
X063622Y079785D01*
X063522Y079885D01*
X063422D01*
Y079785D01*
X063522Y079685D01*
X063422Y079585D01*
Y079485D01*
X065391Y080154D02*
X065491D01*
X065591Y080254D01*
X065691Y080154D01*
X065791D01*
Y080254D01*
X065691Y080354D01*
X065791Y080454D01*
Y080554D01*
X065691D01*
X065591Y080454D01*
X065491Y080554D01*
X065391D01*
Y080454D01*
X065491Y080354D01*
X065391Y080254D01*
Y080154D01*
X069328Y079485D02*
X069428D01*
X069528Y079585D01*
X069628Y079485D01*
X069728D01*
Y079585D01*
X069628Y079685D01*
X069728Y079785D01*
Y079885D01*
X069628D01*
X069528Y079785D01*
X069428Y079885D01*
X069328D01*
Y079785D01*
X069428Y079685D01*
X069328Y079585D01*
Y079485D01*
X040587Y077910D02*
X040687D01*
X040787Y078010D01*
X040887Y077910D01*
X040987D01*
Y078010D01*
X040887Y078110D01*
X040987Y078210D01*
Y078310D01*
X040887D01*
X040787Y078210D01*
X040687Y078310D01*
X040587D01*
Y078210D01*
X040687Y078110D01*
X040587Y078010D01*
Y077910D01*
X045706Y078501D02*
X045806D01*
X045906Y078601D01*
X046006Y078501D01*
X046106D01*
Y078601D01*
X046006Y078701D01*
X046106Y078801D01*
Y078901D01*
X046006D01*
X045906Y078801D01*
X045806Y078901D01*
X045706D01*
Y078801D01*
X045806Y078701D01*
X045706Y078601D01*
Y078501D01*
X047398Y077320D02*
X047498D01*
X047598Y077420D01*
X047698Y077320D01*
X047798D01*
Y077420D01*
X047698Y077520D01*
X047798Y077620D01*
Y077720D01*
X047698D01*
X047598Y077620D01*
X047498Y077720D01*
X047398D01*
Y077620D01*
X047498Y077520D01*
X047398Y077420D01*
Y077320D01*
X049643Y077517D02*
X049743D01*
X049843Y077617D01*
X049943Y077517D01*
X050043D01*
Y077617D01*
X049943Y077717D01*
X050043Y077817D01*
Y077917D01*
X049943D01*
X049843Y077817D01*
X049743Y077917D01*
X049643D01*
Y077817D01*
X049743Y077717D01*
X049643Y077617D01*
Y077517D01*
X051611D02*
X051711D01*
X051811Y077617D01*
X051911Y077517D01*
X052011D01*
Y077617D01*
X051911Y077717D01*
X052011Y077817D01*
Y077917D01*
X051911D01*
X051811Y077817D01*
X051711Y077917D01*
X051611D01*
Y077817D01*
X051711Y077717D01*
X051611Y077617D01*
Y077517D01*
X053580D02*
X053680D01*
X053780Y077617D01*
X053880Y077517D01*
X053980D01*
Y077617D01*
X053880Y077717D01*
X053980Y077817D01*
Y077917D01*
X053880D01*
X053780Y077817D01*
X053680Y077917D01*
X053580D01*
Y077817D01*
X053680Y077717D01*
X053580Y077617D01*
Y077517D01*
X055548D02*
X055648D01*
X055748Y077617D01*
X055848Y077517D01*
X055948D01*
Y077617D01*
X055848Y077717D01*
X055948Y077817D01*
Y077917D01*
X055848D01*
X055748Y077817D01*
X055648Y077917D01*
X055548D01*
Y077817D01*
X055648Y077717D01*
X055548Y077617D01*
Y077517D01*
X057280Y077753D02*
X057380D01*
X057480Y077853D01*
X057580Y077753D01*
X057680D01*
Y077853D01*
X057580Y077953D01*
X057680Y078053D01*
Y078153D01*
X057580D01*
X057480Y078053D01*
X057380Y078153D01*
X057280D01*
Y078053D01*
X057380Y077953D01*
X057280Y077853D01*
Y077753D01*
X059485Y077517D02*
X059585D01*
X059685Y077617D01*
X059785Y077517D01*
X059885D01*
Y077617D01*
X059785Y077717D01*
X059885Y077817D01*
Y077917D01*
X059785D01*
X059685Y077817D01*
X059585Y077917D01*
X059485D01*
Y077817D01*
X059585Y077717D01*
X059485Y077617D01*
Y077517D01*
X061454D02*
X061554D01*
X061654Y077617D01*
X061754Y077517D01*
X061854D01*
Y077617D01*
X061754Y077717D01*
X061854Y077817D01*
Y077917D01*
X061754D01*
X061654Y077817D01*
X061554Y077917D01*
X061454D01*
Y077817D01*
X061554Y077717D01*
X061454Y077617D01*
Y077517D01*
X063422D02*
X063522D01*
X063622Y077617D01*
X063722Y077517D01*
X063822D01*
Y077617D01*
X063722Y077717D01*
X063822Y077817D01*
Y077917D01*
X063722D01*
X063622Y077817D01*
X063522Y077917D01*
X063422D01*
Y077817D01*
X063522Y077717D01*
X063422Y077617D01*
Y077517D01*
X064918Y077517D02*
X065018D01*
X065118Y077617D01*
X065218Y077517D01*
X065318D01*
Y077617D01*
X065218Y077717D01*
X065318Y077817D01*
Y077917D01*
X065218D01*
X065118Y077817D01*
X065018Y077917D01*
X064918D01*
Y077817D01*
X065018Y077717D01*
X064918Y077617D01*
Y077517D01*
X040824Y074524D02*
X040924D01*
X041024Y074624D01*
X041124Y074524D01*
X041224D01*
Y074624D01*
X041124Y074724D01*
X041224Y074824D01*
Y074924D01*
X041124D01*
X041024Y074824D01*
X040924Y074924D01*
X040824D01*
Y074824D01*
X040924Y074724D01*
X040824Y074624D01*
Y074524D01*
X043146Y074918D02*
X043246D01*
X043346Y075018D01*
X043446Y074918D01*
X043546D01*
Y075018D01*
X043446Y075118D01*
X043546Y075218D01*
Y075318D01*
X043446D01*
X043346Y075218D01*
X043246Y075318D01*
X043146D01*
Y075218D01*
X043246Y075118D01*
X043146Y075018D01*
Y074918D01*
X048461Y076532D02*
X048561D01*
X048661Y076632D01*
X048761Y076532D01*
X048861D01*
Y076632D01*
X048761Y076732D01*
X048861Y076832D01*
Y076932D01*
X048761D01*
X048661Y076832D01*
X048561Y076932D01*
X048461D01*
Y076832D01*
X048561Y076732D01*
X048461Y076632D01*
Y076532D01*
X051611Y075548D02*
X051711D01*
X051811Y075648D01*
X051911Y075548D01*
X052011D01*
Y075648D01*
X051911Y075748D01*
X052011Y075848D01*
Y075948D01*
X051911D01*
X051811Y075848D01*
X051711Y075948D01*
X051611D01*
Y075848D01*
X051711Y075748D01*
X051611Y075648D01*
Y075548D01*
X053580D02*
X053680D01*
X053780Y075648D01*
X053880Y075548D01*
X053980D01*
Y075648D01*
X053880Y075748D01*
X053980Y075848D01*
Y075948D01*
X053880D01*
X053780Y075848D01*
X053680Y075948D01*
X053580D01*
Y075848D01*
X053680Y075748D01*
X053580Y075648D01*
Y075548D01*
X059485D02*
X059585D01*
X059685Y075648D01*
X059785Y075548D01*
X059885D01*
Y075648D01*
X059785Y075748D01*
X059885Y075848D01*
Y075948D01*
X059785D01*
X059685Y075848D01*
X059585Y075948D01*
X059485D01*
Y075848D01*
X059585Y075748D01*
X059485Y075648D01*
Y075548D01*
X061454D02*
X061554D01*
X061654Y075648D01*
X061754Y075548D01*
X061854D01*
Y075648D01*
X061754Y075748D01*
X061854Y075848D01*
Y075948D01*
X061754D01*
X061654Y075848D01*
X061554Y075948D01*
X061454D01*
Y075848D01*
X061554Y075748D01*
X061454Y075648D01*
Y075548D01*
X063422D02*
X063522D01*
X063622Y075648D01*
X063722Y075548D01*
X063822D01*
Y075648D01*
X063722Y075748D01*
X063822Y075848D01*
Y075948D01*
X063722D01*
X063622Y075848D01*
X063522Y075948D01*
X063422D01*
Y075848D01*
X063522Y075748D01*
X063422Y075648D01*
Y075548D01*
X065391D02*
X065491D01*
X065591Y075648D01*
X065691Y075548D01*
X065791D01*
Y075648D01*
X065691Y075748D01*
X065791Y075848D01*
Y075948D01*
X065691D01*
X065591Y075848D01*
X065491Y075948D01*
X065391D01*
Y075848D01*
X065491Y075748D01*
X065391Y075648D01*
Y075548D01*
X067359D02*
X067459D01*
X067559Y075648D01*
X067659Y075548D01*
X067759D01*
Y075648D01*
X067659Y075748D01*
X067759Y075848D01*
Y075948D01*
X067659D01*
X067559Y075848D01*
X067459Y075948D01*
X067359D01*
Y075848D01*
X067459Y075748D01*
X067359Y075648D01*
Y075548D01*
X069328D02*
X069428D01*
X069528Y075648D01*
X069628Y075548D01*
X069728D01*
Y075648D01*
X069628Y075748D01*
X069728Y075848D01*
Y075948D01*
X069628D01*
X069528Y075848D01*
X069428Y075948D01*
X069328D01*
Y075848D01*
X069428Y075748D01*
X069328Y075648D01*
Y075548D01*
X073068Y075351D02*
X073168D01*
X073268Y075451D01*
X073368Y075351D01*
X073468D01*
Y075451D01*
X073368Y075551D01*
X073468Y075651D01*
Y075751D01*
X073368D01*
X073268Y075651D01*
X073168Y075751D01*
X073068D01*
Y075651D01*
X073168Y075551D01*
X073068Y075451D01*
Y075351D01*
X041768Y073580D02*
X041869D01*
X041968Y073680D01*
X042069Y073580D01*
X042168D01*
Y073680D01*
X042069Y073780D01*
X042168Y073880D01*
Y073980D01*
X042069D01*
X041968Y073880D01*
X041869Y073980D01*
X041768D01*
Y073880D01*
X041869Y073780D01*
X041768Y073680D01*
Y073580D01*
X045706D02*
X045806D01*
X045906Y073680D01*
X046006Y073580D01*
X046106D01*
Y073680D01*
X046006Y073780D01*
X046106Y073880D01*
Y073980D01*
X046006D01*
X045906Y073880D01*
X045806Y073980D01*
X045706D01*
Y073880D01*
X045806Y073780D01*
X045706Y073680D01*
Y073580D01*
X047438Y073580D02*
X047538D01*
X047638Y073680D01*
X047738Y073580D01*
X047838D01*
Y073680D01*
X047738Y073780D01*
X047838Y073880D01*
Y073980D01*
X047738D01*
X047638Y073880D01*
X047538Y073980D01*
X047438D01*
Y073880D01*
X047538Y073780D01*
X047438Y073680D01*
Y073580D01*
X049643Y073816D02*
X049743D01*
X049843Y073916D01*
X049943Y073816D01*
X050043D01*
Y073916D01*
X049943Y074016D01*
X050043Y074116D01*
Y074216D01*
X049943D01*
X049843Y074116D01*
X049743Y074216D01*
X049643D01*
Y074116D01*
X049743Y074016D01*
X049643Y073916D01*
Y073816D01*
X051611D02*
X051711D01*
X051811Y073916D01*
X051911Y073816D01*
X052011D01*
Y073916D01*
X051911Y074016D01*
X052011Y074116D01*
Y074216D01*
X051911D01*
X051811Y074116D01*
X051711Y074216D01*
X051611D01*
Y074116D01*
X051711Y074016D01*
X051611Y073916D01*
Y073816D01*
X055981Y073580D02*
X056081D01*
X056181Y073680D01*
X056281Y073580D01*
X056381D01*
Y073680D01*
X056281Y073780D01*
X056381Y073880D01*
Y073980D01*
X056281D01*
X056181Y073880D01*
X056081Y073980D01*
X055981D01*
Y073880D01*
X056081Y073780D01*
X055981Y073680D01*
Y073580D01*
X059485Y073580D02*
X059585D01*
X059685Y073680D01*
X059785Y073580D01*
X059885D01*
Y073680D01*
X059785Y073780D01*
X059885Y073880D01*
Y073980D01*
X059785D01*
X059685Y073880D01*
X059585Y073980D01*
X059485D01*
Y073880D01*
X059585Y073780D01*
X059485Y073680D01*
Y073580D01*
X061454D02*
X061554D01*
X061654Y073680D01*
X061754Y073580D01*
X061854D01*
Y073680D01*
X061754Y073780D01*
X061854Y073880D01*
Y073980D01*
X061754D01*
X061654Y073880D01*
X061554Y073980D01*
X061454D01*
Y073880D01*
X061554Y073780D01*
X061454Y073680D01*
Y073580D01*
X063422D02*
X063522D01*
X063622Y073680D01*
X063722Y073580D01*
X063822D01*
Y073680D01*
X063722Y073780D01*
X063822Y073880D01*
Y073980D01*
X063722D01*
X063622Y073880D01*
X063522Y073980D01*
X063422D01*
Y073880D01*
X063522Y073780D01*
X063422Y073680D01*
Y073580D01*
X065391D02*
X065491D01*
X065591Y073680D01*
X065691Y073580D01*
X065791D01*
Y073680D01*
X065691Y073780D01*
X065791Y073880D01*
Y073980D01*
X065691D01*
X065591Y073880D01*
X065491Y073980D01*
X065391D01*
Y073880D01*
X065491Y073780D01*
X065391Y073680D01*
Y073580D01*
X067359D02*
X067459D01*
X067559Y073680D01*
X067659Y073580D01*
X067759D01*
Y073680D01*
X067659Y073780D01*
X067759Y073880D01*
Y073980D01*
X067659D01*
X067559Y073880D01*
X067459Y073980D01*
X067359D01*
Y073880D01*
X067459Y073780D01*
X067359Y073680D01*
Y073580D01*
X069328D02*
X069428D01*
X069528Y073680D01*
X069628Y073580D01*
X069728D01*
Y073680D01*
X069628Y073780D01*
X069728Y073880D01*
Y073980D01*
X069628D01*
X069528Y073880D01*
X069428Y073980D01*
X069328D01*
Y073880D01*
X069428Y073780D01*
X069328Y073680D01*
Y073580D01*
X073068Y073343D02*
X073168D01*
X073268Y073443D01*
X073368Y073343D01*
X073468D01*
Y073443D01*
X073368Y073543D01*
X073468Y073643D01*
Y073743D01*
X073368D01*
X073268Y073643D01*
X073168Y073743D01*
X073068D01*
Y073643D01*
X073168Y073543D01*
X073068Y073443D01*
Y073343D01*
X075076D02*
X075176D01*
X075276Y073443D01*
X075376Y073343D01*
X075476D01*
Y073443D01*
X075376Y073543D01*
X075476Y073643D01*
Y073743D01*
X075376D01*
X075276Y073643D01*
X075176Y073743D01*
X075076D01*
Y073643D01*
X075176Y073543D01*
X075076Y073443D01*
Y073343D01*
X041768Y071611D02*
X041869D01*
X041968Y071711D01*
X042069Y071611D01*
X042168D01*
Y071711D01*
X042069Y071811D01*
X042168Y071911D01*
Y072011D01*
X042069D01*
X041968Y071911D01*
X041869Y072011D01*
X041768D01*
Y071911D01*
X041869Y071811D01*
X041768Y071711D01*
Y071611D01*
X045706D02*
X045806D01*
X045906Y071711D01*
X046006Y071611D01*
X046106D01*
Y071711D01*
X046006Y071811D01*
X046106Y071911D01*
Y072011D01*
X046006D01*
X045906Y071911D01*
X045806Y072011D01*
X045706D01*
Y071911D01*
X045806Y071811D01*
X045706Y071711D01*
Y071611D01*
X047674D02*
X047774D01*
X047874Y071711D01*
X047974Y071611D01*
X048074D01*
Y071711D01*
X047974Y071811D01*
X048074Y071911D01*
Y072011D01*
X047974D01*
X047874Y071911D01*
X047774Y072011D01*
X047674D01*
Y071911D01*
X047774Y071811D01*
X047674Y071711D01*
Y071611D01*
X049643D02*
X049743D01*
X049843Y071711D01*
X049943Y071611D01*
X050043D01*
Y071711D01*
X049943Y071811D01*
X050043Y071911D01*
Y072011D01*
X049943D01*
X049843Y071911D01*
X049743Y072011D01*
X049643D01*
Y071911D01*
X049743Y071811D01*
X049643Y071711D01*
Y071611D01*
X051611D02*
X051711D01*
X051811Y071711D01*
X051911Y071611D01*
X052011D01*
Y071711D01*
X051911Y071811D01*
X052011Y071911D01*
Y072011D01*
X051911D01*
X051811Y071911D01*
X051711Y072011D01*
X051611D01*
Y071911D01*
X051711Y071811D01*
X051611Y071711D01*
Y071611D01*
X053580D02*
X053680D01*
X053780Y071711D01*
X053880Y071611D01*
X053980D01*
Y071711D01*
X053880Y071811D01*
X053980Y071911D01*
Y072011D01*
X053880D01*
X053780Y071911D01*
X053680Y072011D01*
X053580D01*
Y071911D01*
X053680Y071811D01*
X053580Y071711D01*
Y071611D01*
X055942Y070194D02*
X056042D01*
X056142Y070294D01*
X056242Y070194D01*
X056342D01*
Y070294D01*
X056242Y070394D01*
X056342Y070494D01*
Y070594D01*
X056242D01*
X056142Y070494D01*
X056042Y070594D01*
X055942D01*
Y070494D01*
X056042Y070394D01*
X055942Y070294D01*
Y070194D01*
X057517Y071611D02*
X057617D01*
X057717Y071711D01*
X057817Y071611D01*
X057917D01*
Y071711D01*
X057817Y071811D01*
X057917Y071911D01*
Y072011D01*
X057817D01*
X057717Y071911D01*
X057617Y072011D01*
X057517D01*
Y071911D01*
X057617Y071811D01*
X057517Y071711D01*
Y071611D01*
X063422D02*
X063522D01*
X063622Y071711D01*
X063722Y071611D01*
X063822D01*
Y071711D01*
X063722Y071811D01*
X063822Y071911D01*
Y072011D01*
X063722D01*
X063622Y071911D01*
X063522Y072011D01*
X063422D01*
Y071911D01*
X063522Y071811D01*
X063422Y071711D01*
Y071611D01*
X065391D02*
X065491D01*
X065591Y071711D01*
X065691Y071611D01*
X065791D01*
Y071711D01*
X065691Y071811D01*
X065791Y071911D01*
Y072011D01*
X065691D01*
X065591Y071911D01*
X065491Y072011D01*
X065391D01*
Y071911D01*
X065491Y071811D01*
X065391Y071711D01*
Y071611D01*
X067359D02*
X067459D01*
X067559Y071711D01*
X067659Y071611D01*
X067759D01*
Y071711D01*
X067659Y071811D01*
X067759Y071911D01*
Y072011D01*
X067659D01*
X067559Y071911D01*
X067459Y072011D01*
X067359D01*
Y071911D01*
X067459Y071811D01*
X067359Y071711D01*
Y071611D01*
X069328D02*
X069428D01*
X069528Y071711D01*
X069628Y071611D01*
X069728D01*
Y071711D01*
X069628Y071811D01*
X069728Y071911D01*
Y072011D01*
X069628D01*
X069528Y071911D01*
X069428Y072011D01*
X069328D01*
Y071911D01*
X069428Y071811D01*
X069328Y071711D01*
Y071611D01*
X075076Y071335D02*
X075176D01*
X075276Y071435D01*
X075376Y071335D01*
X075476D01*
Y071435D01*
X075376Y071535D01*
X075476Y071635D01*
Y071735D01*
X075376D01*
X075276Y071635D01*
X075176Y071735D01*
X075076D01*
Y071635D01*
X075176Y071535D01*
X075076Y071435D01*
Y071335D01*
X041768Y069643D02*
X041869D01*
X041968Y069743D01*
X042069Y069643D01*
X042168D01*
Y069743D01*
X042069Y069843D01*
X042168Y069943D01*
Y070043D01*
X042069D01*
X041968Y069943D01*
X041869Y070043D01*
X041768D01*
Y069943D01*
X041869Y069843D01*
X041768Y069743D01*
Y069643D01*
X045706D02*
X045806D01*
X045906Y069743D01*
X046006Y069643D01*
X046106D01*
Y069743D01*
X046006Y069843D01*
X046106Y069943D01*
Y070043D01*
X046006D01*
X045906Y069943D01*
X045806Y070043D01*
X045706D01*
Y069943D01*
X045806Y069843D01*
X045706Y069743D01*
Y069643D01*
X047674D02*
X047774D01*
X047874Y069743D01*
X047974Y069643D01*
X048074D01*
Y069743D01*
X047974Y069843D01*
X048074Y069943D01*
Y070043D01*
X047974D01*
X047874Y069943D01*
X047774Y070043D01*
X047674D01*
Y069943D01*
X047774Y069843D01*
X047674Y069743D01*
Y069643D01*
X049643D02*
X049743D01*
X049843Y069743D01*
X049943Y069643D01*
X050043D01*
Y069743D01*
X049943Y069843D01*
X050043Y069943D01*
Y070043D01*
X049943D01*
X049843Y069943D01*
X049743Y070043D01*
X049643D01*
Y069943D01*
X049743Y069843D01*
X049643Y069743D01*
Y069643D01*
X051611D02*
X051711D01*
X051811Y069743D01*
X051911Y069643D01*
X052011D01*
Y069743D01*
X051911Y069843D01*
X052011Y069943D01*
Y070043D01*
X051911D01*
X051811Y069943D01*
X051711Y070043D01*
X051611D01*
Y069943D01*
X051711Y069843D01*
X051611Y069743D01*
Y069643D01*
X053580D02*
X053680D01*
X053780Y069743D01*
X053880Y069643D01*
X053980D01*
Y069743D01*
X053880Y069843D01*
X053980Y069943D01*
Y070043D01*
X053880D01*
X053780Y069943D01*
X053680Y070043D01*
X053580D01*
Y069943D01*
X053680Y069843D01*
X053580Y069743D01*
Y069643D01*
X059485D02*
X059585D01*
X059685Y069743D01*
X059785Y069643D01*
X059885D01*
Y069743D01*
X059785Y069843D01*
X059885Y069943D01*
Y070043D01*
X059785D01*
X059685Y069943D01*
X059585Y070043D01*
X059485D01*
Y069943D01*
X059585Y069843D01*
X059485Y069743D01*
Y069643D01*
X061965D02*
X062065D01*
X062165Y069743D01*
X062265Y069643D01*
X062365D01*
Y069743D01*
X062265Y069843D01*
X062365Y069943D01*
Y070043D01*
X062265D01*
X062165Y069943D01*
X062065Y070043D01*
X061965D01*
Y069943D01*
X062065Y069843D01*
X061965Y069743D01*
Y069643D01*
X063422D02*
X063522D01*
X063622Y069743D01*
X063722Y069643D01*
X063822D01*
Y069743D01*
X063722Y069843D01*
X063822Y069943D01*
Y070043D01*
X063722D01*
X063622Y069943D01*
X063522Y070043D01*
X063422D01*
Y069943D01*
X063522Y069843D01*
X063422Y069743D01*
Y069643D01*
X065391D02*
X065491D01*
X065591Y069743D01*
X065691Y069643D01*
X065791D01*
Y069743D01*
X065691Y069843D01*
X065791Y069943D01*
Y070043D01*
X065691D01*
X065591Y069943D01*
X065491Y070043D01*
X065391D01*
Y069943D01*
X065491Y069843D01*
X065391Y069743D01*
Y069643D01*
X067359D02*
X067459D01*
X067559Y069743D01*
X067659Y069643D01*
X067759D01*
Y069743D01*
X067659Y069843D01*
X067759Y069943D01*
Y070043D01*
X067659D01*
X067559Y069943D01*
X067459Y070043D01*
X067359D01*
Y069943D01*
X067459Y069843D01*
X067359Y069743D01*
Y069643D01*
X069328D02*
X069428D01*
X069528Y069743D01*
X069628Y069643D01*
X069728D01*
Y069743D01*
X069628Y069843D01*
X069728Y069943D01*
Y070043D01*
X069628D01*
X069528Y069943D01*
X069428Y070043D01*
X069328D01*
Y069943D01*
X069428Y069843D01*
X069328Y069743D01*
Y069643D01*
X071729Y069957D02*
X071829D01*
X071929Y070057D01*
X072029Y069957D01*
X072129D01*
Y070057D01*
X072029Y070157D01*
X072129Y070257D01*
Y070357D01*
X072029D01*
X071929Y070257D01*
X071829Y070357D01*
X071729D01*
Y070257D01*
X071829Y070157D01*
X071729Y070057D01*
Y069957D01*
X073068Y069328D02*
X073168D01*
X073268Y069428D01*
X073368Y069328D01*
X073468D01*
Y069428D01*
X073368Y069528D01*
X073468Y069628D01*
Y069728D01*
X073368D01*
X073268Y069628D01*
X073168Y069728D01*
X073068D01*
Y069628D01*
X073168Y069528D01*
X073068Y069428D01*
Y069328D01*
X075076D02*
X075176D01*
X075276Y069428D01*
X075376Y069328D01*
X075476D01*
Y069428D01*
X075376Y069528D01*
X075476Y069628D01*
Y069728D01*
X075376D01*
X075276Y069628D01*
X075176Y069728D01*
X075076D01*
Y069628D01*
X075176Y069528D01*
X075076Y069428D01*
Y069328D01*
X041768Y067674D02*
X041869D01*
X041968Y067774D01*
X042069Y067674D01*
X042168D01*
Y067774D01*
X042069Y067874D01*
X042168Y067974D01*
Y068074D01*
X042069D01*
X041968Y067974D01*
X041869Y068074D01*
X041768D01*
Y067974D01*
X041869Y067874D01*
X041768Y067774D01*
Y067674D01*
X045706D02*
X045806D01*
X045906Y067774D01*
X046006Y067674D01*
X046106D01*
Y067774D01*
X046006Y067874D01*
X046106Y067974D01*
Y068074D01*
X046006D01*
X045906Y067974D01*
X045806Y068074D01*
X045706D01*
Y067974D01*
X045806Y067874D01*
X045706Y067774D01*
Y067674D01*
X047674D02*
X047774D01*
X047874Y067774D01*
X047974Y067674D01*
X048074D01*
Y067774D01*
X047974Y067874D01*
X048074Y067974D01*
Y068074D01*
X047974D01*
X047874Y067974D01*
X047774Y068074D01*
X047674D01*
Y067974D01*
X047774Y067874D01*
X047674Y067774D01*
Y067674D01*
X053580D02*
X053680D01*
X053780Y067774D01*
X053880Y067674D01*
X053980D01*
Y067774D01*
X053880Y067874D01*
X053980Y067974D01*
Y068074D01*
X053880D01*
X053780Y067974D01*
X053680Y068074D01*
X053580D01*
Y067974D01*
X053680Y067874D01*
X053580Y067774D01*
Y067674D01*
X057517D02*
X057617D01*
X057717Y067774D01*
X057817Y067674D01*
X057917D01*
Y067774D01*
X057817Y067874D01*
X057917Y067974D01*
Y068074D01*
X057817D01*
X057717Y067974D01*
X057617Y068074D01*
X057517D01*
Y067974D01*
X057617Y067874D01*
X057517Y067774D01*
Y067674D01*
X059485D02*
X059585D01*
X059685Y067774D01*
X059785Y067674D01*
X059885D01*
Y067774D01*
X059785Y067874D01*
X059885Y067974D01*
Y068074D01*
X059785D01*
X059685Y067974D01*
X059585Y068074D01*
X059485D01*
Y067974D01*
X059585Y067874D01*
X059485Y067774D01*
Y067674D01*
X061965D02*
X062065D01*
X062165Y067774D01*
X062265Y067674D01*
X062365D01*
Y067774D01*
X062265Y067874D01*
X062365Y067974D01*
Y068074D01*
X062265D01*
X062165Y067974D01*
X062065Y068074D01*
X061965D01*
Y067974D01*
X062065Y067874D01*
X061965Y067774D01*
Y067674D01*
X063422D02*
X063522D01*
X063622Y067774D01*
X063722Y067674D01*
X063822D01*
Y067774D01*
X063722Y067874D01*
X063822Y067974D01*
Y068074D01*
X063722D01*
X063622Y067974D01*
X063522Y068074D01*
X063422D01*
Y067974D01*
X063522Y067874D01*
X063422Y067774D01*
Y067674D01*
X067359D02*
X067459D01*
X067559Y067774D01*
X067659Y067674D01*
X067759D01*
Y067774D01*
X067659Y067874D01*
X067759Y067974D01*
Y068074D01*
X067659D01*
X067559Y067974D01*
X067459Y068074D01*
X067359D01*
Y067974D01*
X067459Y067874D01*
X067359Y067774D01*
Y067674D01*
X069328D02*
X069428D01*
X069528Y067774D01*
X069628Y067674D01*
X069728D01*
Y067774D01*
X069628Y067874D01*
X069728Y067974D01*
Y068074D01*
X069628D01*
X069528Y067974D01*
X069428Y068074D01*
X069328D01*
Y067974D01*
X069428Y067874D01*
X069328Y067774D01*
Y067674D01*
X071296D02*
X071396D01*
X071496Y067774D01*
X071596Y067674D01*
X071696D01*
Y067774D01*
X071596Y067874D01*
X071696Y067974D01*
Y068074D01*
X071596D01*
X071496Y067974D01*
X071396Y068074D01*
X071296D01*
Y067974D01*
X071396Y067874D01*
X071296Y067774D01*
Y067674D01*
X041768Y065706D02*
X041869D01*
X041968Y065806D01*
X042069Y065706D01*
X042168D01*
Y065806D01*
X042069Y065906D01*
X042168Y066006D01*
Y066106D01*
X042069D01*
X041968Y066006D01*
X041869Y066106D01*
X041768D01*
Y066006D01*
X041869Y065906D01*
X041768Y065806D01*
Y065706D01*
X045706D02*
X045806D01*
X045906Y065806D01*
X046006Y065706D01*
X046106D01*
Y065806D01*
X046006Y065906D01*
X046106Y066006D01*
Y066106D01*
X046006D01*
X045906Y066006D01*
X045806Y066106D01*
X045706D01*
Y066006D01*
X045806Y065906D01*
X045706Y065806D01*
Y065706D01*
X047674D02*
X047774D01*
X047874Y065806D01*
X047974Y065706D01*
X048074D01*
Y065806D01*
X047974Y065906D01*
X048074Y066006D01*
Y066106D01*
X047974D01*
X047874Y066006D01*
X047774Y066106D01*
X047674D01*
Y066006D01*
X047774Y065906D01*
X047674Y065806D01*
Y065706D01*
X053973D02*
X054073D01*
X054173Y065806D01*
X054273Y065706D01*
X054373D01*
Y065806D01*
X054273Y065906D01*
X054373Y066006D01*
Y066106D01*
X054273D01*
X054173Y066006D01*
X054073Y066106D01*
X053973D01*
Y066006D01*
X054073Y065906D01*
X053973Y065806D01*
Y065706D01*
X055548D02*
X055648D01*
X055748Y065806D01*
X055848Y065706D01*
X055948D01*
Y065806D01*
X055848Y065906D01*
X055948Y066006D01*
Y066106D01*
X055848D01*
X055748Y066006D01*
X055648Y066106D01*
X055548D01*
Y066006D01*
X055648Y065906D01*
X055548Y065806D01*
Y065706D01*
X057517D02*
X057617D01*
X057717Y065806D01*
X057817Y065706D01*
X057917D01*
Y065806D01*
X057817Y065906D01*
X057917Y066006D01*
Y066106D01*
X057817D01*
X057717Y066006D01*
X057617Y066106D01*
X057517D01*
Y066006D01*
X057617Y065906D01*
X057517Y065806D01*
Y065706D01*
X061965Y065312D02*
X062065D01*
X062165Y065412D01*
X062265Y065312D01*
X062365D01*
Y065412D01*
X062265Y065512D01*
X062365Y065612D01*
Y065712D01*
X062265D01*
X062165Y065612D01*
X062065Y065712D01*
X061965D01*
Y065612D01*
X062065Y065512D01*
X061965Y065412D01*
Y065312D01*
X063422D02*
X063522D01*
X063622Y065412D01*
X063722Y065312D01*
X063822D01*
Y065412D01*
X063722Y065512D01*
X063822Y065612D01*
Y065712D01*
X063722D01*
X063622Y065612D01*
X063522Y065712D01*
X063422D01*
Y065612D01*
X063522Y065512D01*
X063422Y065412D01*
Y065312D01*
X065391Y065706D02*
X065491D01*
X065591Y065806D01*
X065691Y065706D01*
X065791D01*
Y065806D01*
X065691Y065906D01*
X065791Y066006D01*
Y066106D01*
X065691D01*
X065591Y066006D01*
X065491Y066106D01*
X065391D01*
Y066006D01*
X065491Y065906D01*
X065391Y065806D01*
Y065706D01*
X067359D02*
X067459D01*
X067559Y065806D01*
X067659Y065706D01*
X067759D01*
Y065806D01*
X067659Y065906D01*
X067759Y066006D01*
Y066106D01*
X067659D01*
X067559Y066006D01*
X067459Y066106D01*
X067359D01*
Y066006D01*
X067459Y065906D01*
X067359Y065806D01*
Y065706D01*
X069328D02*
X069428D01*
X069528Y065806D01*
X069628Y065706D01*
X069728D01*
Y065806D01*
X069628Y065906D01*
X069728Y066006D01*
Y066106D01*
X069628D01*
X069528Y066006D01*
X069428Y066106D01*
X069328D01*
Y066006D01*
X069428Y065906D01*
X069328Y065806D01*
Y065706D01*
X071296D02*
X071396D01*
X071496Y065806D01*
X071596Y065706D01*
X071696D01*
Y065806D01*
X071596Y065906D01*
X071696Y066006D01*
Y066106D01*
X071596D01*
X071496Y066006D01*
X071396Y066106D01*
X071296D01*
Y066006D01*
X071396Y065906D01*
X071296Y065806D01*
Y065706D01*
X075076Y065312D02*
X075176D01*
X075276Y065412D01*
X075376Y065312D01*
X075476D01*
Y065412D01*
X075376Y065512D01*
X075476Y065612D01*
Y065712D01*
X075376D01*
X075276Y065612D01*
X075176Y065712D01*
X075076D01*
Y065612D01*
X075176Y065512D01*
X075076Y065412D01*
Y065312D01*
X041768Y063737D02*
X041869D01*
X041968Y063837D01*
X042069Y063737D01*
X042168D01*
Y063837D01*
X042069Y063937D01*
X042168Y064037D01*
Y064137D01*
X042069D01*
X041968Y064037D01*
X041869Y064137D01*
X041768D01*
Y064037D01*
X041869Y063937D01*
X041768Y063837D01*
Y063737D01*
X043737D02*
X043837D01*
X043937Y063837D01*
X044037Y063737D01*
X044137D01*
Y063837D01*
X044037Y063937D01*
X044137Y064037D01*
Y064137D01*
X044037D01*
X043937Y064037D01*
X043837Y064137D01*
X043737D01*
Y064037D01*
X043837Y063937D01*
X043737Y063837D01*
Y063737D01*
X050312D02*
X050412D01*
X050512Y063837D01*
X050612Y063737D01*
X050712D01*
Y063837D01*
X050612Y063937D01*
X050712Y064037D01*
Y064137D01*
X050612D01*
X050512Y064037D01*
X050412Y064137D01*
X050312D01*
Y064037D01*
X050412Y063937D01*
X050312Y063837D01*
Y063737D01*
X057517D02*
X057617D01*
X057717Y063837D01*
X057817Y063737D01*
X057917D01*
Y063837D01*
X057817Y063937D01*
X057917Y064037D01*
Y064137D01*
X057817D01*
X057717Y064037D01*
X057617Y064137D01*
X057517D01*
Y064037D01*
X057617Y063937D01*
X057517Y063837D01*
Y063737D01*
X059485D02*
X059585D01*
X059685Y063837D01*
X059785Y063737D01*
X059885D01*
Y063837D01*
X059785Y063937D01*
X059885Y064037D01*
Y064137D01*
X059785D01*
X059685Y064037D01*
X059585Y064137D01*
X059485D01*
Y064037D01*
X059585Y063937D01*
X059485Y063837D01*
Y063737D01*
X061454D02*
X061554D01*
X061654Y063837D01*
X061754Y063737D01*
X061854D01*
Y063837D01*
X061754Y063937D01*
X061854Y064037D01*
Y064137D01*
X061754D01*
X061654Y064037D01*
X061554Y064137D01*
X061454D01*
Y064037D01*
X061554Y063937D01*
X061454Y063837D01*
Y063737D01*
X069328D02*
X069428D01*
X069528Y063837D01*
X069628Y063737D01*
X069728D01*
Y063837D01*
X069628Y063937D01*
X069728Y064037D01*
Y064137D01*
X069628D01*
X069528Y064037D01*
X069428Y064137D01*
X069328D01*
Y064037D01*
X069428Y063937D01*
X069328Y063837D01*
Y063737D01*
X071296D02*
X071396D01*
X071496Y063837D01*
X071596Y063737D01*
X071696D01*
Y063837D01*
X071596Y063937D01*
X071696Y064037D01*
Y064137D01*
X071596D01*
X071496Y064037D01*
X071396Y064137D01*
X071296D01*
Y064037D01*
X071396Y063937D01*
X071296Y063837D01*
Y063737D01*
X073265D02*
X073365D01*
X073465Y063837D01*
X073565Y063737D01*
X073665D01*
Y063837D01*
X073565Y063937D01*
X073665Y064037D01*
Y064137D01*
X073565D01*
X073465Y064037D01*
X073365Y064137D01*
X073265D01*
Y064037D01*
X073365Y063937D01*
X073265Y063837D01*
Y063737D01*
X043737Y061217D02*
X043837D01*
X043937Y061317D01*
X044037Y061217D01*
X044137D01*
Y061317D01*
X044037Y061417D01*
X044137Y061517D01*
Y061617D01*
X044037D01*
X043937Y061517D01*
X043837Y061617D01*
X043737D01*
Y061517D01*
X043837Y061417D01*
X043737Y061317D01*
Y061217D01*
X045706Y061768D02*
X045806D01*
X045906Y061869D01*
X046006Y061768D01*
X046106D01*
Y061869D01*
X046006Y061968D01*
X046106Y062069D01*
Y062168D01*
X046006D01*
X045906Y062069D01*
X045806Y062168D01*
X045706D01*
Y062069D01*
X045806Y061968D01*
X045706Y061869D01*
Y061768D01*
X047359D02*
X047459D01*
X047559Y061869D01*
X047659Y061768D01*
X047759D01*
Y061869D01*
X047659Y061968D01*
X047759Y062069D01*
Y062168D01*
X047659D01*
X047559Y062069D01*
X047459Y062168D01*
X047359D01*
Y062069D01*
X047459Y061968D01*
X047359Y061869D01*
Y061768D01*
X049643D02*
X049743D01*
X049843Y061869D01*
X049943Y061768D01*
X050043D01*
Y061869D01*
X049943Y061968D01*
X050043Y062069D01*
Y062168D01*
X049943D01*
X049843Y062069D01*
X049743Y062168D01*
X049643D01*
Y062069D01*
X049743Y061968D01*
X049643Y061869D01*
Y061768D01*
X052044D02*
X052144D01*
X052244Y061869D01*
X052344Y061768D01*
X052444D01*
Y061869D01*
X052344Y061968D01*
X052444Y062069D01*
Y062168D01*
X052344D01*
X052244Y062069D01*
X052144Y062168D01*
X052044D01*
Y062069D01*
X052144Y061968D01*
X052044Y061869D01*
Y061768D01*
X053580D02*
X053680D01*
X053780Y061869D01*
X053880Y061768D01*
X053980D01*
Y061869D01*
X053880Y061968D01*
X053980Y062069D01*
Y062168D01*
X053880D01*
X053780Y062069D01*
X053680Y062168D01*
X053580D01*
Y062069D01*
X053680Y061968D01*
X053580Y061869D01*
Y061768D01*
X055548D02*
X055648D01*
X055748Y061869D01*
X055848Y061768D01*
X055948D01*
Y061869D01*
X055848Y061968D01*
X055948Y062069D01*
Y062168D01*
X055848D01*
X055748Y062069D01*
X055648Y062168D01*
X055548D01*
Y062069D01*
X055648Y061968D01*
X055548Y061869D01*
Y061768D01*
X059485D02*
X059585D01*
X059685Y061869D01*
X059785Y061768D01*
X059885D01*
Y061869D01*
X059785Y061968D01*
X059885Y062069D01*
Y062168D01*
X059785D01*
X059685Y062069D01*
X059585Y062168D01*
X059485D01*
Y062069D01*
X059585Y061968D01*
X059485Y061869D01*
Y061768D01*
X061454D02*
X061554D01*
X061654Y061869D01*
X061754Y061768D01*
X061854D01*
Y061869D01*
X061754Y061968D01*
X061854Y062069D01*
Y062168D01*
X061754D01*
X061654Y062069D01*
X061554Y062168D01*
X061454D01*
Y062069D01*
X061554Y061968D01*
X061454Y061869D01*
Y061768D01*
X063816D02*
X063916D01*
X064016Y061869D01*
X064116Y061768D01*
X064216D01*
Y061869D01*
X064116Y061968D01*
X064216Y062069D01*
Y062168D01*
X064116D01*
X064016Y062069D01*
X063916Y062168D01*
X063816D01*
Y062069D01*
X063916Y061968D01*
X063816Y061869D01*
Y061768D01*
X065391D02*
X065491D01*
X065591Y061869D01*
X065691Y061768D01*
X065791D01*
Y061869D01*
X065691Y061968D01*
X065791Y062069D01*
Y062168D01*
X065691D01*
X065591Y062069D01*
X065491Y062168D01*
X065391D01*
Y062069D01*
X065491Y061968D01*
X065391Y061869D01*
Y061768D01*
X067359D02*
X067459D01*
X067559Y061869D01*
X067659Y061768D01*
X067759D01*
Y061869D01*
X067659Y061968D01*
X067759Y062069D01*
Y062168D01*
X067659D01*
X067559Y062069D01*
X067459Y062168D01*
X067359D01*
Y062069D01*
X067459Y061968D01*
X067359Y061869D01*
Y061768D01*
X069328D02*
X069428D01*
X069528Y061869D01*
X069628Y061768D01*
X069728D01*
Y061869D01*
X069628Y061968D01*
X069728Y062069D01*
Y062168D01*
X069628D01*
X069528Y062069D01*
X069428Y062168D01*
X069328D01*
Y062069D01*
X069428Y061968D01*
X069328Y061869D01*
Y061768D01*
X071296D02*
X071396D01*
X071496Y061869D01*
X071596Y061768D01*
X071696D01*
Y061869D01*
X071596Y061968D01*
X071696Y062069D01*
Y062168D01*
X071596D01*
X071496Y062069D01*
X071396Y062168D01*
X071296D01*
Y062069D01*
X071396Y061968D01*
X071296Y061869D01*
Y061768D01*
X073265D02*
X073365D01*
X073465Y061869D01*
X073565Y061768D01*
X073665D01*
Y061869D01*
X073565Y061968D01*
X073665Y062069D01*
Y062168D01*
X073565D01*
X073465Y062069D01*
X073365Y062168D01*
X073265D01*
Y062069D01*
X073365Y061968D01*
X073265Y061869D01*
Y061768D01*
X045706Y091414D02*
X045806D01*
X045906Y091514D01*
X046006Y091414D01*
X046106D01*
Y091514D01*
X046006Y091614D01*
X046106Y091714D01*
Y091814D01*
X046006D01*
X045906Y091714D01*
X045806Y091814D01*
X045706D01*
Y091714D01*
X045806Y091614D01*
X045706Y091514D01*
Y091414D01*
X049643Y094209D02*
X049743D01*
X049843Y094309D01*
X049943Y094209D01*
X050043D01*
Y094309D01*
X049943Y094409D01*
X050043Y094509D01*
Y094609D01*
X049943D01*
X049843Y094509D01*
X049743Y094609D01*
X049643D01*
Y094509D01*
X049743Y094409D01*
X049643Y094309D01*
Y094209D01*
X047674D02*
X047774D01*
X047874Y094309D01*
X047974Y094209D01*
X048074D01*
Y094309D01*
X047974Y094409D01*
X048074Y094509D01*
Y094609D01*
X047974D01*
X047874Y094509D01*
X047774Y094609D01*
X047674D01*
Y094509D01*
X047774Y094409D01*
X047674Y094309D01*
Y094209D01*
X045706D02*
X045806D01*
X045906Y094309D01*
X046006Y094209D01*
X046106D01*
Y094309D01*
X046006Y094409D01*
X046106Y094509D01*
Y094609D01*
X046006D01*
X045906Y094509D01*
X045806Y094609D01*
X045706D01*
Y094509D01*
X045806Y094409D01*
X045706Y094309D01*
Y094209D01*
X043737D02*
X043837D01*
X043937Y094309D01*
X044037Y094209D01*
X044137D01*
Y094309D01*
X044037Y094409D01*
X044137Y094509D01*
Y094609D01*
X044037D01*
X043937Y094509D01*
X043837Y094609D01*
X043737D01*
Y094509D01*
X043837Y094409D01*
X043737Y094309D01*
Y094209D01*
X045706Y092162D02*
X045806D01*
X045906Y092262D01*
X046006Y092162D01*
X046106D01*
Y092262D01*
X046006Y092362D01*
X046106Y092462D01*
Y092562D01*
X046006D01*
X045906Y092462D01*
X045806Y092562D01*
X045706D01*
Y092462D01*
X045806Y092362D01*
X045706Y092262D01*
Y092162D01*
X047674D02*
X047774D01*
X047874Y092262D01*
X047974Y092162D01*
X048074D01*
Y092262D01*
X047974Y092362D01*
X048074Y092462D01*
Y092562D01*
X047974D01*
X047874Y092462D01*
X047774Y092562D01*
X047674D01*
Y092462D01*
X047774Y092362D01*
X047674Y092262D01*
Y092162D01*
X043737Y087398D02*
X043837Y087598D01*
X043737Y087798D01*
X043937Y087698D01*
X044137Y087798D01*
X044037Y087598D01*
X044137Y087398D01*
X043937Y087498D01*
X043737Y087398D01*
X040981Y085272D02*
X041081D01*
X041181Y085372D01*
X041281Y085272D01*
X041381D01*
Y085372D01*
X041281Y085472D01*
X041381Y085572D01*
Y085672D01*
X041281D01*
X041181Y085572D01*
X041081Y085672D01*
X040981D01*
Y085572D01*
X041081Y085472D01*
X040981Y085372D01*
Y085272D01*
X061965Y071611D02*
X062065D01*
X062165Y071711D01*
X062265Y071611D01*
X062365D01*
Y071711D01*
X062265Y071811D01*
X062365Y071911D01*
Y072011D01*
X062265D01*
X062165Y071911D01*
X062065Y072011D01*
X061965D01*
Y071911D01*
X062065Y071811D01*
X061965Y071711D01*
Y071611D01*
X073068Y065351D02*
X073168D01*
X073268Y065451D01*
X073368Y065351D01*
X073468D01*
Y065451D01*
X073368Y065551D01*
X073468Y065651D01*
Y065751D01*
X073368D01*
X073268Y065651D01*
X073168Y065751D01*
X073068D01*
Y065651D01*
X073168Y065551D01*
X073068Y065451D01*
Y065351D01*
X071887Y070863D02*
X071987D01*
X072087Y070963D01*
X072187Y070863D01*
X072287D01*
Y070963D01*
X072187Y071063D01*
X072287Y071163D01*
Y071263D01*
X072187D01*
X072087Y071163D01*
X071987Y071263D01*
X071887D01*
Y071163D01*
X071987Y071063D01*
X071887Y070963D01*
Y070863D01*
X055548Y083028D02*
X055648D01*
X055748Y083128D01*
X055848Y083028D01*
X055948D01*
Y083128D01*
X055848Y083228D01*
X055948Y083328D01*
Y083428D01*
X055848D01*
X055748Y083328D01*
X055648Y083428D01*
X055548D01*
Y083328D01*
X055648Y083228D01*
X055548Y083128D01*
Y083028D01*
D43*
X040000Y060000D02*
X077752D01*
X040000Y095500D02*
X077752D01*
Y060000D02*
Y095500D01*
X040000Y060000D02*
Y095500D01*
D96*
X066106Y064882D02*
G03*
X066106Y064882I-000200J000000D01*
G01*
X068074D02*
G03*
X068074Y064882I-000200J000000D01*
G01*
Y062913D02*
G03*
X068074Y062913I-000200J000000D01*
G01*
X066106D02*
G03*
X066106Y062913I-000200J000000D01*
G01*
X067090Y063898D02*
G03*
X067090Y063898I-000200J000000D01*
G01*
M02*
